LibreCaslonText2048-Regular.ufo
<glyph name="exclam" format="2">
  <advance width="530.0"/>
  <unicode hex="0021"/>
  <outline>
    <contour>
      <point x="292.0" y="405.0" type="line"/>
      <point x="303.0" y="593.0"/>
      <point x="320.0" y="771.0"/>
      <point x="336.0" y="915.0" type="curve" smooth="yes"/>
      <point x="356.0" y="1084.0"/>
      <point x="371.0" y="1211.0"/>
      <point x="371.0" y="1257.0" type="curve" smooth="yes"/>
      <point x="371.0" y="1320.0"/>
      <point x="341.0" y="1373.0"/>
      <point x="266.0" y="1373.0" type="curve" smooth="yes"/>
      <point x="197.0" y="1373.0"/>
      <point x="158.0" y="1320.0"/>
      <point x="158.0" y="1251.0" type="curve" smooth="yes"/>
      <point x="158.0" y="1207.0"/>
      <point x="174.0" y="1081.0"/>
      <point x="194.0" y="908.0" type="curve" smooth="yes"/>
      <point x="209.0" y="766.0"/>
      <point x="225.0" y="591.0"/>
      <point x="238.0" y="405.0" type="curve"/>
    </contour>
    <contour>
      <point x="151.0" y="95.0" type="curve" smooth="yes"/>
      <point x="151.0" y="33.0"/>
      <point x="195.0" y="-18.0"/>
      <point x="264.0" y="-18.0" type="curve" smooth="yes"/>
      <point x="336.0" y="-18.0"/>
      <point x="380.0" y="33.0"/>
      <point x="380.0" y="95.0" type="curve" smooth="yes"/>
      <point x="380.0" y="162.0"/>
      <point x="336.0" y="211.0"/>
      <point x="264.0" y="211.0" type="curve" smooth="yes"/>
      <point x="195.0" y="211.0"/>
      <point x="151.0" y="162.0"/>
    </contour>
  </outline>
</glyph>
<glyph name="quotedbl" format="2">
  <advance width="651.0"/>
  <unicode hex="0022"/>
  <outline>
    <contour>
      <point x="218.0" y="889.0" type="line"/>
      <point x="225.0" y="1102.0"/>
      <point x="285.0" y="1272.0"/>
      <point x="285.0" y="1362.0" type="curve" smooth="yes"/>
      <point x="285.0" y="1419.0"/>
      <point x="252.0" y="1461.0"/>
      <point x="192.0" y="1461.0" type="curve" smooth="yes"/>
      <point x="134.0" y="1461.0"/>
      <point x="99.0" y="1420.0"/>
      <point x="99.0" y="1355.0" type="curve" smooth="yes"/>
      <point x="99.0" y="1271.0"/>
      <point x="160.0" y="1100.0"/>
      <point x="165.0" y="889.0" type="curve"/>
    </contour>
    <contour>
      <point x="486.0" y="889.0" type="line"/>
      <point x="493.0" y="1102.0"/>
      <point x="553.0" y="1272.0"/>
      <point x="553.0" y="1362.0" type="curve" smooth="yes"/>
      <point x="553.0" y="1419.0"/>
      <point x="519.0" y="1461.0"/>
      <point x="459.0" y="1461.0" type="curve" smooth="yes"/>
      <point x="401.0" y="1461.0"/>
      <point x="366.0" y="1420.0"/>
      <point x="366.0" y="1355.0" type="curve" smooth="yes"/>
      <point x="366.0" y="1271.0"/>
      <point x="428.0" y="1100.0"/>
      <point x="433.0" y="889.0" type="curve"/>
    </contour>
  </outline>
</glyph>
<glyph name="numbersign" format="2">
  <advance width="1186.0"/>
  <unicode hex="0023"/>
  <outline>
    <contour>
      <point x="136.0" y="825.0" type="line"/>
      <point x="1093.0" y="825.0" type="line"/>
      <point x="1114.0" y="924.0" type="line"/>
      <point x="157.0" y="924.0" type="line"/>
    </contour>
    <contour>
      <point x="69.0" y="461.0" type="line"/>
      <point x="1026.0" y="461.0" type="line"/>
      <point x="1051.0" y="560.0" type="line"/>
      <point x="93.0" y="560.0" type="line"/>
    </contour>
    <contour>
      <point x="445.0" y="1225.0" type="line"/>
      <point x="278.0" y="162.0" type="line"/>
      <point x="380.0" y="162.0" type="line"/>
      <point x="547.0" y="1225.0" type="line"/>
    </contour>
    <contour>
      <point x="810.0" y="1225.0" type="line"/>
      <point x="642.0" y="162.0" type="line"/>
      <point x="743.0" y="162.0" type="line"/>
      <point x="910.0" y="1225.0" type="line"/>
    </contour>
  </outline>
</glyph>
<glyph name="dollar" format="2">
  <advance width="945.0"/>
  <unicode hex="0024"/>
  <outline>
    <contour>
      <point x="510.0" y="1373.0" type="curve" smooth="yes"/>
      <point x="278.0" y="1373.0"/>
      <point x="107.0" y="1214.0"/>
      <point x="107.0" y="1000.0" type="curve" smooth="yes"/>
      <point x="107.0" y="588.0"/>
      <point x="693.0" y="623.0"/>
      <point x="693.0" y="280.0" type="curve" smooth="yes"/>
      <point x="693.0" y="146.0"/>
      <point x="604.0" y="56.0"/>
      <point x="468.0" y="56.0" type="curve" smooth="yes"/>
      <point x="371.0" y="56.0"/>
      <point x="315.0" y="102.0"/>
      <point x="294.0" y="197.0" type="curve" smooth="yes"/>
      <point x="276.0" y="278.0"/>
      <point x="241.0" y="317.0"/>
      <point x="187.0" y="317.0" type="curve" smooth="yes"/>
      <point x="128.0" y="317.0"/>
      <point x="92.0" y="276.0"/>
      <point x="92.0" y="213.0" type="curve" smooth="yes"/>
      <point x="92.0" y="86.0"/>
      <point x="245.0" y="-16.0"/>
      <point x="433.0" y="-16.0" type="curve" smooth="yes"/>
      <point x="674.0" y="-16.0"/>
      <point x="855.0" y="155.0"/>
      <point x="855.0" y="384.0" type="curve" smooth="yes"/>
      <point x="855.0" y="797.0"/>
      <point x="292.0" y="753.0"/>
      <point x="292.0" y="1096.0" type="curve" smooth="yes"/>
      <point x="292.0" y="1218.0"/>
      <point x="370.0" y="1301.0"/>
      <point x="484.0" y="1301.0" type="curve" smooth="yes"/>
      <point x="561.0" y="1301.0"/>
      <point x="612.0" y="1253.0"/>
      <point x="634.0" y="1160.0" type="curve" smooth="yes"/>
      <point x="651.0" y="1077.0"/>
      <point x="685.0" y="1040.0"/>
      <point x="741.0" y="1040.0" type="curve" smooth="yes"/>
      <point x="799.0" y="1040.0"/>
      <point x="836.0" y="1081.0"/>
      <point x="836.0" y="1144.0" type="curve" smooth="yes"/>
      <point x="836.0" y="1271.0"/>
      <point x="692.0" y="1373.0"/>
    </contour>
    <contour>
      <point x="526.0" y="1563.0" type="line"/>
      <point x="452.0" y="1563.0" type="line"/>
      <point x="452.0" y="-180.0" type="line"/>
      <point x="526.0" y="-180.0" type="line"/>
    </contour>
  </outline>
</glyph>
<glyph name="percent" format="2">
  <advance width="1420.0"/>
  <unicode hex="0025"/>
  <outline>
    <contour>
      <point x="340.0" y="1371.0" type="curve" smooth="yes"/>
      <point x="185.0" y="1371.0"/>
      <point x="63.0" y="1206.0"/>
      <point x="63.0" y="993.0" type="curve" smooth="yes"/>
      <point x="63.0" y="785.0"/>
      <point x="183.0" y="623.0"/>
      <point x="340.0" y="623.0" type="curve" smooth="yes"/>
      <point x="496.0" y="623.0"/>
      <point x="618.0" y="787.0"/>
      <point x="618.0" y="993.0" type="curve" smooth="yes"/>
      <point x="618.0" y="1204.0"/>
      <point x="495.0" y="1371.0"/>
    </contour>
    <contour>
      <point x="340.0" y="1309.0" type="curve" smooth="yes"/>
      <point x="419.0" y="1309.0"/>
      <point x="451.0" y="1244.0"/>
      <point x="451.0" y="994.0" type="curve" smooth="yes"/>
      <point x="451.0" y="744.0"/>
      <point x="421.0" y="686.0"/>
      <point x="340.0" y="686.0" type="curve" smooth="yes"/>
      <point x="260.0" y="686.0"/>
      <point x="231.0" y="743.0"/>
      <point x="231.0" y="994.0" type="curve" smooth="yes"/>
      <point x="231.0" y="1244.0"/>
      <point x="260.0" y="1309.0"/>
    </contour>
    <contour>
      <point x="1081.0" y="730.0" type="curve" smooth="yes"/>
      <point x="926.0" y="730.0"/>
      <point x="804.0" y="565.0"/>
      <point x="804.0" y="352.0" type="curve" smooth="yes"/>
      <point x="804.0" y="144.0"/>
      <point x="924.0" y="-18.0"/>
      <point x="1081.0" y="-18.0" type="curve" smooth="yes"/>
      <point x="1237.0" y="-18.0"/>
      <point x="1359.0" y="146.0"/>
      <point x="1359.0" y="352.0" type="curve" smooth="yes"/>
      <point x="1359.0" y="563.0"/>
      <point x="1236.0" y="730.0"/>
    </contour>
    <contour>
      <point x="1081.0" y="669.0" type="curve" smooth="yes"/>
      <point x="1160.0" y="669.0"/>
      <point x="1192.0" y="604.0"/>
      <point x="1192.0" y="354.0" type="curve" smooth="yes"/>
      <point x="1192.0" y="104.0"/>
      <point x="1162.0" y="46.0"/>
      <point x="1081.0" y="46.0" type="curve" smooth="yes"/>
      <point x="1001.0" y="46.0"/>
      <point x="972.0" y="102.0"/>
      <point x="972.0" y="354.0" type="curve" smooth="yes"/>
      <point x="972.0" y="604.0"/>
      <point x="1001.0" y="669.0"/>
    </contour>
    <contour>
      <point x="361.0" y="0.0" type="line"/>
      <point x="1188.0" y="1355.0" type="line"/>
      <point x="1065.0" y="1355.0" type="line"/>
      <point x="239.0" y="0.0" type="line"/>
    </contour>
  </outline>
</glyph>
<glyph name="ampersand" format="2">
  <advance width="1429.0"/>
  <unicode hex="0026"/>
  <outline>
    <contour>
      <point x="482.0" y="766.0" type="line"/>
      <point x="373.0" y="903.0"/>
      <point x="356.0" y="1005.0"/>
      <point x="356.0" y="1068.0" type="curve" smooth="yes"/>
      <point x="356.0" y="1253.0"/>
      <point x="507.0" y="1373.0"/>
      <point x="678.0" y="1373.0" type="curve" smooth="yes"/>
      <point x="813.0" y="1373.0"/>
      <point x="931.0" y="1297.0"/>
      <point x="931.0" y="1165.0" type="curve" smooth="yes"/>
      <point x="931.0" y="1052.0"/>
      <point x="845.0" y="920.0"/>
      <point x="598.0" y="762.0" type="curve" smooth="yes"/>
      <point x="384.0" y="625.0"/>
      <point x="341.0" y="510.0"/>
      <point x="341.0" y="394.0" type="curve" smooth="yes"/>
      <point x="341.0" y="236.0"/>
      <point x="419.0" y="83.0"/>
      <point x="618.0" y="83.0" type="curve" smooth="yes"/>
      <point x="720.0" y="83.0"/>
      <point x="869.0" y="123.0"/>
      <point x="1000.0" y="320.0" type="curve" smooth="yes"/>
      <point x="1075.0" y="435.0"/>
      <point x="1125.0" y="570.0"/>
      <point x="1125.0" y="690.0" type="curve" smooth="yes"/>
      <point x="1125.0" y="750.0"/>
      <point x="1112.0" y="759.0"/>
      <point x="954.0" y="776.0" type="curve" smooth="yes"/>
      <point x="954.0" y="818.0" type="line"/>
      <point x="1403.0" y="818.0" type="line"/>
      <point x="1403.0" y="776.0" type="line" smooth="yes"/>
      <point x="1246.0" y="762.0"/>
      <point x="1228.0" y="744.0"/>
      <point x="1209.0" y="664.0" type="curve" smooth="yes"/>
      <point x="1186.0" y="567.0"/>
      <point x="1135.0" y="412.0"/>
      <point x="1045.0" y="275.0" type="curve" smooth="yes"/>
      <point x="885.0" y="25.0"/>
      <point x="690.0" y="-18.0"/>
      <point x="540.0" y="-18.0" type="curve" smooth="yes"/>
      <point x="280.0" y="-18.0"/>
      <point x="158.0" y="120.0"/>
      <point x="158.0" y="317.0" type="curve" smooth="yes"/>
      <point x="158.0" y="503.0"/>
      <point x="268.0" y="621.0"/>
      <point x="574.0" y="815.0" type="curve" smooth="yes"/>
      <point x="755.0" y="929.0"/>
      <point x="811.0" y="1010.0"/>
      <point x="811.0" y="1121.0" type="curve" smooth="yes"/>
      <point x="811.0" y="1244.0"/>
      <point x="741.0" y="1309.0"/>
      <point x="641.0" y="1309.0" type="curve" smooth="yes"/>
      <point x="553.0" y="1309.0"/>
      <point x="479.0" y="1258.0"/>
      <point x="479.0" y="1148.0" type="curve" smooth="yes"/>
      <point x="479.0" y="1081.0"/>
      <point x="505.0" y="1010.0"/>
      <point x="609.0" y="884.0" type="curve" smooth="yes"/>
      <point x="1251.0" y="90.0" type="line"/>
      <point x="1403.0" y="40.0" type="line"/>
      <point x="1403.0" y="0.0" type="line"/>
      <point x="1096.0" y="0.0" type="line"/>
    </contour>
  </outline>
</glyph>
<glyph name="quotesingle" format="2">
  <advance width="384.0"/>
  <unicode hex="0027"/>
  <outline>
    <contour>
      <point x="218.0" y="889.0" type="line"/>
      <point x="225.0" y="1102.0"/>
      <point x="285.0" y="1272.0"/>
      <point x="285.0" y="1362.0" type="curve" smooth="yes"/>
      <point x="285.0" y="1419.0"/>
      <point x="252.0" y="1461.0"/>
      <point x="192.0" y="1461.0" type="curve" smooth="yes"/>
      <point x="134.0" y="1461.0"/>
      <point x="99.0" y="1420.0"/>
      <point x="99.0" y="1355.0" type="curve" smooth="yes"/>
      <point x="99.0" y="1271.0"/>
      <point x="160.0" y="1100.0"/>
      <point x="165.0" y="889.0" type="curve"/>
    </contour>
  </outline>
</glyph>
<glyph name="parenleft" format="2">
  <advance width="537.0"/>
  <unicode hex="0028"/>
  <outline>
    <contour>
      <point x="442.0" y="-352.0" type="line"/>
      <point x="287.0" y="-194.0"/>
      <point x="83.0" y="88.0"/>
      <point x="83.0" y="537.0" type="curve" smooth="yes"/>
      <point x="83.0" y="942.0"/>
      <point x="301.0" y="1318.0"/>
      <point x="472.0" y="1461.0" type="curve"/>
      <point x="491.0" y="1443.0" type="line"/>
      <point x="401.0" y="1306.0"/>
      <point x="245.0" y="913.0"/>
      <point x="245.0" y="535.0" type="curve" smooth="yes"/>
      <point x="245.0" y="86.0"/>
      <point x="387.0" y="-194.0"/>
      <point x="470.0" y="-329.0" type="curve"/>
    </contour>
  </outline>
</glyph>
<glyph name="parenright" format="2">
  <advance width="537.0"/>
  <unicode hex="0029"/>
  <outline>
    <contour>
      <point x="67.0" y="-329.0" type="line"/>
      <point x="150.0" y="-194.0"/>
      <point x="292.0" y="86.0"/>
      <point x="292.0" y="535.0" type="curve" smooth="yes"/>
      <point x="292.0" y="913.0"/>
      <point x="136.0" y="1306.0"/>
      <point x="46.0" y="1443.0" type="curve"/>
      <point x="65.0" y="1461.0" type="line"/>
      <point x="236.0" y="1318.0"/>
      <point x="454.0" y="942.0"/>
      <point x="454.0" y="537.0" type="curve" smooth="yes"/>
      <point x="454.0" y="88.0"/>
      <point x="250.0" y="-194.0"/>
      <point x="95.0" y="-352.0" type="curve"/>
    </contour>
  </outline>
</glyph>
<glyph name="asterisk" format="2">
  <advance width="847.0"/>
  <unicode hex="002A"/>
  <outline>
    <contour>
      <point x="444.0" y="1077.0" type="line"/>
      <point x="452.0" y="1017.0" type="line" smooth="yes"/>
      <point x="463.0" y="938.0"/>
      <point x="491.0" y="876.0"/>
      <point x="491.0" y="831.0" type="curve" smooth="yes"/>
      <point x="491.0" y="790.0"/>
      <point x="468.0" y="760.0"/>
      <point x="426.0" y="760.0" type="curve" smooth="yes"/>
      <point x="384.0" y="760.0"/>
      <point x="359.0" y="790.0"/>
      <point x="359.0" y="838.0" type="curve" smooth="yes"/>
      <point x="359.0" y="889.0"/>
      <point x="391.0" y="950.0"/>
      <point x="400.0" y="1019.0" type="curve" smooth="yes"/>
      <point x="407.0" y="1077.0" type="line"/>
      <point x="357.0" y="1040.0" type="line" smooth="yes"/>
      <point x="285.0" y="986.0"/>
      <point x="253.0" y="905.0"/>
      <point x="183.0" y="905.0" type="curve" smooth="yes"/>
      <point x="139.0" y="905.0"/>
      <point x="111.0" y="933.0"/>
      <point x="111.0" y="973.0" type="curve" smooth="yes"/>
      <point x="111.0" y="1054.0"/>
      <point x="231.0" y="1040.0"/>
      <point x="334.0" y="1088.0" type="curve" smooth="yes"/>
      <point x="385.0" y="1111.0" type="line"/>
      <point x="331.0" y="1133.0" type="line" smooth="yes"/>
      <point x="229.0" y="1176.0"/>
      <point x="111.0" y="1162.0"/>
      <point x="111.0" y="1244.0" type="curve" smooth="yes"/>
      <point x="111.0" y="1283.0"/>
      <point x="136.0" y="1315.0"/>
      <point x="183.0" y="1315.0" type="curve" smooth="yes"/>
      <point x="253.0" y="1315.0"/>
      <point x="280.0" y="1236.0"/>
      <point x="359.0" y="1177.0" type="curve" smooth="yes"/>
      <point x="405.0" y="1144.0" type="line"/>
      <point x="398.0" y="1204.0" type="line" smooth="yes"/>
      <point x="389.0" y="1281.0"/>
      <point x="357.0" y="1324.0"/>
      <point x="357.0" y="1380.0" type="curve" smooth="yes"/>
      <point x="357.0" y="1436.0"/>
      <point x="387.0" y="1461.0"/>
      <point x="424.0" y="1461.0" type="curve" smooth="yes"/>
      <point x="459.0" y="1461.0"/>
      <point x="489.0" y="1436.0"/>
      <point x="489.0" y="1380.0" type="curve" smooth="yes"/>
      <point x="488.0" y="1322.0"/>
      <point x="456.0" y="1285.0"/>
      <point x="449.0" y="1200.0" type="curve" smooth="yes"/>
      <point x="444.0" y="1144.0" type="line"/>
      <point x="488.0" y="1179.0" type="line" smooth="yes"/>
      <point x="576.0" y="1250.0"/>
      <point x="597.0" y="1316.0"/>
      <point x="664.0" y="1316.0" type="curve" smooth="yes"/>
      <point x="713.0" y="1316.0"/>
      <point x="736.0" y="1283.0"/>
      <point x="736.0" y="1246.0" type="curve" smooth="yes"/>
      <point x="736.0" y="1163.0"/>
      <point x="618.0" y="1177.0"/>
      <point x="516.0" y="1135.0" type="curve" smooth="yes"/>
      <point x="461.0" y="1112.0" type="line"/>
      <point x="512.0" y="1089.0" type="line" smooth="yes"/>
      <point x="623.0" y="1040.0"/>
      <point x="736.0" y="1056.0"/>
      <point x="736.0" y="975.0" type="curve" smooth="yes"/>
      <point x="736.0" y="933.0"/>
      <point x="706.0" y="906.0"/>
      <point x="664.0" y="906.0" type="curve" smooth="yes"/>
      <point x="593.0" y="906.0"/>
      <point x="561.0" y="987.0"/>
      <point x="489.0" y="1042.0" type="curve" smooth="yes"/>
    </contour>
  </outline>
</glyph>
<glyph name="plus" format="2">
  <advance width="884.0"/>
  <unicode hex="002B"/>
  <outline>
    <contour>
      <point x="803.0" y="554.0" type="line"/>
      <point x="803.0" y="641.0" type="line"/>
      <point x="81.0" y="641.0" type="line"/>
      <point x="81.0" y="554.0" type="line"/>
    </contour>
    <contour>
      <point x="398.0" y="236.0" type="line"/>
      <point x="488.0" y="236.0" type="line"/>
      <point x="488.0" y="957.0" type="line"/>
      <point x="398.0" y="957.0" type="line"/>
    </contour>
  </outline>
</glyph>
<glyph name="comma" format="2">
  <advance width="463.0"/>
  <unicode hex="002C"/>
  <outline>
    <contour>
      <point x="167.0" y="-266.0" type="line"/>
      <point x="289.0" y="-178.0"/>
      <point x="352.0" y="-67.0"/>
      <point x="352.0" y="76.0" type="curve" smooth="yes"/>
      <point x="352.0" y="157.0"/>
      <point x="303.0" y="225.0"/>
      <point x="227.0" y="225.0" type="curve" smooth="yes"/>
      <point x="160.0" y="225.0"/>
      <point x="109.0" y="174.0"/>
      <point x="109.0" y="107.0" type="curve" smooth="yes"/>
      <point x="109.0" y="0.0"/>
      <point x="241.0" y="19.0"/>
      <point x="241.0" y="-63.0" type="curve" smooth="yes"/>
      <point x="241.0" y="-104.0"/>
      <point x="197.0" y="-165.0"/>
      <point x="132.0" y="-215.0" type="curve"/>
    </contour>
  </outline>
</glyph>
<glyph name="hyphen" format="2">
  <advance width="818.0"/>
  <unicode hex="002D"/>
  <outline>
    <contour>
      <point x="690.0" y="370.0" type="line"/>
      <point x="690.0" y="517.0" type="line"/>
      <point x="128.0" y="517.0" type="line"/>
      <point x="128.0" y="370.0" type="line"/>
    </contour>
  </outline>
</glyph>
<glyph name="period" format="2">
  <advance width="461.0"/>
  <unicode hex="002E"/>
  <outline>
    <contour>
      <point x="109.0" y="102.0" type="curve" smooth="yes"/>
      <point x="109.0" y="37.0"/>
      <point x="157.0" y="-18.0"/>
      <point x="229.0" y="-18.0" type="curve" smooth="yes"/>
      <point x="304.0" y="-18.0"/>
      <point x="352.0" y="37.0"/>
      <point x="352.0" y="102.0" type="curve" smooth="yes"/>
      <point x="352.0" y="172.0"/>
      <point x="304.0" y="225.0"/>
      <point x="229.0" y="225.0" type="curve" smooth="yes"/>
      <point x="157.0" y="225.0"/>
      <point x="109.0" y="172.0"/>
    </contour>
  </outline>
</glyph>
<glyph name="slash" format="2">
  <advance width="639.0"/>
  <unicode hex="002F"/>
  <outline>
    <contour>
      <point x="202.0" y="-297.0" type="line"/>
      <point x="556.0" y="1441.0" type="line"/>
      <point x="435.0" y="1441.0" type="line"/>
      <point x="83.0" y="-297.0" type="line"/>
    </contour>
  </outline>
</glyph>
<glyph name="zero" format="2">
  <advance width="1126.0"/>
  <unicode hex="0030"/>
  <outline>
    <contour>
      <point x="561.0" y="1373.0" type="curve" smooth="yes"/>
      <point x="304.0" y="1373.0"/>
      <point x="104.0" y="1065.0"/>
      <point x="104.0" y="671.0" type="curve" smooth="yes"/>
      <point x="104.0" y="280.0"/>
      <point x="303.0" y="-18.0"/>
      <point x="561.0" y="-18.0" type="curve" smooth="yes"/>
      <point x="822.0" y="-18.0"/>
      <point x="1023.0" y="282.0"/>
      <point x="1023.0" y="671.0" type="curve" smooth="yes"/>
      <point x="1023.0" y="1063.0"/>
      <point x="818.0" y="1373.0"/>
    </contour>
    <contour>
      <point x="561.0" y="1301.0" type="curve" smooth="yes"/>
      <point x="739.0" y="1301.0"/>
      <point x="808.0" y="1123.0"/>
      <point x="808.0" y="672.0" type="curve" smooth="yes"/>
      <point x="808.0" y="222.0"/>
      <point x="741.0" y="55.0"/>
      <point x="561.0" y="55.0" type="curve" smooth="yes"/>
      <point x="384.0" y="55.0"/>
      <point x="319.0" y="218.0"/>
      <point x="319.0" y="672.0" type="curve" smooth="yes"/>
      <point x="319.0" y="1126.0"/>
      <point x="385.0" y="1301.0"/>
    </contour>
  </outline>
</glyph>
<glyph name="one" format="2">
  <advance width="739.0"/>
  <unicode hex="0031"/>
  <outline>
    <contour>
      <point x="449.0" y="1373.0" type="line"/>
      <point x="324.0" y="1255.0"/>
      <point x="197.0" y="1183.0"/>
      <point x="76.0" y="1144.0" type="curve"/>
      <point x="76.0" y="1107.0" type="line"/>
      <point x="301.0" y="1107.0" type="line"/>
      <point x="301.0" y="74.0" type="line"/>
      <point x="69.0" y="39.0" type="line"/>
      <point x="69.0" y="0.0" type="line"/>
      <point x="713.0" y="0.0" type="line"/>
      <point x="713.0" y="39.0" type="line"/>
      <point x="486.0" y="74.0" type="line"/>
      <point x="486.0" y="1359.0" type="line"/>
    </contour>
  </outline>
</glyph>
<glyph name="two" format="2">
  <advance width="1019.0"/>
  <unicode hex="0032"/>
  <outline>
    <contour>
      <point x="750.0" y="0.0" type="line"/>
      <point x="773.0" y="-35.0" type="line"/>
      <point x="811.0" y="-35.0" type="line"/>
      <point x="945.0" y="350.0" type="line"/>
      <point x="906.0" y="364.0" type="line"/>
      <point x="866.0" y="290.0"/>
      <point x="801.0" y="197.0"/>
      <point x="766.0" y="158.0" type="curve"/>
      <point x="260.0" y="158.0" type="line"/>
      <point x="702.0" y="526.0"/>
      <point x="878.0" y="766.0"/>
      <point x="878.0" y="996.0" type="curve" smooth="yes"/>
      <point x="878.0" y="1211.0"/>
      <point x="727.0" y="1373.0"/>
      <point x="526.0" y="1373.0" type="curve" smooth="yes"/>
      <point x="348.0" y="1373.0"/>
      <point x="183.0" y="1244.0"/>
      <point x="113.0" y="1054.0" type="curve"/>
      <point x="150.0" y="1035.0" type="line"/>
      <point x="215.0" y="1156.0"/>
      <point x="334.0" y="1239.0"/>
      <point x="449.0" y="1239.0" type="curve" smooth="yes"/>
      <point x="583.0" y="1239.0"/>
      <point x="676.0" y="1125.0"/>
      <point x="676.0" y="959.0" type="curve" smooth="yes"/>
      <point x="676.0" y="736.0"/>
      <point x="505.0" y="489.0"/>
      <point x="40.0" y="40.0" type="curve"/>
      <point x="56.0" y="0.0" type="line"/>
    </contour>
  </outline>
</glyph>
<glyph name="three" format="2">
  <advance width="975.0"/>
  <unicode hex="0033"/>
  <outline>
    <contour>
      <point x="308.0" y="653.0" type="line"/>
      <point x="350.0" y="658.0"/>
      <point x="384.0" y="662.0"/>
      <point x="408.0" y="662.0" type="curve" smooth="yes"/>
      <point x="577.0" y="662.0"/>
      <point x="711.0" y="528.0"/>
      <point x="711.0" y="359.0" type="curve" smooth="yes"/>
      <point x="711.0" y="199.0"/>
      <point x="591.0" y="62.0"/>
      <point x="451.0" y="62.0" type="curve" smooth="yes"/>
      <point x="253.0" y="62.0"/>
      <point x="329.0" y="329.0"/>
      <point x="176.0" y="329.0" type="curve" smooth="yes"/>
      <point x="116.0" y="329.0"/>
      <point x="77.0" y="289.0"/>
      <point x="77.0" y="222.0" type="curve" smooth="yes"/>
      <point x="77.0" y="90.0"/>
      <point x="227.0" y="-18.0"/>
      <point x="412.0" y="-18.0" type="curve" smooth="yes"/>
      <point x="669.0" y="-18.0"/>
      <point x="875.0" y="190.0"/>
      <point x="875.0" y="449.0" type="curve" smooth="yes"/>
      <point x="875.0" y="649.0"/>
      <point x="753.0" y="787.0"/>
      <point x="568.0" y="803.0" type="curve"/>
      <point x="568.0" y="810.0" type="line"/>
      <point x="709.0" y="889.0"/>
      <point x="790.0" y="1001.0"/>
      <point x="790.0" y="1121.0" type="curve" smooth="yes"/>
      <point x="790.0" y="1267.0"/>
      <point x="671.0" y="1373.0"/>
      <point x="505.0" y="1373.0" type="curve" smooth="yes"/>
      <point x="317.0" y="1373.0"/>
      <point x="158.0" y="1241.0"/>
      <point x="120.0" y="1051.0" type="curve"/>
      <point x="162.0" y="1040.0" type="line"/>
      <point x="216.0" y="1167.0"/>
      <point x="320.0" y="1250.0"/>
      <point x="436.0" y="1250.0" type="curve" smooth="yes"/>
      <point x="526.0" y="1250.0"/>
      <point x="595.0" y="1174.0"/>
      <point x="595.0" y="1060.0" type="curve" smooth="yes"/>
      <point x="595.0" y="915.0"/>
      <point x="486.0" y="785.0"/>
      <point x="297.0" y="700.0" type="curve"/>
    </contour>
  </outline>
</glyph>
<glyph name="four" format="2">
  <advance width="1024.0"/>
  <unicode hex="0034"/>
  <outline>
    <contour>
      <point x="595.0" y="74.0" type="line"/>
      <point x="384.0" y="40.0" type="line"/>
      <point x="384.0" y="0.0" type="line"/>
      <point x="929.0" y="0.0" type="line"/>
      <point x="929.0" y="40.0" type="line"/>
      <point x="773.0" y="74.0" type="line"/>
      <point x="773.0" y="375.0" type="line"/>
      <point x="936.0" y="375.0" type="line"/>
      <point x="936.0" y="509.0" type="line"/>
      <point x="773.0" y="509.0" type="line"/>
      <point x="773.0" y="1355.0" type="line"/>
      <point x="727.0" y="1373.0" type="line"/>
      <point x="18.0" y="405.0" type="line"/>
      <point x="32.0" y="375.0" type="line"/>
      <point x="595.0" y="375.0" type="line"/>
    </contour>
    <contour>
      <point x="595.0" y="509.0" type="line"/>
      <point x="190.0" y="509.0" type="line"/>
      <point x="188.0" y="516.0" type="line"/>
      <point x="588.0" y="1067.0" type="line"/>
      <point x="595.0" y="1067.0" type="line"/>
    </contour>
  </outline>
</glyph>
<glyph name="five" format="2">
  <advance width="963.0"/>
  <unicode hex="0035"/>
  <outline>
    <contour>
      <point x="320.0" y="1174.0" type="line"/>
      <point x="773.0" y="1174.0" type="line"/>
      <point x="838.0" y="1390.0" type="line"/>
      <point x="801.0" y="1403.0" type="line"/>
      <point x="785.0" y="1373.0"/>
      <point x="771.0" y="1350.0"/>
      <point x="755.0" y="1332.0" type="curve"/>
      <point x="260.0" y="1332.0" type="line"/>
      <point x="169.0" y="669.0" type="line"/>
      <point x="195.0" y="665.0" type="line"/>
      <point x="252.0" y="713.0"/>
      <point x="310.0" y="734.0"/>
      <point x="385.0" y="734.0" type="curve" smooth="yes"/>
      <point x="574.0" y="734.0"/>
      <point x="704.0" y="595.0"/>
      <point x="704.0" y="398.0" type="curve" smooth="yes"/>
      <point x="704.0" y="209.0"/>
      <point x="583.0" y="62.0"/>
      <point x="428.0" y="62.0" type="curve" smooth="yes"/>
      <point x="231.0" y="62.0"/>
      <point x="306.0" y="306.0"/>
      <point x="155.0" y="306.0" type="curve" smooth="yes"/>
      <point x="97.0" y="306.0"/>
      <point x="62.0" y="269.0"/>
      <point x="62.0" y="204.0" type="curve" smooth="yes"/>
      <point x="62.0" y="77.0"/>
      <point x="199.0" y="-18.0"/>
      <point x="382.0" y="-18.0" type="curve" smooth="yes"/>
      <point x="655.0" y="-18.0"/>
      <point x="869.0" y="195.0"/>
      <point x="869.0" y="470.0" type="curve" smooth="yes"/>
      <point x="869.0" y="722.0"/>
      <point x="690.0" y="898.0"/>
      <point x="429.0" y="898.0" type="curve" smooth="yes"/>
      <point x="373.0" y="898.0"/>
      <point x="329.0" y="889.0"/>
      <point x="276.0" y="869.0" type="curve"/>
    </contour>
  </outline>
</glyph>
<glyph name="six" format="2">
  <advance width="1038.0"/>
  <unicode hex="0036"/>
  <outline>
    <contour>
      <point x="528.0" y="-18.0" type="curve" smooth="yes"/>
      <point x="790.0" y="-18.0"/>
      <point x="973.0" y="160.0"/>
      <point x="973.0" y="415.0" type="curve" smooth="yes"/>
      <point x="973.0" y="653.0"/>
      <point x="817.0" y="817.0"/>
      <point x="591.0" y="817.0" type="curve" smooth="yes"/>
      <point x="484.0" y="817.0"/>
      <point x="378.0" y="780.0"/>
      <point x="327.0" y="725.0" type="curve"/>
      <point x="356.0" y="933.0"/>
      <point x="565.0" y="1213.0"/>
      <point x="774.0" y="1324.0" type="curve"/>
      <point x="760.0" y="1368.0" type="line"/>
      <point x="357.0" y="1220.0"/>
      <point x="97.0" y="868.0"/>
      <point x="97.0" y="477.0" type="curve" smooth="yes"/>
      <point x="97.0" y="169.0"/>
      <point x="259.0" y="-18.0"/>
    </contour>
    <contour>
      <point x="539.0" y="62.0" type="curve" smooth="yes"/>
      <point x="394.0" y="62.0"/>
      <point x="303.0" y="201.0"/>
      <point x="303.0" y="424.0" type="curve" smooth="yes"/>
      <point x="303.0" y="489.0"/>
      <point x="312.0" y="568.0"/>
      <point x="324.0" y="621.0" type="curve"/>
      <point x="366.0" y="679.0"/>
      <point x="442.0" y="716.0"/>
      <point x="523.0" y="716.0" type="curve" smooth="yes"/>
      <point x="671.0" y="716.0"/>
      <point x="764.0" y="590.0"/>
      <point x="764.0" y="385.0" type="curve" smooth="yes"/>
      <point x="764.0" y="188.0"/>
      <point x="676.0" y="62.0"/>
    </contour>
  </outline>
</glyph>
<glyph name="seven" format="2">
  <advance width="868.0"/>
  <unicode hex="0037"/>
  <outline>
    <contour>
      <point x="218.0" y="1332.0" type="line"/>
      <point x="213.0" y="1346.0"/>
      <point x="211.0" y="1362.0"/>
      <point x="211.0" y="1382.0" type="curve"/>
      <point x="171.0" y="1394.0" type="line"/>
      <point x="39.0" y="1060.0" type="line"/>
      <point x="76.0" y="1040.0" type="line"/>
      <point x="118.0" y="1105.0"/>
      <point x="146.0" y="1139.0"/>
      <point x="188.0" y="1174.0" type="curve"/>
      <point x="706.0" y="1174.0" type="line"/>
      <point x="271.0" y="271.0" type="line" smooth="yes"/>
      <point x="229.0" y="183.0"/>
      <point x="201.0" y="120.0"/>
      <point x="201.0" y="72.0" type="curve" smooth="yes"/>
      <point x="201.0" y="16.0"/>
      <point x="232.0" y="-18.0"/>
      <point x="285.0" y="-18.0" type="curve" smooth="yes"/>
      <point x="338.0" y="-18.0"/>
      <point x="377.0" y="18.0"/>
      <point x="398.0" y="84.0" type="curve" smooth="yes"/>
      <point x="604.0" y="723.0"/>
      <point x="634.0" y="810.0"/>
      <point x="850.0" y="1311.0" type="curve"/>
      <point x="836.0" y="1332.0" type="line"/>
    </contour>
  </outline>
</glyph>
<glyph name="eight" format="2">
  <advance width="1047.0"/>
  <unicode hex="0038"/>
  <outline>
    <contour>
      <point x="660.0" y="774.0" type="curve"/>
      <point x="810.0" y="848.0"/>
      <point x="889.0" y="952.0"/>
      <point x="889.0" y="1077.0" type="curve" smooth="yes"/>
      <point x="889.0" y="1248.0"/>
      <point x="737.0" y="1373.0"/>
      <point x="528.0" y="1373.0" type="curve" smooth="yes"/>
      <point x="306.0" y="1373.0"/>
      <point x="144.0" y="1232.0"/>
      <point x="144.0" y="1037.0" type="curve" smooth="yes"/>
      <point x="144.0" y="908.0"/>
      <point x="216.0" y="804.0"/>
      <point x="375.0" y="700.0" type="curve"/>
      <point x="190.0" y="605.0"/>
      <point x="102.0" y="491.0"/>
      <point x="102.0" y="343.0" type="curve" smooth="yes"/>
      <point x="102.0" y="136.0"/>
      <point x="276.0" y="-18.0"/>
      <point x="512.0" y="-18.0" type="curve" smooth="yes"/>
      <point x="760.0" y="-18.0"/>
      <point x="950.0" y="155.0"/>
      <point x="950.0" y="378.0" type="curve" smooth="yes"/>
      <point x="950.0" y="532.0"/>
      <point x="861.0" y="653.0"/>
    </contour>
    <contour>
      <point x="577.0" y="810.0" type="curve"/>
      <point x="391.0" y="894.0"/>
      <point x="310.0" y="980.0"/>
      <point x="310.0" y="1096.0" type="curve" smooth="yes"/>
      <point x="310.0" y="1216.0"/>
      <point x="392.0" y="1294.0"/>
      <point x="517.0" y="1294.0" type="curve" smooth="yes"/>
      <point x="648.0" y="1294.0"/>
      <point x="734.0" y="1207.0"/>
      <point x="734.0" y="1077.0" type="curve" smooth="yes"/>
      <point x="734.0" y="975.0"/>
      <point x="683.0" y="887.0"/>
    </contour>
    <contour>
      <point x="449.0" y="662.0" type="curve"/>
      <point x="690.0" y="554.0"/>
      <point x="790.0" y="449.0"/>
      <point x="790.0" y="301.0" type="curve" smooth="yes"/>
      <point x="790.0" y="155.0"/>
      <point x="692.0" y="62.0"/>
      <point x="539.0" y="62.0" type="curve" smooth="yes"/>
      <point x="377.0" y="62.0"/>
      <point x="278.0" y="169.0"/>
      <point x="278.0" y="345.0" type="curve" smooth="yes"/>
      <point x="278.0" y="480.0"/>
      <point x="338.0" y="593.0"/>
    </contour>
  </outline>
</glyph>
<glyph name="nine" format="2">
  <advance width="1040.0"/>
  <unicode hex="0039"/>
  <outline>
    <contour>
      <point x="510.0" y="1368.0" type="curve"/>
      <point x="248.0" y="1368.0"/>
      <point x="65.0" y="1190.0"/>
      <point x="65.0" y="935.0" type="curve" smooth="yes"/>
      <point x="65.0" y="697.0"/>
      <point x="222.0" y="533.0"/>
      <point x="447.0" y="533.0" type="curve" smooth="yes"/>
      <point x="554.0" y="533.0"/>
      <point x="660.0" y="570.0"/>
      <point x="711.0" y="625.0" type="curve"/>
      <point x="683.0" y="417.0"/>
      <point x="473.0" y="137.0"/>
      <point x="264.0" y="26.0" type="curve"/>
      <point x="278.0" y="-18.0" type="line"/>
      <point x="681.0" y="130.0"/>
      <point x="942.0" y="482.0"/>
      <point x="942.0" y="873.0" type="curve" smooth="yes"/>
      <point x="942.0" y="1181.0"/>
      <point x="780.0" y="1368.0"/>
    </contour>
    <contour>
      <point x="500.0" y="1288.0" type="curve"/>
      <point x="644.0" y="1288.0"/>
      <point x="736.0" y="1149.0"/>
      <point x="736.0" y="926.0" type="curve" smooth="yes"/>
      <point x="736.0" y="861.0"/>
      <point x="727.0" y="781.0"/>
      <point x="715.0" y="729.0" type="curve"/>
      <point x="672.0" y="671.0"/>
      <point x="597.0" y="634.0"/>
      <point x="516.0" y="634.0" type="curve" smooth="yes"/>
      <point x="368.0" y="634.0"/>
      <point x="275.0" y="760.0"/>
      <point x="275.0" y="964.0" type="curve" smooth="yes"/>
      <point x="275.0" y="1162.0"/>
      <point x="363.0" y="1288.0"/>
    </contour>
  </outline>
</glyph>
<glyph name="colon" format="2">
  <advance width="500.0"/>
  <unicode hex="003A"/>
  <outline>
    <contour>
      <point x="128.0" y="706.0" type="curve" smooth="yes"/>
      <point x="128.0" y="641.0"/>
      <point x="176.0" y="586.0"/>
      <point x="248.0" y="586.0" type="curve" smooth="yes"/>
      <point x="324.0" y="586.0"/>
      <point x="371.0" y="641.0"/>
      <point x="371.0" y="706.0" type="curve" smooth="yes"/>
      <point x="371.0" y="776.0"/>
      <point x="324.0" y="829.0"/>
      <point x="248.0" y="829.0" type="curve" smooth="yes"/>
      <point x="176.0" y="829.0"/>
      <point x="128.0" y="776.0"/>
    </contour>
    <contour>
      <point x="128.0" y="102.0" type="curve" smooth="yes"/>
      <point x="128.0" y="37.0"/>
      <point x="176.0" y="-18.0"/>
      <point x="248.0" y="-18.0" type="curve" smooth="yes"/>
      <point x="324.0" y="-18.0"/>
      <point x="371.0" y="37.0"/>
      <point x="371.0" y="102.0" type="curve" smooth="yes"/>
      <point x="371.0" y="172.0"/>
      <point x="324.0" y="225.0"/>
      <point x="248.0" y="225.0" type="curve" smooth="yes"/>
      <point x="176.0" y="225.0"/>
      <point x="128.0" y="172.0"/>
    </contour>
  </outline>
</glyph>
<glyph name="semicolon" format="2">
  <advance width="503.0"/>
  <unicode hex="003B"/>
  <outline>
    <contour>
      <point x="130.0" y="706.0" type="curve" smooth="yes"/>
      <point x="130.0" y="641.0"/>
      <point x="178.0" y="586.0"/>
      <point x="250.0" y="586.0" type="curve" smooth="yes"/>
      <point x="326.0" y="586.0"/>
      <point x="373.0" y="641.0"/>
      <point x="373.0" y="706.0" type="curve" smooth="yes"/>
      <point x="373.0" y="776.0"/>
      <point x="326.0" y="829.0"/>
      <point x="250.0" y="829.0" type="curve" smooth="yes"/>
      <point x="178.0" y="829.0"/>
      <point x="130.0" y="776.0"/>
    </contour>
    <contour>
      <point x="188.0" y="-266.0" type="line"/>
      <point x="310.0" y="-178.0"/>
      <point x="375.0" y="-67.0"/>
      <point x="375.0" y="53.0" type="curve" smooth="yes"/>
      <point x="375.0" y="157.0"/>
      <point x="324.0" y="225.0"/>
      <point x="248.0" y="225.0" type="curve" smooth="yes"/>
      <point x="181.0" y="225.0"/>
      <point x="128.0" y="174.0"/>
      <point x="128.0" y="107.0" type="curve" smooth="yes"/>
      <point x="128.0" y="0.0"/>
      <point x="262.0" y="7.0"/>
      <point x="262.0" y="-63.0" type="curve" smooth="yes"/>
      <point x="262.0" y="-104.0"/>
      <point x="218.0" y="-165.0"/>
      <point x="153.0" y="-215.0" type="curve"/>
    </contour>
  </outline>
</glyph>
<glyph name="less" format="2">
  <advance width="913.0"/>
  <unicode hex="003C"/>
  <outline>
    <contour>
      <point x="787.0" y="204.0" type="line"/>
      <point x="787.0" y="319.0" type="line"/>
      <point x="194.0" y="593.0" type="line"/>
      <point x="194.0" y="600.0" type="line"/>
      <point x="787.0" y="871.0" type="line"/>
      <point x="787.0" y="979.0" type="line"/>
      <point x="67.0" y="635.0" type="line"/>
      <point x="67.0" y="546.0" type="line"/>
    </contour>
  </outline>
</glyph>
<glyph name="equal" format="2">
  <advance width="996.0"/>
  <unicode hex="003D"/>
  <outline>
    <contour>
      <point x="859.0" y="706.0" type="line"/>
      <point x="859.0" y="783.0" type="line"/>
      <point x="137.0" y="783.0" type="line"/>
      <point x="137.0" y="706.0" type="line"/>
    </contour>
    <contour>
      <point x="859.0" y="422.0" type="line"/>
      <point x="859.0" y="500.0" type="line"/>
      <point x="137.0" y="500.0" type="line"/>
      <point x="137.0" y="422.0" type="line"/>
    </contour>
  </outline>
</glyph>
<glyph name="greater" format="2">
  <advance width="915.0"/>
  <unicode hex="003E"/>
  <outline>
    <contour>
      <point x="847.0" y="554.0" type="line"/>
      <point x="847.0" y="644.0" type="line"/>
      <point x="127.0" y="987.0" type="line"/>
      <point x="127.0" y="871.0" type="line"/>
      <point x="720.0" y="600.0" type="line"/>
      <point x="720.0" y="593.0" type="line"/>
      <point x="127.0" y="319.0" type="line"/>
      <point x="127.0" y="213.0" type="line"/>
    </contour>
  </outline>
</glyph>
<glyph name="question" format="2">
  <advance width="723.0"/>
  <unicode hex="003F"/>
  <outline>
    <contour>
      <point x="172.0" y="405.0" type="line"/>
      <point x="172.0" y="778.0" type="line"/>
      <point x="241.0" y="778.0" type="line" smooth="yes"/>
      <point x="468.0" y="778.0"/>
      <point x="584.0" y="834.0"/>
      <point x="584.0" y="947.0" type="curve" smooth="yes"/>
      <point x="584.0" y="1037.0"/>
      <point x="509.0" y="1111.0"/>
      <point x="350.0" y="1172.0" type="curve" smooth="yes"/>
      <point x="169.0" y="1241.0"/>
      <point x="139.0" y="1260.0"/>
      <point x="139.0" y="1311.0" type="curve" smooth="yes"/>
      <point x="139.0" y="1355.0"/>
      <point x="167.0" y="1373.0"/>
      <point x="232.0" y="1373.0" type="curve" smooth="yes"/>
      <point x="454.0" y="1373.0"/>
      <point x="644.0" y="1170.0"/>
      <point x="644.0" y="931.0" type="curve" smooth="yes"/>
      <point x="644.0" y="737.0"/>
      <point x="517.0" y="628.0"/>
      <point x="289.0" y="621.0" type="curve" smooth="yes"/>
      <point x="236.0" y="620.0" type="line"/>
      <point x="236.0" y="405.0" type="line"/>
    </contour>
    <contour>
      <point x="88.0" y="97.0" type="curve" smooth="yes"/>
      <point x="88.0" y="28.0"/>
      <point x="134.0" y="-18.0"/>
      <point x="201.0" y="-18.0" type="curve" smooth="yes"/>
      <point x="269.0" y="-18.0"/>
      <point x="317.0" y="30.0"/>
      <point x="317.0" y="97.0" type="curve" smooth="yes"/>
      <point x="317.0" y="164.0"/>
      <point x="269.0" y="211.0"/>
      <point x="202.0" y="211.0" type="curve" smooth="yes"/>
      <point x="134.0" y="211.0"/>
      <point x="88.0" y="164.0"/>
    </contour>
  </outline>
</glyph>
<glyph name="at" format="2">
  <advance width="1540.0"/>
  <unicode hex="0040"/>
  <outline>
    <contour>
      <point x="736.0" y="-252.0" type="curve" smooth="yes"/>
      <point x="410.0" y="-252.0"/>
      <point x="100.0" y="-79.0"/>
      <point x="100.0" y="357.0" type="curve" smooth="yes"/>
      <point x="100.0" y="818.0"/>
      <point x="445.0" y="1126.0"/>
      <point x="847.0" y="1126.0" type="curve" smooth="yes"/>
      <point x="1206.0" y="1126.0"/>
      <point x="1427.0" y="880.0"/>
      <point x="1427.0" y="577.0" type="curve" smooth="yes"/>
      <point x="1427.0" y="301.0"/>
      <point x="1244.0" y="55.0"/>
      <point x="1021.0" y="55.0" type="curve" smooth="yes"/>
      <point x="905.0" y="55.0"/>
      <point x="840.0" y="120.0"/>
      <point x="840.0" y="199.0" type="curve" smooth="yes"/>
      <point x="840.0" y="220.0"/>
      <point x="840.0" y="232.0"/>
      <point x="848.0" y="241.0" type="curve" smooth="yes"/>
      <point x="841.0" y="243.0" type="line" smooth="yes"/>
      <point x="752.0" y="123.0"/>
      <point x="656.0" y="77.0"/>
      <point x="570.0" y="77.0" type="curve" smooth="yes"/>
      <point x="449.0" y="77.0"/>
      <point x="391.0" y="165.0"/>
      <point x="391.0" y="287.0" type="curve" smooth="yes"/>
      <point x="391.0" y="526.0"/>
      <point x="616.0" y="810.0"/>
      <point x="831.0" y="810.0" type="curve" smooth="yes"/>
      <point x="901.0" y="810.0"/>
      <point x="943.0" y="780.0"/>
      <point x="968.0" y="741.0" type="curve" smooth="yes"/>
      <point x="975.0" y="741.0" type="line"/>
      <point x="994.0" y="810.0" type="line"/>
      <point x="1135.0" y="810.0" type="line"/>
      <point x="993.0" y="299.0" type="line" smooth="yes"/>
      <point x="984.0" y="271.0"/>
      <point x="977.0" y="238.0"/>
      <point x="977.0" y="211.0" type="curve" smooth="yes"/>
      <point x="977.0" y="157.0"/>
      <point x="1007.0" y="143.0"/>
      <point x="1049.0" y="143.0" type="curve" smooth="yes"/>
      <point x="1200.0" y="143.0"/>
      <point x="1339.0" y="326.0"/>
      <point x="1339.0" y="572.0" type="curve" smooth="yes"/>
      <point x="1339.0" y="901.0"/>
      <point x="1089.0" y="1047.0"/>
      <point x="829.0" y="1047.0" type="curve" smooth="yes"/>
      <point x="435.0" y="1047.0"/>
      <point x="199.0" y="716.0"/>
      <point x="199.0" y="356.0" type="curve" smooth="yes"/>
      <point x="199.0" y="111.0"/>
      <point x="306.0" y="-183.0"/>
      <point x="780.0" y="-183.0" type="curve" smooth="yes"/>
      <point x="926.0" y="-183.0"/>
      <point x="1021.0" y="-155.0"/>
      <point x="1091.0" y="-113.0" type="curve" smooth="yes"/>
      <point x="1111.0" y="-164.0" type="line" smooth="yes"/>
      <point x="994.0" y="-222.0"/>
      <point x="869.0" y="-252.0"/>
    </contour>
    <contour>
      <point x="618.0" y="174.0" type="curve" smooth="yes"/>
      <point x="692.0" y="174.0"/>
      <point x="773.0" y="243.0"/>
      <point x="834.0" y="352.0" type="curve" smooth="yes"/>
      <point x="875.0" y="422.0"/>
      <point x="917.0" y="528.0"/>
      <point x="917.0" y="630.0" type="curve" smooth="yes"/>
      <point x="917.0" y="690.0"/>
      <point x="898.0" y="734.0"/>
      <point x="840.0" y="734.0" type="curve" smooth="yes"/>
      <point x="706.0" y="734.0"/>
      <point x="544.0" y="509.0"/>
      <point x="544.0" y="290.0" type="curve" smooth="yes"/>
      <point x="544.0" y="208.0"/>
      <point x="567.0" y="174.0"/>
    </contour>
  </outline>
</glyph>
<glyph name="A" format="2">
  <advance width="1309.0"/>
  <unicode hex="0041"/>
  <anchor x="1052.0" y="0.0" name="bottom"/>
  <anchor x="642.0" y="1461.0" name="topcap"/>
  <outline>
    <contour>
      <point x="600.0" y="1081.0" type="line"/>
      <point x="928.0" y="176.0" type="line" smooth="yes"/>
      <point x="943.0" y="134.0"/>
      <point x="947.0" y="114.0"/>
      <point x="947.0" y="99.0" type="curve" smooth="yes"/>
      <point x="947.0" y="62.0"/>
      <point x="928.0" y="48.0"/>
      <point x="766.0" y="40.0" type="curve"/>
      <point x="766.0" y="0.0" type="line"/>
      <point x="1325.0" y="0.0" type="line"/>
      <point x="1325.0" y="40.0" type="line"/>
      <point x="1202.0" y="49.0"/>
      <point x="1176.0" y="67.0"/>
      <point x="1146.0" y="148.0" type="curve" smooth="yes"/>
      <point x="681.0" y="1390.0" type="line"/>
      <point x="509.0" y="1295.0" type="line"/>
      <point x="554.0" y="1192.0" type="line"/>
      <point x="213.0" y="236.0" type="line" smooth="yes"/>
      <point x="169.0" y="113.0"/>
      <point x="144.0" y="69.0"/>
      <point x="-42.0" y="40.0" type="curve"/>
      <point x="-42.0" y="0.0" type="line"/>
      <point x="452.0" y="0.0" type="line"/>
      <point x="452.0" y="40.0" type="line"/>
      <point x="334.0" y="58.0"/>
      <point x="271.0" y="86.0"/>
      <point x="271.0" y="150.0" type="curve" smooth="yes"/>
      <point x="271.0" y="171.0"/>
      <point x="278.0" y="197.0"/>
      <point x="290.0" y="232.0" type="curve" smooth="yes"/>
      <point x="593.0" y="1081.0" type="line"/>
    </contour>
    <contour>
      <point x="363.0" y="498.0" type="line"/>
      <point x="838.0" y="498.0" type="line"/>
      <point x="838.0" y="568.0" type="line"/>
      <point x="363.0" y="568.0" type="line"/>
    </contour>
  </outline>
</glyph>
<glyph name="B" format="2">
  <advance width="1230.0"/>
  <unicode hex="0042"/>
  <outline>
    <contour>
      <point x="86.0" y="1355.0" type="line"/>
      <point x="86.0" y="1315.0" type="line"/>
      <point x="236.0" y="1281.0" type="line"/>
      <point x="236.0" y="74.0" type="line"/>
      <point x="86.0" y="40.0" type="line"/>
      <point x="86.0" y="0.0" type="line"/>
      <point x="637.0" y="0.0" type="line" smooth="yes"/>
      <point x="829.0" y="0.0"/>
      <point x="936.0" y="26.0"/>
      <point x="1017.0" y="92.0" type="curve" smooth="yes"/>
      <point x="1091.0" y="153.0"/>
      <point x="1135.0" y="252.0"/>
      <point x="1135.0" y="359.0" type="curve" smooth="yes"/>
      <point x="1135.0" y="551.0"/>
      <point x="996.0" y="695.0"/>
      <point x="785.0" y="718.0" type="curve"/>
      <point x="785.0" y="725.0" type="line"/>
      <point x="972.0" y="764.0"/>
      <point x="1075.0" y="873.0"/>
      <point x="1075.0" y="1026.0" type="curve" smooth="yes"/>
      <point x="1075.0" y="1130.0"/>
      <point x="1026.0" y="1225.0"/>
      <point x="943.0" y="1283.0" type="curve" smooth="yes"/>
      <point x="871.0" y="1332.0"/>
      <point x="769.0" y="1355.0"/>
      <point x="607.0" y="1355.0" type="curve" smooth="yes"/>
    </contour>
    <contour>
      <point x="421.0" y="1285.0" type="line"/>
      <point x="572.0" y="1285.0" type="line" smooth="yes"/>
      <point x="700.0" y="1285.0"/>
      <point x="762.0" y="1267.0"/>
      <point x="813.0" y="1214.0" type="curve" smooth="yes"/>
      <point x="859.0" y="1167.0"/>
      <point x="878.0" y="1114.0"/>
      <point x="878.0" y="1031.0" type="curve" smooth="yes"/>
      <point x="878.0" y="871.0"/>
      <point x="806.0" y="774.0"/>
      <point x="678.0" y="760.0" type="curve" smooth="yes"/>
      <point x="639.0" y="757.0"/>
      <point x="598.0" y="755.0"/>
      <point x="530.0" y="755.0" type="curve" smooth="yes"/>
      <point x="421.0" y="755.0" type="line"/>
    </contour>
    <contour>
      <point x="570.0" y="685.0" type="line"/>
      <point x="817.0" y="685.0"/>
      <point x="931.0" y="586.0"/>
      <point x="931.0" y="375.0" type="curve" smooth="yes"/>
      <point x="931.0" y="164.0"/>
      <point x="818.0" y="67.0"/>
      <point x="576.0" y="67.0" type="curve" smooth="yes"/>
      <point x="456.0" y="67.0"/>
      <point x="421.0" y="90.0"/>
      <point x="421.0" y="172.0" type="curve" smooth="yes"/>
      <point x="421.0" y="685.0" type="line"/>
    </contour>
  </outline>
</glyph>
<glyph name="C" format="2">
  <advance width="1362.0"/>
  <unicode hex="0043"/>
  <anchor x="762.0" y="0.0" name="bottom"/>
  <anchor x="762.0" y="1461.0" name="topcap"/>
  <outline>
    <contour>
      <point x="99.0" y="669.0" type="curve" smooth="yes"/>
      <point x="99.0" y="262.0"/>
      <point x="357.0" y="-18.0"/>
      <point x="736.0" y="-18.0" type="curve" smooth="yes"/>
      <point x="880.0" y="-18.0"/>
      <point x="998.0" y="23.0"/>
      <point x="1123.0" y="116.0" type="curve"/>
      <point x="1204.0" y="0.0" type="line"/>
      <point x="1246.0" y="0.0" type="line"/>
      <point x="1246.0" y="461.0" type="line"/>
      <point x="1199.0" y="461.0" type="line"/>
      <point x="1181.0" y="368.0"/>
      <point x="1149.0" y="289.0"/>
      <point x="1105.0" y="227.0" type="curve" smooth="yes"/>
      <point x="1030.0" y="118.0"/>
      <point x="915.0" y="62.0"/>
      <point x="774.0" y="62.0" type="curve" smooth="yes"/>
      <point x="486.0" y="62.0"/>
      <point x="320.0" y="289.0"/>
      <point x="320.0" y="681.0" type="curve" smooth="yes"/>
      <point x="320.0" y="1074.0"/>
      <point x="482.0" y="1295.0"/>
      <point x="773.0" y="1295.0" type="curve" smooth="yes"/>
      <point x="929.0" y="1295.0"/>
      <point x="1038.0" y="1243.0"/>
      <point x="1121.0" y="1109.0" type="curve" smooth="yes"/>
      <point x="1148.0" y="1065.0"/>
      <point x="1172.0" y="1014.0"/>
      <point x="1193.0" y="950.0" type="curve"/>
      <point x="1246.0" y="950.0" type="line"/>
      <point x="1246.0" y="1355.0" type="line"/>
      <point x="1214.0" y="1355.0" type="line"/>
      <point x="1128.0" y="1265.0" type="line"/>
      <point x="1121.0" y="1265.0" type="line"/>
      <point x="1016.0" y="1334.0"/>
      <point x="880.0" y="1373.0"/>
      <point x="743.0" y="1373.0" type="curve" smooth="yes"/>
      <point x="366.0" y="1373.0"/>
      <point x="99.0" y="1081.0"/>
    </contour>
  </outline>
</glyph>
<glyph name="D" format="2">
  <advance width="1426.0"/>
  <unicode hex="0044"/>
  <anchor x="722.0" y="0.0" name="bottom"/>
  <anchor x="722.0" y="1461.0" name="topcap"/>
  <outline>
    <contour>
      <point x="676.0" y="0.0" type="line"/>
      <point x="852.0" y="0.0"/>
      <point x="963.0" y="30.0"/>
      <point x="1065.0" y="104.0" type="curve" smooth="yes"/>
      <point x="1228.0" y="224.0"/>
      <point x="1325.0" y="435.0"/>
      <point x="1325.0" y="674.0" type="curve" smooth="yes"/>
      <point x="1325.0" y="905.0"/>
      <point x="1236.0" y="1105.0"/>
      <point x="1077.0" y="1227.0" type="curve" smooth="yes"/>
      <point x="954.0" y="1320.0"/>
      <point x="804.0" y="1355.0"/>
      <point x="524.0" y="1355.0" type="curve" smooth="yes"/>
      <point x="86.0" y="1355.0" type="line"/>
      <point x="86.0" y="1315.0" type="line"/>
      <point x="236.0" y="1281.0" type="line"/>
      <point x="236.0" y="74.0" type="line"/>
      <point x="86.0" y="40.0" type="line"/>
      <point x="86.0" y="0.0" type="line"/>
    </contour>
    <contour>
      <point x="604.0" y="67.0" type="curve" smooth="yes"/>
      <point x="465.0" y="67.0"/>
      <point x="421.0" y="92.0"/>
      <point x="421.0" y="172.0" type="curve" smooth="yes"/>
      <point x="421.0" y="1285.0" type="line"/>
      <point x="560.0" y="1285.0" type="line" smooth="yes"/>
      <point x="757.0" y="1285.0"/>
      <point x="866.0" y="1250.0"/>
      <point x="956.0" y="1156.0" type="curve" smooth="yes"/>
      <point x="1054.0" y="1052.0"/>
      <point x="1105.0" y="894.0"/>
      <point x="1105.0" y="695.0" type="curve" smooth="yes"/>
      <point x="1105.0" y="498.0"/>
      <point x="1054.0" y="326.0"/>
      <point x="961.0" y="209.0" type="curve" smooth="yes"/>
      <point x="876.0" y="107.0"/>
      <point x="776.0" y="67.0"/>
    </contour>
  </outline>
</glyph>
<glyph name="E" format="2">
  <advance width="1218.0"/>
  <unicode hex="0045"/>
  <anchor x="630.0" y="0.0" name="bottom"/>
  <anchor x="627.0" y="1461.0" name="topcap"/>
  <outline>
    <contour>
      <point x="396.0" y="679.0" type="line"/>
      <point x="736.0" y="679.0" type="line"/>
      <point x="769.0" y="609.0"/>
      <point x="790.0" y="539.0"/>
      <point x="801.0" y="468.0" type="curve"/>
      <point x="843.0" y="468.0" type="line"/>
      <point x="843.0" y="961.0" type="line"/>
      <point x="801.0" y="961.0" type="line"/>
      <point x="788.0" y="891.0"/>
      <point x="769.0" y="820.0"/>
      <point x="736.0" y="750.0" type="curve"/>
      <point x="396.0" y="750.0" type="line"/>
    </contour>
    <contour>
      <point x="926.0" y="1285.0" type="line"/>
      <point x="984.0" y="1184.0"/>
      <point x="1024.0" y="1068.0"/>
      <point x="1052.0" y="968.0" type="curve"/>
      <point x="1095.0" y="968.0" type="line"/>
      <point x="1065.0" y="1355.0" type="line"/>
      <point x="86.0" y="1355.0" type="line"/>
      <point x="86.0" y="1315.0" type="line"/>
      <point x="236.0" y="1281.0" type="line"/>
      <point x="236.0" y="74.0" type="line"/>
      <point x="86.0" y="40.0" type="line"/>
      <point x="86.0" y="0.0" type="line"/>
      <point x="1058.0" y="0.0" type="line"/>
      <point x="1123.0" y="412.0" type="line"/>
      <point x="1065.0" y="412.0" type="line"/>
      <point x="1026.0" y="297.0"/>
      <point x="987.0" y="185.0"/>
      <point x="917.0" y="70.0" type="curve"/>
      <point x="421.0" y="70.0" type="line"/>
      <point x="421.0" y="1285.0" type="line"/>
    </contour>
  </outline>
</glyph>
<glyph name="F" format="2">
  <advance width="1144.0"/>
  <unicode hex="0046"/>
  <outline>
    <contour>
      <point x="926.0" y="1285.0" type="line"/>
      <point x="984.0" y="1184.0"/>
      <point x="1024.0" y="1068.0"/>
      <point x="1052.0" y="968.0" type="curve"/>
      <point x="1095.0" y="968.0" type="line"/>
      <point x="1065.0" y="1355.0" type="line"/>
      <point x="86.0" y="1355.0" type="line"/>
      <point x="86.0" y="1315.0" type="line"/>
      <point x="236.0" y="1281.0" type="line"/>
      <point x="236.0" y="74.0" type="line"/>
      <point x="86.0" y="40.0" type="line"/>
      <point x="86.0" y="0.0" type="line"/>
      <point x="621.0" y="0.0" type="line"/>
      <point x="621.0" y="40.0" type="line"/>
      <point x="421.0" y="74.0" type="line"/>
      <point x="421.0" y="1285.0" type="line"/>
    </contour>
    <contour>
      <point x="396.0" y="679.0" type="line"/>
      <point x="736.0" y="679.0" type="line"/>
      <point x="769.0" y="609.0"/>
      <point x="790.0" y="539.0"/>
      <point x="801.0" y="468.0" type="curve"/>
      <point x="843.0" y="468.0" type="line"/>
      <point x="843.0" y="961.0" type="line"/>
      <point x="801.0" y="961.0" type="line"/>
      <point x="788.0" y="891.0"/>
      <point x="769.0" y="820.0"/>
      <point x="736.0" y="750.0" type="curve"/>
      <point x="396.0" y="750.0" type="line"/>
    </contour>
  </outline>
</glyph>
<glyph name="G" format="2">
  <advance width="1422.0"/>
  <unicode hex="0047"/>
  <anchor x="752.0" y="0.0" name="bottom"/>
  <anchor x="769.0" y="1461.0" name="topcap"/>
  <outline>
    <contour>
      <point x="1216.0" y="605.0" type="line"/>
      <point x="1373.0" y="639.0" type="line"/>
      <point x="1373.0" y="679.0" type="line"/>
      <point x="873.0" y="679.0" type="line"/>
      <point x="873.0" y="639.0" type="line"/>
      <point x="1031.0" y="605.0" type="line"/>
      <point x="1031.0" y="262.0" type="line" smooth="yes"/>
      <point x="1031.0" y="202.0"/>
      <point x="1028.0" y="188.0"/>
      <point x="1017.0" y="171.0" type="curve" smooth="yes"/>
      <point x="973.0" y="99.0"/>
      <point x="880.0" y="63.0"/>
      <point x="766.0" y="63.0" type="curve" smooth="yes"/>
      <point x="468.0" y="63.0"/>
      <point x="322.0" y="262.0"/>
      <point x="322.0" y="662.0" type="curve" smooth="yes"/>
      <point x="322.0" y="1077.0"/>
      <point x="479.0" y="1294.0"/>
      <point x="781.0" y="1294.0" type="curve" smooth="yes"/>
      <point x="977.0" y="1294.0"/>
      <point x="1082.0" y="1206.0"/>
      <point x="1195.0" y="950.0" type="curve"/>
      <point x="1236.0" y="950.0" type="line"/>
      <point x="1236.0" y="1355.0" type="line"/>
      <point x="1197.0" y="1355.0" type="line"/>
      <point x="1102.0" y="1265.0" type="line"/>
      <point x="1095.0" y="1265.0" type="line"/>
      <point x="1017.0" y="1334.0"/>
      <point x="894.0" y="1373.0"/>
      <point x="757.0" y="1373.0" type="curve" smooth="yes"/>
      <point x="377.0" y="1373.0"/>
      <point x="97.0" y="1070.0"/>
      <point x="97.0" y="662.0" type="curve" smooth="yes"/>
      <point x="97.0" y="264.0"/>
      <point x="361.0" y="-18.0"/>
      <point x="736.0" y="-18.0" type="curve" smooth="yes"/>
      <point x="917.0" y="-18.0"/>
      <point x="1119.0" y="49.0"/>
      <point x="1216.0" y="143.0" type="curve"/>
    </contour>
  </outline>
</glyph>
<glyph name="H" format="2">
  <advance width="1508.0"/>
  <unicode hex="0048"/>
  <anchor x="760.0" y="0.0" name="bottom"/>
  <anchor x="760.0" y="1461.0" name="topcap"/>
  <outline>
    <contour>
      <point x="238.0" y="74.0" type="line"/>
      <point x="79.0" y="40.0" type="line"/>
      <point x="79.0" y="0.0" type="line"/>
      <point x="579.0" y="0.0" type="line"/>
      <point x="579.0" y="40.0" type="line"/>
      <point x="422.0" y="74.0" type="line"/>
      <point x="422.0" y="1281.0" type="line"/>
      <point x="579.0" y="1315.0" type="line"/>
      <point x="579.0" y="1355.0" type="line"/>
      <point x="79.0" y="1355.0" type="line"/>
      <point x="79.0" y="1315.0" type="line"/>
      <point x="238.0" y="1281.0" type="line"/>
    </contour>
    <contour>
      <point x="1088.0" y="74.0" type="line"/>
      <point x="929.0" y="40.0" type="line"/>
      <point x="929.0" y="0.0" type="line"/>
      <point x="1429.0" y="0.0" type="line"/>
      <point x="1429.0" y="37.0" type="line"/>
      <point x="1272.0" y="74.0" type="line"/>
      <point x="1272.0" y="1281.0" type="line"/>
      <point x="1429.0" y="1311.0" type="line"/>
      <point x="1429.0" y="1355.0" type="line"/>
      <point x="929.0" y="1355.0" type="line"/>
      <point x="929.0" y="1315.0" type="line"/>
      <point x="1088.0" y="1281.0" type="line"/>
    </contour>
    <contour>
      <point x="352.0" y="678.0" type="line"/>
      <point x="1162.0" y="678.0" type="line"/>
      <point x="1162.0" y="748.0" type="line"/>
      <point x="352.0" y="748.0" type="line"/>
    </contour>
  </outline>
</glyph>
<glyph name="I" format="2">
  <advance width="658.0"/>
  <unicode hex="0049"/>
  <anchor x="331.0" y="0.0" name="bottom"/>
  <anchor x="331.0" y="1461.0" name="topcap"/>
  <outline>
    <contour>
      <point x="238.0" y="74.0" type="line"/>
      <point x="79.0" y="40.0" type="line"/>
      <point x="79.0" y="0.0" type="line"/>
      <point x="579.0" y="0.0" type="line"/>
      <point x="579.0" y="40.0" type="line"/>
      <point x="422.0" y="74.0" type="line"/>
      <point x="422.0" y="1281.0" type="line"/>
      <point x="579.0" y="1315.0" type="line"/>
      <point x="579.0" y="1355.0" type="line"/>
      <point x="79.0" y="1355.0" type="line"/>
      <point x="79.0" y="1315.0" type="line"/>
      <point x="238.0" y="1281.0" type="line"/>
    </contour>
  </outline>
</glyph>
<glyph name="J" format="2">
  <advance width="637.0"/>
  <unicode hex="004A"/>
  <anchor x="319.0" y="1461.0" name="topcap"/>
  <outline>
    <contour>
      <point x="410.0" y="1281.0" type="line"/>
      <point x="567.0" y="1315.0" type="line"/>
      <point x="567.0" y="1355.0" type="line"/>
      <point x="67.0" y="1355.0" type="line"/>
      <point x="67.0" y="1315.0" type="line"/>
      <point x="225.0" y="1281.0" type="line"/>
      <point x="225.0" y="-84.0" type="line" smooth="yes"/>
      <point x="225.0" y="-275.0"/>
      <point x="162.0" y="-366.0"/>
      <point x="81.0" y="-366.0" type="curve" smooth="yes"/>
      <point x="35.0" y="-366.0"/>
      <point x="-2.0" y="-338.0"/>
      <point x="-26.0" y="-271.0" type="curve" smooth="yes"/>
      <point x="-46.0" y="-218.0"/>
      <point x="-74.0" y="-190.0"/>
      <point x="-123.0" y="-190.0" type="curve" smooth="yes"/>
      <point x="-187.0" y="-190.0"/>
      <point x="-227.0" y="-234.0"/>
      <point x="-227.0" y="-304.0" type="curve" smooth="yes"/>
      <point x="-227.0" y="-400.0"/>
      <point x="-146.0" y="-458.0"/>
      <point x="-16.0" y="-458.0" type="curve" smooth="yes"/>
      <point x="128.0" y="-458.0"/>
      <point x="268.0" y="-378.0"/>
      <point x="350.0" y="-231.0" type="curve" smooth="yes"/>
      <point x="401.0" y="-137.0"/>
      <point x="410.0" y="-72.0"/>
      <point x="410.0" y="273.0" type="curve" smooth="yes"/>
    </contour>
  </outline>
</glyph>
<glyph name="K" format="2">
  <advance width="1378.0"/>
  <unicode hex="004B"/>
  <anchor x="697.0" y="0.0" name="bottom"/>
  <outline>
    <contour>
      <point x="79.0" y="0.0" type="line"/>
      <point x="579.0" y="0.0" type="line"/>
      <point x="579.0" y="40.0" type="line"/>
      <point x="422.0" y="74.0" type="line"/>
      <point x="422.0" y="537.0" type="line"/>
      <point x="537.0" y="667.0" type="line"/>
      <point x="1038.0" y="0.0" type="line"/>
      <point x="1420.0" y="0.0" type="line"/>
      <point x="1420.0" y="40.0" type="line"/>
      <point x="1225.0" y="74.0" type="line"/>
      <point x="660.0" y="808.0" type="line"/>
      <point x="1008.0" y="1206.0" type="line" smooth="yes"/>
      <point x="1065.0" y="1271.0"/>
      <point x="1104.0" y="1287.0"/>
      <point x="1265.0" y="1315.0" type="curve"/>
      <point x="1265.0" y="1355.0" type="line"/>
      <point x="801.0" y="1355.0" type="line"/>
      <point x="801.0" y="1315.0" type="line"/>
      <point x="905.0" y="1308.0"/>
      <point x="949.0" y="1292.0"/>
      <point x="949.0" y="1262.0" type="curve" smooth="yes"/>
      <point x="949.0" y="1248.0"/>
      <point x="940.0" y="1230.0"/>
      <point x="920.0" y="1209.0" type="curve" smooth="yes"/>
      <point x="422.0" y="651.0" type="line"/>
      <point x="422.0" y="1281.0" type="line"/>
      <point x="579.0" y="1315.0" type="line"/>
      <point x="579.0" y="1355.0" type="line"/>
      <point x="79.0" y="1355.0" type="line"/>
      <point x="79.0" y="1315.0" type="line"/>
      <point x="238.0" y="1281.0" type="line"/>
      <point x="238.0" y="74.0" type="line"/>
      <point x="79.0" y="40.0" type="line"/>
    </contour>
  </outline>
</glyph>
<glyph name="L" format="2">
  <advance width="1155.0"/>
  <unicode hex="004C"/>
  <anchor x="607.0" y="0.0" name="bottom"/>
  <anchor x="326.0" y="1461.0" name="topcap"/>
  <outline>
    <contour>
      <point x="588.0" y="1315.0" type="line"/>
      <point x="588.0" y="1355.0" type="line"/>
      <point x="86.0" y="1355.0" type="line"/>
      <point x="86.0" y="1315.0" type="line"/>
      <point x="236.0" y="1281.0" type="line"/>
      <point x="236.0" y="74.0" type="line"/>
      <point x="86.0" y="40.0" type="line"/>
      <point x="86.0" y="0.0" type="line"/>
      <point x="1058.0" y="0.0" type="line"/>
      <point x="1123.0" y="421.0" type="line"/>
      <point x="1077.0" y="421.0" type="line"/>
      <point x="1038.0" y="304.0"/>
      <point x="1000.0" y="187.0"/>
      <point x="929.0" y="70.0" type="curve"/>
      <point x="421.0" y="70.0" type="line"/>
      <point x="421.0" y="1281.0" type="line"/>
    </contour>
  </outline>
</glyph>
<glyph name="M" format="2">
  <advance width="1781.0"/>
  <unicode hex="004D"/>
  <outline>
    <contour>
      <point x="238.0" y="74.0" type="line"/>
      <point x="79.0" y="40.0" type="line"/>
      <point x="79.0" y="0.0" type="line"/>
      <point x="465.0" y="0.0" type="line"/>
      <point x="465.0" y="40.0" type="line"/>
      <point x="308.0" y="74.0" type="line"/>
      <point x="308.0" y="1162.0" type="line"/>
      <point x="315.0" y="1162.0" type="line"/>
      <point x="806.0" y="-18.0" type="line"/>
      <point x="854.0" y="-18.0" type="line"/>
      <point x="1353.0" y="1155.0" type="line"/>
      <point x="1360.0" y="1155.0" type="line"/>
      <point x="1360.0" y="74.0" type="line"/>
      <point x="1202.0" y="40.0" type="line"/>
      <point x="1202.0" y="0.0" type="line"/>
      <point x="1702.0" y="0.0" type="line"/>
      <point x="1702.0" y="40.0" type="line"/>
      <point x="1545.0" y="74.0" type="line"/>
      <point x="1545.0" y="1281.0" type="line"/>
      <point x="1702.0" y="1315.0" type="line"/>
      <point x="1702.0" y="1355.0" type="line"/>
      <point x="1334.0" y="1355.0" type="line"/>
      <point x="896.0" y="312.0" type="line"/>
      <point x="887.0" y="312.0" type="line"/>
      <point x="449.0" y="1355.0" type="line"/>
      <point x="79.0" y="1355.0" type="line"/>
      <point x="79.0" y="1315.0" type="line"/>
      <point x="238.0" y="1281.0" type="line"/>
    </contour>
  </outline>
</glyph>
<glyph name="N" format="2">
  <advance width="1457.0"/>
  <unicode hex="004E"/>
  <anchor x="713.0" y="0.0" name="bottom"/>
  <anchor x="797.0" y="1461.0" name="topcap"/>
  <outline>
    <contour>
      <point x="1230.0" y="1281.0" type="line"/>
      <point x="1389.0" y="1315.0" type="line"/>
      <point x="1389.0" y="1355.0" type="line"/>
      <point x="1003.0" y="1355.0" type="line"/>
      <point x="1003.0" y="1315.0" type="line"/>
      <point x="1160.0" y="1281.0" type="line"/>
      <point x="1160.0" y="359.0" type="line"/>
      <point x="435.0" y="1355.0" type="line"/>
      <point x="79.0" y="1355.0" type="line"/>
      <point x="79.0" y="1315.0" type="line"/>
      <point x="238.0" y="1281.0" type="line"/>
      <point x="238.0" y="74.0" type="line"/>
      <point x="79.0" y="40.0" type="line"/>
      <point x="79.0" y="0.0" type="line"/>
      <point x="465.0" y="0.0" type="line"/>
      <point x="465.0" y="40.0" type="line"/>
      <point x="308.0" y="74.0" type="line"/>
      <point x="308.0" y="1174.0" type="line"/>
      <point x="1176.0" y="-35.0" type="line"/>
      <point x="1230.0" y="-35.0" type="line"/>
    </contour>
  </outline>
</glyph>
<glyph name="O" format="2">
  <advance width="1471.0"/>
  <unicode hex="004F"/>
  <anchor x="737.0" y="0.0" name="bottom"/>
  <anchor x="737.0" y="1461.0" name="topcap"/>
  <outline>
    <contour>
      <point x="736.0" y="1373.0" type="curve" smooth="yes"/>
      <point x="371.0" y="1373.0"/>
      <point x="97.0" y="1074.0"/>
      <point x="97.0" y="678.0" type="curve" smooth="yes"/>
      <point x="97.0" y="282.0"/>
      <point x="371.0" y="-18.0"/>
      <point x="736.0" y="-18.0" type="curve" smooth="yes"/>
      <point x="1100.0" y="-18.0"/>
      <point x="1375.0" y="282.0"/>
      <point x="1375.0" y="678.0" type="curve" smooth="yes"/>
      <point x="1375.0" y="1074.0"/>
      <point x="1100.0" y="1373.0"/>
    </contour>
    <contour>
      <point x="319.0" y="679.0" type="curve" smooth="yes"/>
      <point x="319.0" y="1065.0"/>
      <point x="475.0" y="1294.0"/>
      <point x="737.0" y="1294.0" type="curve" smooth="yes"/>
      <point x="998.0" y="1294.0"/>
      <point x="1153.0" y="1067.0"/>
      <point x="1153.0" y="683.0" type="curve" smooth="yes"/>
      <point x="1153.0" y="294.0"/>
      <point x="996.0" y="62.0"/>
      <point x="736.0" y="62.0" type="curve" smooth="yes"/>
      <point x="475.0" y="62.0"/>
      <point x="319.0" y="294.0"/>
    </contour>
  </outline>
</glyph>
<glyph name="P" format="2">
  <advance width="1167.0"/>
  <unicode hex="0050"/>
  <outline>
    <contour>
      <point x="86.0" y="1315.0" type="line"/>
      <point x="236.0" y="1281.0" type="line"/>
      <point x="236.0" y="74.0" type="line"/>
      <point x="86.0" y="40.0" type="line"/>
      <point x="86.0" y="0.0" type="line"/>
      <point x="621.0" y="0.0" type="line"/>
      <point x="621.0" y="40.0" type="line"/>
      <point x="421.0" y="74.0" type="line"/>
      <point x="421.0" y="581.0" type="line"/>
      <point x="607.0" y="581.0" type="line" smooth="yes"/>
      <point x="913.0" y="581.0"/>
      <point x="1104.0" y="711.0"/>
      <point x="1104.0" y="952.0" type="curve" smooth="yes"/>
      <point x="1104.0" y="1213.0"/>
      <point x="910.0" y="1355.0"/>
      <point x="634.0" y="1355.0" type="curve" smooth="yes"/>
      <point x="86.0" y="1355.0" type="line"/>
    </contour>
    <contour>
      <point x="421.0" y="1285.0" type="line"/>
      <point x="583.0" y="1285.0" type="line" smooth="yes"/>
      <point x="655.0" y="1285.0"/>
      <point x="700.0" y="1280.0"/>
      <point x="739.0" y="1264.0" type="curve" smooth="yes"/>
      <point x="841.0" y="1223.0"/>
      <point x="901.0" y="1121.0"/>
      <point x="901.0" y="970.0" type="curve" smooth="yes"/>
      <point x="901.0" y="887.0"/>
      <point x="884.0" y="806.0"/>
      <point x="831.0" y="744.0" type="curve" smooth="yes"/>
      <point x="780.0" y="685.0"/>
      <point x="700.0" y="649.0"/>
      <point x="553.0" y="649.0" type="curve" smooth="yes"/>
      <point x="421.0" y="649.0" type="line"/>
    </contour>
  </outline>
</glyph>
<glyph name="Q" format="2">
  <advance width="1471.0"/>
  <unicode hex="0051"/>
  <outline>
    <contour>
      <point x="736.0" y="1373.0" type="curve" smooth="yes"/>
      <point x="371.0" y="1373.0"/>
      <point x="97.0" y="1074.0"/>
      <point x="97.0" y="678.0" type="curve" smooth="yes"/>
      <point x="97.0" y="357.0"/>
      <point x="282.0" y="90.0"/>
      <point x="556.0" y="30.0" type="curve"/>
      <point x="556.0" y="23.0" type="line"/>
      <point x="436.0" y="-23.0"/>
      <point x="363.0" y="-100.0"/>
      <point x="363.0" y="-185.0" type="curve" smooth="yes"/>
      <point x="363.0" y="-243.0"/>
      <point x="398.0" y="-282.0"/>
      <point x="451.0" y="-282.0" type="curve" smooth="yes"/>
      <point x="502.0" y="-282.0"/>
      <point x="540.0" y="-245.0"/>
      <point x="540.0" y="-194.0" type="curve" smooth="yes"/>
      <point x="540.0" y="-150.0"/>
      <point x="510.0" y="-141.0"/>
      <point x="510.0" y="-100.0" type="curve" smooth="yes"/>
      <point x="510.0" y="-56.0"/>
      <point x="544.0" y="-21.0"/>
      <point x="620.0" y="-21.0" type="curve" smooth="yes"/>
      <point x="827.0" y="-21.0"/>
      <point x="889.0" y="-289.0"/>
      <point x="1109.0" y="-289.0" type="curve" smooth="yes"/>
      <point x="1230.0" y="-289.0"/>
      <point x="1350.0" y="-208.0"/>
      <point x="1422.0" y="-42.0" type="curve"/>
      <point x="1375.0" y="-25.0" type="line"/>
      <point x="1327.0" y="-88.0"/>
      <point x="1281.0" y="-118.0"/>
      <point x="1202.0" y="-118.0" type="curve" smooth="yes"/>
      <point x="1056.0" y="-118.0"/>
      <point x="945.0" y="-23.0"/>
      <point x="825.0" y="5.0" type="curve"/>
      <point x="825.0" y="12.0" type="line"/>
      <point x="1153.0" y="39.0"/>
      <point x="1375.0" y="327.0"/>
      <point x="1375.0" y="678.0" type="curve" smooth="yes"/>
      <point x="1375.0" y="1074.0"/>
      <point x="1100.0" y="1373.0"/>
    </contour>
    <contour>
      <point x="319.0" y="679.0" type="curve" smooth="yes"/>
      <point x="319.0" y="1065.0"/>
      <point x="475.0" y="1294.0"/>
      <point x="737.0" y="1294.0" type="curve" smooth="yes"/>
      <point x="998.0" y="1294.0"/>
      <point x="1153.0" y="1067.0"/>
      <point x="1153.0" y="681.0" type="curve" smooth="yes"/>
      <point x="1153.0" y="294.0"/>
      <point x="996.0" y="62.0"/>
      <point x="736.0" y="62.0" type="curve" smooth="yes"/>
      <point x="475.0" y="62.0"/>
      <point x="319.0" y="294.0"/>
    </contour>
  </outline>
</glyph>
<glyph name="R" format="2">
  <advance width="1290.0"/>
  <unicode hex="0052"/>
  <anchor x="697.0" y="0.0" name="bottom"/>
  <anchor x="648.0" y="1461.0" name="topcap"/>
  <outline>
    <contour>
      <point x="86.0" y="0.0" type="line"/>
      <point x="621.0" y="0.0" type="line"/>
      <point x="621.0" y="40.0" type="line"/>
      <point x="421.0" y="74.0" type="line"/>
      <point x="421.0" y="616.0" type="line"/>
      <point x="590.0" y="616.0" type="line"/>
      <point x="984.0" y="0.0" type="line"/>
      <point x="1366.0" y="0.0" type="line"/>
      <point x="1366.0" y="40.0" type="line"/>
      <point x="1165.0" y="74.0" type="line"/>
      <point x="790.0" y="637.0" type="line"/>
      <point x="977.0" y="681.0"/>
      <point x="1086.0" y="794.0"/>
      <point x="1086.0" y="970.0" type="curve" smooth="yes"/>
      <point x="1086.0" y="1220.0"/>
      <point x="892.0" y="1355.0"/>
      <point x="616.0" y="1355.0" type="curve" smooth="yes"/>
      <point x="86.0" y="1355.0" type="line"/>
      <point x="86.0" y="1315.0" type="line"/>
      <point x="236.0" y="1281.0" type="line"/>
      <point x="236.0" y="74.0" type="line"/>
      <point x="86.0" y="40.0" type="line"/>
    </contour>
    <contour>
      <point x="421.0" y="685.0" type="line"/>
      <point x="421.0" y="1285.0" type="line"/>
      <point x="565.0" y="1285.0" type="line" smooth="yes"/>
      <point x="637.0" y="1285.0"/>
      <point x="681.0" y="1280.0"/>
      <point x="722.0" y="1264.0" type="curve" smooth="yes"/>
      <point x="824.0" y="1223.0"/>
      <point x="884.0" y="1130.0"/>
      <point x="884.0" y="987.0" type="curve" smooth="yes"/>
      <point x="884.0" y="912.0"/>
      <point x="864.0" y="838.0"/>
      <point x="813.0" y="780.0" type="curve" smooth="yes"/>
      <point x="760.0" y="722.0"/>
      <point x="683.0" y="685.0"/>
      <point x="535.0" y="685.0" type="curve" smooth="yes"/>
    </contour>
  </outline>
</glyph>
<glyph name="S" format="2">
  <advance width="1054.0"/>
  <unicode hex="0053"/>
  <anchor x="533.0" y="0.0" name="bottom"/>
  <anchor x="542.0" y="1461.0" name="topcap"/>
  <outline>
    <contour>
      <point x="532.0" y="1373.0" type="curve" smooth="yes"/>
      <point x="308.0" y="1373.0"/>
      <point x="139.0" y="1214.0"/>
      <point x="139.0" y="1001.0" type="curve" smooth="yes"/>
      <point x="139.0" y="586.0"/>
      <point x="787.0" y="625.0"/>
      <point x="787.0" y="278.0" type="curve" smooth="yes"/>
      <point x="787.0" y="143.0"/>
      <point x="686.0" y="60.0"/>
      <point x="524.0" y="60.0" type="curve" smooth="yes"/>
      <point x="333.0" y="60.0"/>
      <point x="225.0" y="178.0"/>
      <point x="155.0" y="461.0" type="curve"/>
      <point x="111.0" y="451.0" type="line"/>
      <point x="143.0" y="0.0" type="line"/>
      <point x="178.0" y="0.0" type="line"/>
      <point x="248.0" y="72.0" type="line"/>
      <point x="348.0" y="11.0"/>
      <point x="435.0" y="-16.0"/>
      <point x="530.0" y="-16.0" type="curve" smooth="yes"/>
      <point x="766.0" y="-16.0"/>
      <point x="949.0" y="157.0"/>
      <point x="949.0" y="382.0" type="curve" smooth="yes"/>
      <point x="949.0" y="801.0"/>
      <point x="324.0" y="753.0"/>
      <point x="324.0" y="1096.0" type="curve" smooth="yes"/>
      <point x="324.0" y="1221.0"/>
      <point x="407.0" y="1297.0"/>
      <point x="540.0" y="1297.0" type="curve" smooth="yes"/>
      <point x="700.0" y="1297.0"/>
      <point x="803.0" y="1192.0"/>
      <point x="859.0" y="968.0" type="curve"/>
      <point x="905.0" y="968.0" type="line"/>
      <point x="889.0" y="1355.0" type="line"/>
      <point x="854.0" y="1355.0" type="line"/>
      <point x="797.0" y="1264.0" type="line"/>
      <point x="720.0" y="1338.0"/>
      <point x="637.0" y="1373.0"/>
    </contour>
  </outline>
</glyph>
<glyph name="T" format="2">
  <advance width="1327.0"/>
  <unicode hex="0054"/>
  <anchor x="667.0" y="-4.0" name="bottom"/>
  <anchor x="667.0" y="1461.0" name="topcap"/>
  <outline>
    <contour>
      <point x="380.0" y="0.0" type="line"/>
      <point x="950.0" y="0.0" type="line"/>
      <point x="950.0" y="40.0" type="line"/>
      <point x="759.0" y="74.0" type="line"/>
      <point x="759.0" y="1285.0" type="line"/>
      <point x="1107.0" y="1285.0" type="line"/>
      <point x="1183.0" y="1184.0"/>
      <point x="1234.0" y="1068.0"/>
      <point x="1269.0" y="968.0" type="curve"/>
      <point x="1311.0" y="968.0" type="line"/>
      <point x="1246.0" y="1355.0" type="line"/>
      <point x="81.0" y="1355.0" type="line"/>
      <point x="16.0" y="968.0" type="line"/>
      <point x="58.0" y="968.0" type="line"/>
      <point x="93.0" y="1068.0"/>
      <point x="144.0" y="1184.0"/>
      <point x="220.0" y="1285.0" type="curve"/>
      <point x="574.0" y="1285.0" type="line"/>
      <point x="574.0" y="74.0" type="line"/>
      <point x="380.0" y="40.0" type="line"/>
    </contour>
  </outline>
</glyph>
<glyph name="U" format="2">
  <advance width="1362.0"/>
  <unicode hex="0055"/>
  <anchor x="706.0" y="0.0" name="bottom"/>
  <anchor x="750.0" y="1461.0" name="topcap"/>
  <outline>
    <contour>
      <point x="401.0" y="1281.0" type="line"/>
      <point x="558.0" y="1315.0" type="line"/>
      <point x="558.0" y="1355.0" type="line"/>
      <point x="58.0" y="1355.0" type="line"/>
      <point x="58.0" y="1315.0" type="line"/>
      <point x="216.0" y="1281.0" type="line"/>
      <point x="216.0" y="426.0" type="line" smooth="yes"/>
      <point x="216.0" y="280.0"/>
      <point x="239.0" y="206.0"/>
      <point x="285.0" y="144.0" type="curve" smooth="yes"/>
      <point x="363.0" y="42.0"/>
      <point x="510.0" y="-18.0"/>
      <point x="692.0" y="-18.0" type="curve" smooth="yes"/>
      <point x="869.0" y="-18.0"/>
      <point x="1008.0" y="40.0"/>
      <point x="1077.0" y="141.0" type="curve" smooth="yes"/>
      <point x="1123.0" y="209.0"/>
      <point x="1144.0" y="306.0"/>
      <point x="1144.0" y="454.0" type="curve" smooth="yes"/>
      <point x="1144.0" y="1281.0" type="line"/>
      <point x="1302.0" y="1315.0" type="line"/>
      <point x="1302.0" y="1355.0" type="line"/>
      <point x="917.0" y="1355.0" type="line"/>
      <point x="917.0" y="1315.0" type="line"/>
      <point x="1074.0" y="1281.0" type="line"/>
      <point x="1074.0" y="528.0" type="line" smooth="yes"/>
      <point x="1074.0" y="341.0"/>
      <point x="1054.0" y="234.0"/>
      <point x="1007.0" y="171.0" type="curve" smooth="yes"/>
      <point x="954.0" y="99.0"/>
      <point x="855.0" y="62.0"/>
      <point x="729.0" y="62.0" type="curve" smooth="yes"/>
      <point x="530.0" y="62.0"/>
      <point x="401.0" y="176.0"/>
      <point x="401.0" y="400.0" type="curve" smooth="yes"/>
    </contour>
  </outline>
</glyph>
<glyph name="V" format="2">
  <advance width="1269.0"/>
  <unicode hex="0056"/>
  <outline>
    <contour>
      <point x="655.0" y="-18.0" type="line"/>
      <point x="1058.0" y="1119.0" type="line" smooth="yes"/>
      <point x="1102.0" y="1244.0"/>
      <point x="1126.0" y="1287.0"/>
      <point x="1313.0" y="1315.0" type="curve"/>
      <point x="1313.0" y="1355.0" type="line"/>
      <point x="818.0" y="1355.0" type="line"/>
      <point x="818.0" y="1315.0" type="line"/>
      <point x="952.0" y="1297.0"/>
      <point x="998.0" y="1265.0"/>
      <point x="998.0" y="1206.0" type="curve" smooth="yes"/>
      <point x="998.0" y="1183.0"/>
      <point x="991.0" y="1155.0"/>
      <point x="980.0" y="1123.0" type="curve" smooth="yes"/>
      <point x="702.0" y="322.0" type="line"/>
      <point x="693.0" y="322.0" type="line"/>
      <point x="396.0" y="1179.0" type="line" smooth="yes"/>
      <point x="385.0" y="1211.0"/>
      <point x="373.0" y="1243.0"/>
      <point x="373.0" y="1260.0" type="curve" smooth="yes"/>
      <point x="373.0" y="1299.0"/>
      <point x="400.0" y="1306.0"/>
      <point x="558.0" y="1315.0" type="curve"/>
      <point x="558.0" y="1355.0" type="line"/>
      <point x="-14.0" y="1355.0" type="line"/>
      <point x="-14.0" y="1315.0" type="line"/>
      <point x="109.0" y="1306.0"/>
      <point x="136.0" y="1288.0"/>
      <point x="165.0" y="1207.0" type="curve" smooth="yes"/>
      <point x="625.0" y="-18.0" type="line"/>
    </contour>
  </outline>
</glyph>
<glyph name="W" format="2">
  <advance width="1918.0"/>
  <unicode hex="0057"/>
  <anchor x="956.0" y="1461.0" name="topcap"/>
  <outline>
    <contour>
      <point x="656.0" y="-18.0" type="line"/>
      <point x="950.0" y="903.0" type="line"/>
      <point x="1295.0" y="-18.0" type="line"/>
      <point x="1336.0" y="-18.0" type="line"/>
      <point x="1698.0" y="1119.0" type="line" smooth="yes"/>
      <point x="1739.0" y="1246.0"/>
      <point x="1767.0" y="1287.0"/>
      <point x="1954.0" y="1315.0" type="curve"/>
      <point x="1954.0" y="1355.0" type="line"/>
      <point x="1459.0" y="1355.0" type="line"/>
      <point x="1459.0" y="1315.0" type="line"/>
      <point x="1595.0" y="1295.0"/>
      <point x="1637.0" y="1267.0"/>
      <point x="1637.0" y="1207.0" type="curve" smooth="yes"/>
      <point x="1637.0" y="1181.0"/>
      <point x="1632.0" y="1156.0"/>
      <point x="1621.0" y="1123.0" type="curve" smooth="yes"/>
      <point x="1373.0" y="322.0" type="line"/>
      <point x="1364.0" y="322.0" type="line"/>
      <point x="1067.0" y="1179.0" type="line" smooth="yes"/>
      <point x="1054.0" y="1213.0"/>
      <point x="1047.0" y="1237.0"/>
      <point x="1047.0" y="1257.0" type="curve" smooth="yes"/>
      <point x="1047.0" y="1292.0"/>
      <point x="1060.0" y="1304.0"/>
      <point x="1228.0" y="1315.0" type="curve"/>
      <point x="1228.0" y="1355.0" type="line"/>
      <point x="656.0" y="1355.0" type="line"/>
      <point x="656.0" y="1315.0" type="line"/>
      <point x="780.0" y="1306.0"/>
      <point x="806.0" y="1288.0"/>
      <point x="836.0" y="1207.0" type="curve" smooth="yes"/>
      <point x="908.0" y="1014.0" type="line"/>
      <point x="693.0" y="322.0" type="line"/>
      <point x="685.0" y="322.0" type="line"/>
      <point x="387.0" y="1179.0" type="line" smooth="yes"/>
      <point x="370.0" y="1228.0"/>
      <point x="364.0" y="1244.0"/>
      <point x="364.0" y="1262.0" type="curve" smooth="yes"/>
      <point x="364.0" y="1294.0"/>
      <point x="384.0" y="1302.0"/>
      <point x="549.0" y="1315.0" type="curve"/>
      <point x="549.0" y="1355.0" type="line"/>
      <point x="-23.0" y="1355.0" type="line"/>
      <point x="-23.0" y="1315.0" type="line"/>
      <point x="100.0" y="1306.0"/>
      <point x="127.0" y="1288.0"/>
      <point x="157.0" y="1207.0" type="curve" smooth="yes"/>
      <point x="616.0" y="-18.0" type="line"/>
    </contour>
  </outline>
</glyph>
<glyph name="X" format="2">
  <advance width="1385.0"/>
  <unicode hex="0058"/>
  <outline>
    <contour>
      <point x="-18.0" y="0.0" type="line"/>
      <point x="459.0" y="0.0" type="line"/>
      <point x="459.0" y="35.0" type="line"/>
      <point x="357.0" y="46.0"/>
      <point x="312.0" y="63.0"/>
      <point x="312.0" y="93.0" type="curve" smooth="yes"/>
      <point x="312.0" y="109.0"/>
      <point x="320.0" y="134.0"/>
      <point x="341.0" y="162.0" type="curve" smooth="yes"/>
      <point x="665.0" y="597.0" type="line"/>
      <point x="970.0" y="134.0" type="line" smooth="yes"/>
      <point x="991.0" y="102.0"/>
      <point x="998.0" y="86.0"/>
      <point x="998.0" y="74.0" type="curve" smooth="yes"/>
      <point x="998.0" y="55.0"/>
      <point x="972.0" y="48.0"/>
      <point x="861.0" y="39.0" type="curve"/>
      <point x="861.0" y="0.0" type="line"/>
      <point x="1389.0" y="0.0" type="line"/>
      <point x="1389.0" y="39.0" type="line"/>
      <point x="1280.0" y="48.0"/>
      <point x="1234.0" y="62.0"/>
      <point x="1199.0" y="114.0" type="curve" smooth="yes"/>
      <point x="788.0" y="741.0" type="line"/>
      <point x="1125.0" y="1193.0" type="line"/>
      <point x="1192.0" y="1272.0"/>
      <point x="1239.0" y="1292.0"/>
      <point x="1366.0" y="1315.0" type="curve"/>
      <point x="1366.0" y="1355.0" type="line"/>
      <point x="929.0" y="1355.0" type="line"/>
      <point x="929.0" y="1315.0" type="line"/>
      <point x="1021.0" y="1304.0"/>
      <point x="1060.0" y="1283.0"/>
      <point x="1060.0" y="1251.0" type="curve" smooth="yes"/>
      <point x="1060.0" y="1232.0"/>
      <point x="1049.0" y="1213.0"/>
      <point x="1031.0" y="1188.0" type="curve" smooth="yes"/>
      <point x="748.0" y="803.0" type="line"/>
      <point x="475.0" y="1220.0" type="line" smooth="yes"/>
      <point x="458.0" y="1248.0"/>
      <point x="452.0" y="1264.0"/>
      <point x="452.0" y="1280.0" type="curve" smooth="yes"/>
      <point x="452.0" y="1299.0"/>
      <point x="470.0" y="1309.0"/>
      <point x="574.0" y="1315.0" type="curve"/>
      <point x="574.0" y="1355.0" type="line"/>
      <point x="42.0" y="1355.0" type="line"/>
      <point x="42.0" y="1315.0" type="line"/>
      <point x="181.0" y="1299.0"/>
      <point x="215.0" y="1285.0"/>
      <point x="245.0" y="1239.0" type="curve" smooth="yes"/>
      <point x="621.0" y="664.0" type="line"/>
      <point x="248.0" y="160.0" type="line" smooth="yes"/>
      <point x="188.0" y="79.0"/>
      <point x="118.0" y="53.0"/>
      <point x="-18.0" y="35.0" type="curve"/>
    </contour>
  </outline>
</glyph>
<glyph name="Y" format="2">
  <advance width="1248.0"/>
  <unicode hex="0059"/>
  <anchor x="702.0" y="1461.0" name="topcap"/>
  <outline>
    <contour>
      <point x="370.0" y="0.0" type="line"/>
      <point x="869.0" y="0.0" type="line"/>
      <point x="869.0" y="40.0" type="line"/>
      <point x="713.0" y="74.0" type="line"/>
      <point x="713.0" y="544.0" type="line"/>
      <point x="1023.0" y="1119.0" type="line" smooth="yes"/>
      <point x="1086.0" y="1236.0"/>
      <point x="1091.0" y="1287.0"/>
      <point x="1278.0" y="1315.0" type="curve"/>
      <point x="1278.0" y="1355.0" type="line"/>
      <point x="781.0" y="1355.0" type="line"/>
      <point x="781.0" y="1315.0" type="line"/>
      <point x="903.0" y="1306.0"/>
      <point x="964.0" y="1264.0"/>
      <point x="964.0" y="1199.0" type="curve" smooth="yes"/>
      <point x="964.0" y="1176.0"/>
      <point x="957.0" y="1151.0"/>
      <point x="943.0" y="1123.0" type="curve" smooth="yes"/>
      <point x="699.0" y="660.0" type="line"/>
      <point x="692.0" y="660.0" type="line"/>
      <point x="401.0" y="1179.0" type="line" smooth="yes"/>
      <point x="387.0" y="1206.0"/>
      <point x="378.0" y="1230.0"/>
      <point x="378.0" y="1250.0" type="curve" smooth="yes"/>
      <point x="378.0" y="1285.0"/>
      <point x="410.0" y="1306.0"/>
      <point x="563.0" y="1315.0" type="curve"/>
      <point x="563.0" y="1355.0" type="line"/>
      <point x="-14.0" y="1355.0" type="line"/>
      <point x="-14.0" y="1315.0" type="line"/>
      <point x="109.0" y="1306.0"/>
      <point x="128.0" y="1281.0"/>
      <point x="171.0" y="1207.0" type="curve" smooth="yes"/>
      <point x="528.0" y="576.0" type="line"/>
      <point x="528.0" y="74.0" type="line"/>
      <point x="370.0" y="40.0" type="line"/>
    </contour>
  </outline>
</glyph>
<glyph name="Z" format="2">
  <advance width="1190.0"/>
  <unicode hex="005A"/>
  <anchor x="560.0" y="0.0" name="bottom"/>
  <anchor x="648.0" y="1461.0" name="topcap"/>
  <outline>
    <contour>
      <point x="181.0" y="1355.0" type="line"/>
      <point x="107.0" y="972.0" type="line"/>
      <point x="153.0" y="970.0" type="line"/>
      <point x="171.0" y="1023.0"/>
      <point x="211.0" y="1121.0"/>
      <point x="280.0" y="1246.0" type="curve" smooth="yes"/>
      <point x="301.0" y="1285.0" type="line"/>
      <point x="861.0" y="1285.0" type="line"/>
      <point x="55.0" y="49.0" type="line"/>
      <point x="55.0" y="0.0" type="line"/>
      <point x="1021.0" y="0.0" type="line"/>
      <point x="1112.0" y="429.0" type="line"/>
      <point x="1067.0" y="435.0" type="line"/>
      <point x="1035.0" y="356.0"/>
      <point x="979.0" y="227.0"/>
      <point x="896.0" y="102.0" type="curve" smooth="yes"/>
      <point x="875.0" y="70.0" type="line"/>
      <point x="287.0" y="70.0" type="line"/>
      <point x="1096.0" y="1308.0" type="line"/>
      <point x="1096.0" y="1355.0" type="line"/>
    </contour>
  </outline>
</glyph>
<glyph name="bracketleft" format="2">
  <advance width="570.0"/>
  <unicode hex="005B"/>
  <outline>
    <contour>
      <point x="178.0" y="-329.0" type="line"/>
      <point x="178.0" y="1443.0" type="line"/>
      <point x="528.0" y="1443.0" type="line"/>
      <point x="528.0" y="1387.0" type="line"/>
      <point x="320.0" y="1387.0" type="line"/>
      <point x="320.0" y="-275.0" type="line"/>
      <point x="528.0" y="-275.0" type="line"/>
      <point x="528.0" y="-329.0" type="line"/>
    </contour>
  </outline>
</glyph>
<glyph name="backslash" format="2">
  <advance width="641.0"/>
  <unicode hex="005C"/>
  <outline>
    <contour>
      <point x="558.0" y="-297.0" type="line"/>
      <point x="206.0" y="1441.0" type="line"/>
      <point x="83.0" y="1441.0" type="line"/>
      <point x="436.0" y="-297.0" type="line"/>
    </contour>
  </outline>
</glyph>
<glyph name="bracketright" format="2">
  <advance width="570.0"/>
  <unicode hex="005D"/>
  <outline>
    <contour>
      <point x="42.0" y="-329.0" type="line"/>
      <point x="42.0" y="-275.0" type="line"/>
      <point x="250.0" y="-275.0" type="line"/>
      <point x="250.0" y="1387.0" type="line"/>
      <point x="42.0" y="1387.0" type="line"/>
      <point x="42.0" y="1443.0" type="line"/>
      <point x="392.0" y="1443.0" type="line"/>
      <point x="392.0" y="-329.0" type="line"/>
    </contour>
  </outline>
</glyph>
<glyph name="asciicircum" format="2">
  <advance width="878.0"/>
  <unicode hex="005E"/>
  <outline>
    <contour>
      <point x="83.0" y="584.0" type="line"/>
      <point x="408.0" y="1251.0" type="line"/>
      <point x="472.0" y="1251.0" type="line"/>
      <point x="796.0" y="584.0" type="line"/>
      <point x="722.0" y="584.0" type="line"/>
      <point x="442.0" y="1142.0" type="line"/>
      <point x="435.0" y="1142.0" type="line"/>
      <point x="158.0" y="584.0" type="line"/>
    </contour>
  </outline>
</glyph>
<glyph name="grave" format="2">
  <advance width="299.0"/>
  <unicode hex="0060"/>
  <anchor x="148.0" y="1146.0" name="_top"/>
  <outline>
    <contour>
      <point x="245.0" y="1111.0" type="line"/>
      <point x="70.0" y="1329.0" type="line" smooth="yes"/>
      <point x="32.0" y="1376.0"/>
      <point x="18.0" y="1406.0"/>
      <point x="18.0" y="1436.0" type="curve" smooth="yes"/>
      <point x="18.0" y="1480.0"/>
      <point x="49.0" y="1512.0"/>
      <point x="86.0" y="1512.0" type="curve" smooth="yes"/>
      <point x="137.0" y="1512.0"/>
      <point x="165.0" y="1480.0"/>
      <point x="183.0" y="1429.0" type="curve" smooth="yes"/>
      <point x="282.0" y="1130.0" type="line"/>
    </contour>
  </outline>
</glyph>
<glyph name="a" format="2">
  <advance width="924.0"/>
  <unicode hex="0061"/>
  <anchor x="722.0" y="0.0" name="bottom"/>
  <anchor x="465.0" y="1146.0" name="top"/>
  <outline>
    <contour>
      <point x="297.0" y="-18.0" type="curve" smooth="yes"/>
      <point x="400.0" y="-18.0"/>
      <point x="503.0" y="44.0"/>
      <point x="572.0" y="144.0" type="curve"/>
      <point x="577.0" y="141.0" type="line"/>
      <point x="590.0" y="33.0"/>
      <point x="641.0" y="-18.0"/>
      <point x="734.0" y="-18.0" type="curve" smooth="yes"/>
      <point x="810.0" y="-18.0"/>
      <point x="862.0" y="16.0"/>
      <point x="917.0" y="100.0" type="curve"/>
      <point x="887.0" y="127.0" type="line"/>
      <point x="857.0" y="90.0"/>
      <point x="834.0" y="76.0"/>
      <point x="801.0" y="76.0" type="curve" smooth="yes"/>
      <point x="750.0" y="76.0"/>
      <point x="736.0" y="107.0"/>
      <point x="736.0" y="224.0" type="curve" smooth="yes"/>
      <point x="736.0" y="627.0" type="line" smooth="yes"/>
      <point x="736.0" y="774.0"/>
      <point x="732.0" y="817.0"/>
      <point x="713.0" y="857.0" type="curve" smooth="yes"/>
      <point x="683.0" y="917.0"/>
      <point x="609.0" y="950.0"/>
      <point x="509.0" y="950.0" type="curve" smooth="yes"/>
      <point x="433.0" y="950.0"/>
      <point x="354.0" y="931.0"/>
      <point x="285.0" y="896.0" type="curve" smooth="yes"/>
      <point x="171.0" y="838.0"/>
      <point x="95.0" y="748.0"/>
      <point x="95.0" y="671.0" type="curve" smooth="yes"/>
      <point x="95.0" y="620.0"/>
      <point x="128.0" y="586.0"/>
      <point x="176.0" y="586.0" type="curve" smooth="yes"/>
      <point x="229.0" y="586.0"/>
      <point x="268.0" y="628.0"/>
      <point x="268.0" y="688.0" type="curve" smooth="yes"/>
      <point x="268.0" y="708.0"/>
      <point x="264.0" y="730.0"/>
      <point x="264.0" y="750.0" type="curve" smooth="yes"/>
      <point x="264.0" y="832.0"/>
      <point x="327.0" y="884.0"/>
      <point x="428.0" y="884.0" type="curve" smooth="yes"/>
      <point x="530.0" y="884.0"/>
      <point x="568.0" y="829.0"/>
      <point x="568.0" y="681.0" type="curve" smooth="yes"/>
      <point x="568.0" y="509.0" type="line"/>
      <point x="215.0" y="433.0"/>
      <point x="86.0" y="350.0"/>
      <point x="86.0" y="197.0" type="curve" smooth="yes"/>
      <point x="86.0" y="70.0"/>
      <point x="172.0" y="-18.0"/>
    </contour>
    <contour>
      <point x="375.0" y="86.0" type="curve" smooth="yes"/>
      <point x="290.0" y="86.0"/>
      <point x="243.0" y="139.0"/>
      <point x="243.0" y="234.0" type="curve" smooth="yes"/>
      <point x="243.0" y="356.0"/>
      <point x="320.0" y="408.0"/>
      <point x="568.0" y="458.0" type="curve"/>
      <point x="568.0" y="204.0" type="line"/>
      <point x="523.0" y="130.0"/>
      <point x="451.0" y="86.0"/>
    </contour>
  </outline>
</glyph>
<glyph name="b" format="2">
  <advance width="1060.0"/>
  <unicode hex="0062"/>
  <outline>
    <contour>
      <point x="514.0" y="-18.0" type="curve" smooth="yes"/>
      <point x="778.0" y="-18.0"/>
      <point x="979.0" y="208.0"/>
      <point x="979.0" y="505.0" type="curve" smooth="yes"/>
      <point x="979.0" y="769.0"/>
      <point x="820.0" y="950.0"/>
      <point x="590.0" y="950.0" type="curve" smooth="yes"/>
      <point x="486.0" y="950.0"/>
      <point x="396.0" y="910.0"/>
      <point x="322.0" y="831.0" type="curve"/>
      <point x="322.0" y="1461.0" type="line"/>
      <point x="304.0" y="1461.0" type="line"/>
      <point x="25.0" y="1375.0" type="line"/>
      <point x="25.0" y="1352.0" type="line"/>
      <point x="153.0" y="1304.0" type="line"/>
      <point x="153.0" y="4.0" type="line"/>
      <point x="181.0" y="4.0" type="line"/>
      <point x="262.0" y="63.0" type="line"/>
      <point x="271.0" y="63.0" type="line"/>
      <point x="341.0" y="11.0"/>
      <point x="426.0" y="-18.0"/>
    </contour>
    <contour>
      <point x="514.0" y="42.0" type="curve" smooth="yes"/>
      <point x="398.0" y="42.0"/>
      <point x="322.0" y="130.0"/>
      <point x="322.0" y="264.0" type="curve" smooth="yes"/>
      <point x="322.0" y="764.0" type="line"/>
      <point x="368.0" y="820.0"/>
      <point x="436.0" y="855.0"/>
      <point x="516.0" y="855.0" type="curve" smooth="yes"/>
      <point x="686.0" y="855.0"/>
      <point x="790.0" y="704.0"/>
      <point x="790.0" y="456.0" type="curve" smooth="yes"/>
      <point x="790.0" y="208.0"/>
      <point x="681.0" y="42.0"/>
    </contour>
  </outline>
</glyph>
<glyph name="c" format="2">
  <advance width="942.0"/>
  <unicode hex="0063"/>
  <anchor x="512.0" y="0.0" name="bottom"/>
  <anchor x="542.0" y="1146.0" name="top"/>
  <outline>
    <contour>
      <point x="510.0" y="-18.0" type="curve" smooth="yes"/>
      <point x="681.0" y="-18.0"/>
      <point x="813.0" y="70.0"/>
      <point x="873.0" y="225.0" type="curve" smooth="yes"/>
      <point x="882.0" y="248.0" type="line"/>
      <point x="848.0" y="266.0" type="line"/>
      <point x="829.0" y="239.0" type="line" smooth="yes"/>
      <point x="766.0" y="153.0"/>
      <point x="669.0" y="111.0"/>
      <point x="563.0" y="111.0" type="curve" smooth="yes"/>
      <point x="371.0" y="111.0"/>
      <point x="260.0" y="250.0"/>
      <point x="260.0" y="489.0" type="curve" smooth="yes"/>
      <point x="260.0" y="736.0"/>
      <point x="368.0" y="894.0"/>
      <point x="554.0" y="894.0" type="curve" smooth="yes"/>
      <point x="634.0" y="894.0"/>
      <point x="667.0" y="869.0"/>
      <point x="681.0" y="753.0" type="curve" smooth="yes"/>
      <point x="690.0" y="678.0"/>
      <point x="723.0" y="642.0"/>
      <point x="785.0" y="642.0" type="curve" smooth="yes"/>
      <point x="836.0" y="642.0"/>
      <point x="866.0" y="683.0"/>
      <point x="866.0" y="743.0" type="curve" smooth="yes"/>
      <point x="866.0" y="855.0"/>
      <point x="729.0" y="950.0"/>
      <point x="549.0" y="950.0" type="curve" smooth="yes"/>
      <point x="275.0" y="950.0"/>
      <point x="81.0" y="744.0"/>
      <point x="81.0" y="454.0" type="curve" smooth="yes"/>
      <point x="81.0" y="176.0"/>
      <point x="259.0" y="-18.0"/>
    </contour>
  </outline>
</glyph>
<glyph name="d" format="2">
  <advance width="1068.0"/>
  <unicode hex="0064"/>
  <anchor x="447.0" y="0.0" name="bottom"/>
  <outline>
    <contour>
      <point x="447.0" y="-18.0" type="curve" smooth="yes"/>
      <point x="563.0" y="-18.0"/>
      <point x="667.0" y="33.0"/>
      <point x="741.0" y="137.0" type="curve"/>
      <point x="748.0" y="134.0" type="line"/>
      <point x="748.0" y="-18.0" type="line"/>
      <point x="760.0" y="-18.0" type="line"/>
      <point x="1021.0" y="92.0" type="line"/>
      <point x="1021.0" y="111.0" type="line"/>
      <point x="901.0" y="137.0" type="line"/>
      <point x="901.0" y="1461.0" type="line"/>
      <point x="884.0" y="1461.0" type="line"/>
      <point x="607.0" y="1375.0" type="line"/>
      <point x="607.0" y="1352.0" type="line"/>
      <point x="736.0" y="1302.0" type="line"/>
      <point x="736.0" y="924.0" type="line"/>
      <point x="674.0" y="942.0"/>
      <point x="607.0" y="950.0"/>
      <point x="546.0" y="950.0" type="curve" smooth="yes"/>
      <point x="271.0" y="950.0"/>
      <point x="83.0" y="746.0"/>
      <point x="83.0" y="451.0" type="curve" smooth="yes"/>
      <point x="83.0" y="181.0"/>
      <point x="239.0" y="-18.0"/>
    </contour>
    <contour>
      <point x="521.0" y="97.0" type="curve" smooth="yes"/>
      <point x="363.0" y="97.0"/>
      <point x="268.0" y="243.0"/>
      <point x="268.0" y="479.0" type="curve" smooth="yes"/>
      <point x="268.0" y="732.0"/>
      <point x="378.0" y="898.0"/>
      <point x="542.0" y="898.0" type="curve" smooth="yes"/>
      <point x="669.0" y="898.0"/>
      <point x="736.0" y="831.0"/>
      <point x="736.0" y="704.0" type="curve" smooth="yes"/>
      <point x="736.0" y="201.0" type="line"/>
      <point x="695.0" y="137.0"/>
      <point x="612.0" y="97.0"/>
    </contour>
  </outline>
</glyph>
<glyph name="e" format="2">
  <advance width="986.0"/>
  <unicode hex="0065"/>
  <anchor x="507.0" y="0.0" name="bottom"/>
  <anchor x="547.0" y="1146.0" name="top"/>
  <outline>
    <contour>
      <point x="913.0" y="553.0" type="line"/>
      <point x="908.0" y="813.0"/>
      <point x="783.0" y="950.0"/>
      <point x="553.0" y="950.0" type="curve" smooth="yes"/>
      <point x="273.0" y="950.0"/>
      <point x="83.0" y="748.0"/>
      <point x="83.0" y="452.0" type="curve" smooth="yes"/>
      <point x="83.0" y="172.0"/>
      <point x="253.0" y="-18.0"/>
      <point x="505.0" y="-18.0" type="curve" smooth="yes"/>
      <point x="678.0" y="-18.0"/>
      <point x="822.0" y="70.0"/>
      <point x="884.0" y="213.0" type="curve" smooth="yes"/>
      <point x="894.0" y="238.0" type="line"/>
      <point x="864.0" y="255.0" type="line"/>
      <point x="843.0" y="229.0" type="line" smooth="yes"/>
      <point x="781.0" y="155.0"/>
      <point x="678.0" y="111.0"/>
      <point x="563.0" y="111.0" type="curve" smooth="yes"/>
      <point x="363.0" y="111.0"/>
      <point x="259.0" y="245.0"/>
      <point x="259.0" y="502.0" type="curve" smooth="yes"/>
      <point x="259.0" y="753.0"/>
      <point x="359.0" y="896.0"/>
      <point x="537.0" y="896.0" type="curve" smooth="yes"/>
      <point x="664.0" y="896.0"/>
      <point x="729.0" y="824.0"/>
      <point x="729.0" y="679.0" type="curve" smooth="yes"/>
      <point x="729.0" y="651.0"/>
      <point x="727.0" y="621.0"/>
      <point x="723.0" y="607.0" type="curve"/>
      <point x="224.0" y="590.0" type="line"/>
      <point x="224.0" y="542.0" type="line"/>
      <point x="901.0" y="542.0" type="line"/>
    </contour>
  </outline>
</glyph>
<glyph name="f" format="2">
  <advance width="618.0"/>
  <unicode hex="0066"/>
  <outline>
    <contour>
      <point x="363.0" y="1030.0" type="line" smooth="yes"/>
      <point x="363.0" y="1181.0"/>
      <point x="375.0" y="1267.0"/>
      <point x="400.0" y="1320.0" type="curve" smooth="yes"/>
      <point x="428.0" y="1382.0"/>
      <point x="477.0" y="1406.0"/>
      <point x="530.0" y="1406.0" type="curve" smooth="yes"/>
      <point x="586.0" y="1406.0"/>
      <point x="605.0" y="1378.0"/>
      <point x="618.0" y="1315.0" type="curve" smooth="yes"/>
      <point x="627.0" y="1271.0"/>
      <point x="646.0" y="1225.0"/>
      <point x="704.0" y="1225.0" type="curve" smooth="yes"/>
      <point x="755.0" y="1225.0"/>
      <point x="790.0" y="1260.0"/>
      <point x="790.0" y="1311.0" type="curve" smooth="yes"/>
      <point x="790.0" y="1397.0"/>
      <point x="690.0" y="1461.0"/>
      <point x="563.0" y="1461.0" type="curve" smooth="yes"/>
      <point x="415.0" y="1461.0"/>
      <point x="269.0" y="1375.0"/>
      <point x="222.0" y="1244.0" type="curve" smooth="yes"/>
      <point x="199.0" y="1181.0"/>
      <point x="195.0" y="1096.0"/>
      <point x="195.0" y="908.0" type="curve" smooth="yes"/>
      <point x="195.0" y="60.0" type="line"/>
      <point x="63.0" y="33.0" type="line"/>
      <point x="63.0" y="0.0" type="line"/>
      <point x="549.0" y="0.0" type="line"/>
      <point x="549.0" y="33.0" type="line"/>
      <point x="363.0" y="60.0" type="line"/>
    </contour>
    <contour>
      <point x="40.0" y="876.0" type="line"/>
      <point x="568.0" y="876.0" type="line"/>
      <point x="590.0" y="933.0" type="line"/>
      <point x="62.0" y="933.0" type="line"/>
    </contour>
  </outline>
</glyph>
<glyph name="g" format="2">
  <advance width="905.0"/>
  <unicode hex="0067"/>
  <anchor x="456.0" y="1146.0" name="top"/>
  <outline>
    <contour>
      <point x="387.0" y="-458.0" type="curve" smooth="yes"/>
      <point x="512.0" y="-458.0"/>
      <point x="665.0" y="-424.0"/>
      <point x="764.0" y="-345.0" type="curve" smooth="yes"/>
      <point x="822.0" y="-297.0"/>
      <point x="861.0" y="-234.0"/>
      <point x="861.0" y="-144.0" type="curve" smooth="yes"/>
      <point x="861.0" y="-65.0"/>
      <point x="831.0" y="37.0"/>
      <point x="637.0" y="81.0" type="curve" smooth="yes"/>
      <point x="516.0" y="109.0"/>
      <point x="259.0" y="130.0"/>
      <point x="259.0" y="227.0" type="curve" smooth="yes"/>
      <point x="259.0" y="287.0"/>
      <point x="359.0" y="331.0"/>
      <point x="449.0" y="338.0" type="curve" smooth="yes"/>
      <point x="656.0" y="354.0"/>
      <point x="799.0" y="495.0"/>
      <point x="799.0" y="649.0" type="curve" smooth="yes"/>
      <point x="799.0" y="732.0"/>
      <point x="759.0" y="813.0"/>
      <point x="690.0" y="869.0" type="curve"/>
      <point x="702.0" y="917.0"/>
      <point x="729.0" y="959.0"/>
      <point x="757.0" y="959.0" type="curve" smooth="yes"/>
      <point x="801.0" y="959.0"/>
      <point x="796.0" y="913.0"/>
      <point x="847.0" y="913.0" type="curve" smooth="yes"/>
      <point x="892.0" y="913.0"/>
      <point x="929.0" y="949.0"/>
      <point x="929.0" y="996.0" type="curve" smooth="yes"/>
      <point x="929.0" y="1051.0"/>
      <point x="880.0" y="1084.0"/>
      <point x="827.0" y="1084.0" type="curve" smooth="yes"/>
      <point x="736.0" y="1084.0"/>
      <point x="681.0" y="979.0"/>
      <point x="653.0" y="894.0" type="curve"/>
      <point x="597.0" y="929.0"/>
      <point x="526.0" y="950.0"/>
      <point x="447.0" y="950.0" type="curve" smooth="yes"/>
      <point x="253.0" y="950.0"/>
      <point x="106.0" y="824.0"/>
      <point x="106.0" y="649.0" type="curve" smooth="yes"/>
      <point x="106.0" y="503.0"/>
      <point x="208.0" y="398.0"/>
      <point x="343.0" y="361.0" type="curve"/>
      <point x="150.0" y="299.0"/>
      <point x="111.0" y="208.0"/>
      <point x="111.0" y="151.0" type="curve" smooth="yes"/>
      <point x="111.0" y="93.0"/>
      <point x="151.0" y="42.0"/>
      <point x="231.0" y="7.0" type="curve"/>
      <point x="70.0" y="-62.0"/>
      <point x="12.0" y="-134.0"/>
      <point x="12.0" y="-227.0" type="curve" smooth="yes"/>
      <point x="12.0" y="-304.0"/>
      <point x="53.0" y="-359.0"/>
      <point x="114.0" y="-396.0" type="curve" smooth="yes"/>
      <point x="192.0" y="-442.0"/>
      <point x="303.0" y="-458.0"/>
    </contour>
    <contour>
      <point x="459.0" y="-51.0" type="curve" smooth="yes"/>
      <point x="665.0" y="-92.0"/>
      <point x="725.0" y="-128.0"/>
      <point x="725.0" y="-211.0" type="curve" smooth="yes"/>
      <point x="725.0" y="-280.0"/>
      <point x="685.0" y="-329.0"/>
      <point x="623.0" y="-359.0" type="curve" smooth="yes"/>
      <point x="567.0" y="-387.0"/>
      <point x="491.0" y="-401.0"/>
      <point x="421.0" y="-401.0" type="curve" smooth="yes"/>
      <point x="347.0" y="-401.0"/>
      <point x="283.0" y="-385.0"/>
      <point x="236.0" y="-354.0" type="curve" smooth="yes"/>
      <point x="185.0" y="-320.0"/>
      <point x="155.0" y="-269.0"/>
      <point x="155.0" y="-206.0" type="curve" smooth="yes"/>
      <point x="155.0" y="-125.0"/>
      <point x="206.0" y="-48.0"/>
      <point x="289.0" y="-11.0" type="curve"/>
      <point x="336.0" y="-25.0"/>
      <point x="398.0" y="-39.0"/>
    </contour>
    <contour>
      <point x="449.0" y="394.0" type="curve" smooth="yes"/>
      <point x="315.0" y="394.0"/>
      <point x="287.0" y="540.0"/>
      <point x="287.0" y="635.0" type="curve" smooth="yes"/>
      <point x="287.0" y="734.0"/>
      <point x="317.0" y="901.0"/>
      <point x="458.0" y="901.0" type="curve" smooth="yes"/>
      <point x="593.0" y="901.0"/>
      <point x="620.0" y="748.0"/>
      <point x="620.0" y="653.0" type="curve" smooth="yes"/>
      <point x="620.0" y="539.0"/>
      <point x="583.0" y="394.0"/>
    </contour>
  </outline>
</glyph>
<glyph name="h" format="2">
  <advance width="1089.0"/>
  <unicode hex="0068"/>
  <anchor x="551.0" y="0.0" name="bottom"/>
  <anchor x="685.0" y="1146.0" name="top"/>
  <outline>
    <contour>
      <point x="341.0" y="62.0" type="line"/>
      <point x="341.0" y="1461.0" type="line"/>
      <point x="324.0" y="1461.0" type="line"/>
      <point x="44.0" y="1376.0" type="line"/>
      <point x="44.0" y="1352.0" type="line"/>
      <point x="174.0" y="1304.0" type="line"/>
      <point x="174.0" y="62.0" type="line"/>
      <point x="40.0" y="35.0" type="line"/>
      <point x="40.0" y="0.0" type="line"/>
      <point x="473.0" y="0.0" type="line"/>
      <point x="473.0" y="35.0" type="line"/>
    </contour>
    <contour>
      <point x="326.0" y="722.0" type="line"/>
      <point x="396.0" y="806.0"/>
      <point x="491.0" y="854.0"/>
      <point x="595.0" y="854.0" type="curve" smooth="yes"/>
      <point x="665.0" y="854.0"/>
      <point x="709.0" y="827.0"/>
      <point x="732.0" y="773.0" type="curve" smooth="yes"/>
      <point x="748.0" y="734.0"/>
      <point x="753.0" y="678.0"/>
      <point x="753.0" y="577.0" type="curve" smooth="yes"/>
      <point x="753.0" y="60.0" type="line"/>
      <point x="621.0" y="35.0" type="line"/>
      <point x="621.0" y="0.0" type="line"/>
      <point x="1052.0" y="0.0" type="line"/>
      <point x="1052.0" y="35.0" type="line"/>
      <point x="920.0" y="60.0" type="line"/>
      <point x="920.0" y="595.0" type="line" smooth="yes"/>
      <point x="920.0" y="764.0"/>
      <point x="917.0" y="808.0"/>
      <point x="898.0" y="845.0" type="curve" smooth="yes"/>
      <point x="864.0" y="910.0"/>
      <point x="787.0" y="950.0"/>
      <point x="693.0" y="950.0" type="curve" smooth="yes"/>
      <point x="570.0" y="950.0"/>
      <point x="436.0" y="892.0"/>
      <point x="326.0" y="790.0" type="curve"/>
    </contour>
  </outline>
</glyph>
<glyph name="i" format="2">
  <advance width="528.0"/>
  <unicode hex="0069"/>
  <anchor x="271.0" y="0.0" name="bottom"/>
  <outline>
    <contour>
      <point x="158.0" y="1258.0" type="curve" smooth="yes"/>
      <point x="158.0" y="1197.0"/>
      <point x="202.0" y="1146.0"/>
      <point x="271.0" y="1146.0" type="curve" smooth="yes"/>
      <point x="341.0" y="1146.0"/>
      <point x="385.0" y="1197.0"/>
      <point x="385.0" y="1258.0" type="curve" smooth="yes"/>
      <point x="385.0" y="1324.0"/>
      <point x="341.0" y="1373.0"/>
      <point x="271.0" y="1373.0" type="curve" smooth="yes"/>
      <point x="202.0" y="1373.0"/>
      <point x="158.0" y="1324.0"/>
    </contour>
    <contour>
      <point x="356.0" y="62.0" type="line"/>
      <point x="356.0" y="950.0" type="line"/>
      <point x="340.0" y="950.0" type="line"/>
      <point x="58.0" y="866.0" type="line"/>
      <point x="58.0" y="841.0" type="line"/>
      <point x="188.0" y="794.0" type="line"/>
      <point x="188.0" y="62.0" type="line"/>
      <point x="55.0" y="35.0" type="line"/>
      <point x="55.0" y="0.0" type="line"/>
      <point x="488.0" y="0.0" type="line"/>
      <point x="488.0" y="35.0" type="line"/>
    </contour>
  </outline>
</glyph>
<glyph name="j" format="2">
  <advance width="493.0"/>
  <unicode hex="006A"/>
  <outline>
    <contour>
      <point x="174.0" y="-84.0" type="line" smooth="yes"/>
      <point x="174.0" y="-280.0"/>
      <point x="127.0" y="-375.0"/>
      <point x="28.0" y="-375.0" type="curve" smooth="yes"/>
      <point x="-16.0" y="-375.0"/>
      <point x="-35.0" y="-356.0"/>
      <point x="-60.0" y="-289.0" type="curve" smooth="yes"/>
      <point x="-79.0" y="-236.0"/>
      <point x="-107.0" y="-208.0"/>
      <point x="-157.0" y="-208.0" type="curve" smooth="yes"/>
      <point x="-215.0" y="-208.0"/>
      <point x="-252.0" y="-248.0"/>
      <point x="-252.0" y="-313.0" type="curve" smooth="yes"/>
      <point x="-252.0" y="-403.0"/>
      <point x="-178.0" y="-458.0"/>
      <point x="-58.0" y="-458.0" type="curve" smooth="yes"/>
      <point x="83.0" y="-458.0"/>
      <point x="202.0" y="-378.0"/>
      <point x="283.0" y="-231.0" type="curve" smooth="yes"/>
      <point x="334.0" y="-137.0"/>
      <point x="341.0" y="-72.0"/>
      <point x="341.0" y="273.0" type="curve" smooth="yes"/>
      <point x="341.0" y="950.0" type="line"/>
      <point x="326.0" y="950.0" type="line"/>
      <point x="44.0" y="866.0" type="line"/>
      <point x="44.0" y="841.0" type="line"/>
      <point x="174.0" y="794.0" type="line"/>
    </contour>
    <contour>
      <point x="144.0" y="1260.0" type="curve" smooth="yes"/>
      <point x="144.0" y="1193.0"/>
      <point x="190.0" y="1146.0"/>
      <point x="257.0" y="1146.0" type="curve" smooth="yes"/>
      <point x="324.0" y="1146.0"/>
      <point x="371.0" y="1193.0"/>
      <point x="371.0" y="1260.0" type="curve" smooth="yes"/>
      <point x="371.0" y="1325.0"/>
      <point x="324.0" y="1373.0"/>
      <point x="257.0" y="1373.0" type="curve" smooth="yes"/>
      <point x="190.0" y="1373.0"/>
      <point x="144.0" y="1325.0"/>
    </contour>
  </outline>
</glyph>
<glyph name="k" format="2">
  <advance width="1040.0"/>
  <unicode hex="006B"/>
  <anchor x="574.0" y="0.0" name="bottom"/>
  <outline>
    <contour>
      <point x="389.0" y="463.0" type="line"/>
      <point x="769.0" y="0.0" type="line"/>
      <point x="1077.0" y="0.0" type="line"/>
      <point x="1077.0" y="35.0" type="line"/>
      <point x="929.0" y="62.0" type="line"/>
      <point x="495.0" y="584.0" type="line"/>
    </contour>
    <contour>
      <point x="336.0" y="62.0" type="line"/>
      <point x="336.0" y="1461.0" type="line"/>
      <point x="319.0" y="1461.0" type="line"/>
      <point x="46.0" y="1375.0" type="line"/>
      <point x="46.0" y="1352.0" type="line"/>
      <point x="174.0" y="1304.0" type="line"/>
      <point x="174.0" y="62.0" type="line"/>
      <point x="40.0" y="35.0" type="line"/>
      <point x="40.0" y="0.0" type="line"/>
      <point x="468.0" y="0.0" type="line"/>
      <point x="468.0" y="35.0" type="line"/>
    </contour>
    <contour>
      <point x="537.0" y="898.0" type="line"/>
      <point x="641.0" y="885.0"/>
      <point x="667.0" y="876.0"/>
      <point x="667.0" y="855.0" type="curve" smooth="yes"/>
      <point x="667.0" y="841.0"/>
      <point x="655.0" y="820.0"/>
      <point x="630.0" y="792.0" type="curve" smooth="yes"/>
      <point x="287.0" y="403.0" type="line"/>
      <point x="297.0" y="319.0" type="line"/>
      <point x="709.0" y="797.0" type="line" smooth="yes"/>
      <point x="762.0" y="859.0"/>
      <point x="788.0" y="871.0"/>
      <point x="931.0" y="898.0" type="curve"/>
      <point x="931.0" y="933.0" type="line"/>
      <point x="537.0" y="933.0" type="line"/>
    </contour>
  </outline>
</glyph>
<glyph name="l" format="2">
  <advance width="509.0"/>
  <unicode hex="006C"/>
  <anchor x="253.0" y="0.0" name="bottom"/>
  <anchor x="253.0" y="1508.0" name="topcap"/>
  <outline>
    <contour>
      <point x="336.0" y="60.0" type="line"/>
      <point x="336.0" y="1461.0" type="line"/>
      <point x="320.0" y="1461.0" type="line"/>
      <point x="51.0" y="1375.0" type="line"/>
      <point x="51.0" y="1352.0" type="line"/>
      <point x="174.0" y="1306.0" type="line"/>
      <point x="174.0" y="60.0" type="line"/>
      <point x="51.0" y="33.0" type="line"/>
      <point x="51.0" y="0.0" type="line"/>
      <point x="458.0" y="0.0" type="line"/>
      <point x="458.0" y="33.0" type="line"/>
    </contour>
  </outline>
</glyph>
<glyph name="m" format="2">
  <advance width="1596.0"/>
  <unicode hex="006D"/>
  <outline>
    <contour>
      <point x="356.0" y="62.0" type="line"/>
      <point x="356.0" y="783.0" type="line"/>
      <point x="348.0" y="792.0" type="line"/>
      <point x="348.0" y="950.0" type="line"/>
      <point x="331.0" y="950.0" type="line"/>
      <point x="58.0" y="864.0" type="line"/>
      <point x="58.0" y="841.0" type="line"/>
      <point x="188.0" y="792.0" type="line"/>
      <point x="188.0" y="62.0" type="line"/>
      <point x="55.0" y="35.0" type="line"/>
      <point x="55.0" y="0.0" type="line"/>
      <point x="488.0" y="0.0" type="line"/>
      <point x="488.0" y="35.0" type="line"/>
    </contour>
    <contour>
      <point x="338.0" y="722.0" type="line"/>
      <point x="400.0" y="806.0"/>
      <point x="488.0" y="854.0"/>
      <point x="581.0" y="854.0" type="curve" smooth="yes"/>
      <point x="642.0" y="854.0"/>
      <point x="681.0" y="827.0"/>
      <point x="700.0" y="773.0" type="curve" smooth="yes"/>
      <point x="711.0" y="734.0"/>
      <point x="722.0" y="678.0"/>
      <point x="722.0" y="577.0" type="curve" smooth="yes"/>
      <point x="722.0" y="60.0" type="line"/>
      <point x="590.0" y="35.0" type="line"/>
      <point x="590.0" y="0.0" type="line"/>
      <point x="1021.0" y="0.0" type="line"/>
      <point x="1021.0" y="35.0" type="line"/>
      <point x="889.0" y="60.0" type="line"/>
      <point x="889.0" y="595.0" type="line" smooth="yes"/>
      <point x="889.0" y="778.0"/>
      <point x="880.0" y="817.0"/>
      <point x="866.0" y="845.0" type="curve" smooth="yes"/>
      <point x="836.0" y="910.0"/>
      <point x="764.0" y="950.0"/>
      <point x="679.0" y="950.0" type="curve" smooth="yes"/>
      <point x="563.0" y="950.0"/>
      <point x="440.0" y="892.0"/>
      <point x="338.0" y="790.0" type="curve"/>
    </contour>
    <contour>
      <point x="871.0" y="722.0" type="line"/>
      <point x="933.0" y="806.0"/>
      <point x="1021.0" y="854.0"/>
      <point x="1114.0" y="854.0" type="curve" smooth="yes"/>
      <point x="1176.0" y="854.0"/>
      <point x="1216.0" y="827.0"/>
      <point x="1234.0" y="773.0" type="curve" smooth="yes"/>
      <point x="1246.0" y="734.0"/>
      <point x="1255.0" y="678.0"/>
      <point x="1255.0" y="577.0" type="curve" smooth="yes"/>
      <point x="1255.0" y="60.0" type="line"/>
      <point x="1123.0" y="35.0" type="line"/>
      <point x="1123.0" y="0.0" type="line"/>
      <point x="1554.0" y="0.0" type="line"/>
      <point x="1554.0" y="35.0" type="line"/>
      <point x="1422.0" y="60.0" type="line"/>
      <point x="1422.0" y="595.0" type="line" smooth="yes"/>
      <point x="1422.0" y="764.0"/>
      <point x="1417.0" y="808.0"/>
      <point x="1399.0" y="845.0" type="curve" smooth="yes"/>
      <point x="1368.0" y="910.0"/>
      <point x="1297.0" y="950.0"/>
      <point x="1213.0" y="950.0" type="curve" smooth="yes"/>
      <point x="1096.0" y="950.0"/>
      <point x="973.0" y="892.0"/>
      <point x="871.0" y="790.0" type="curve"/>
    </contour>
  </outline>
</glyph>
<glyph name="n" format="2">
  <advance width="1075.0"/>
  <unicode hex="006E"/>
  <anchor x="547.0" y="0.0" name="bottom"/>
  <anchor x="551.0" y="1146.0" name="top"/>
  <outline>
    <contour>
      <point x="356.0" y="62.0" type="line"/>
      <point x="356.0" y="783.0" type="line"/>
      <point x="348.0" y="792.0" type="line"/>
      <point x="348.0" y="950.0" type="line"/>
      <point x="331.0" y="950.0" type="line"/>
      <point x="58.0" y="864.0" type="line"/>
      <point x="58.0" y="841.0" type="line"/>
      <point x="188.0" y="792.0" type="line"/>
      <point x="188.0" y="62.0" type="line"/>
      <point x="55.0" y="35.0" type="line"/>
      <point x="55.0" y="0.0" type="line"/>
      <point x="488.0" y="0.0" type="line"/>
      <point x="488.0" y="35.0" type="line"/>
    </contour>
    <contour>
      <point x="338.0" y="722.0" type="line"/>
      <point x="400.0" y="806.0"/>
      <point x="488.0" y="854.0"/>
      <point x="581.0" y="854.0" type="curve" smooth="yes"/>
      <point x="651.0" y="854.0"/>
      <point x="695.0" y="827.0"/>
      <point x="718.0" y="773.0" type="curve" smooth="yes"/>
      <point x="734.0" y="734.0"/>
      <point x="739.0" y="678.0"/>
      <point x="739.0" y="577.0" type="curve" smooth="yes"/>
      <point x="739.0" y="60.0" type="line"/>
      <point x="607.0" y="35.0" type="line"/>
      <point x="607.0" y="0.0" type="line"/>
      <point x="1038.0" y="0.0" type="line"/>
      <point x="1038.0" y="35.0" type="line"/>
      <point x="906.0" y="60.0" type="line"/>
      <point x="906.0" y="595.0" type="line" smooth="yes"/>
      <point x="906.0" y="764.0"/>
      <point x="903.0" y="808.0"/>
      <point x="884.0" y="845.0" type="curve" smooth="yes"/>
      <point x="850.0" y="910.0"/>
      <point x="773.0" y="950.0"/>
      <point x="679.0" y="950.0" type="curve" smooth="yes"/>
      <point x="563.0" y="950.0"/>
      <point x="440.0" y="892.0"/>
      <point x="338.0" y="790.0" type="curve"/>
    </contour>
  </outline>
</glyph>
<glyph name="o" format="2">
  <advance width="1084.0"/>
  <unicode hex="006F"/>
  <anchor x="544.0" y="-4.0" name="bottom"/>
  <anchor x="544.0" y="1146.0" name="top"/>
  <outline>
    <contour>
      <point x="542.0" y="950.0" type="curve" smooth="yes"/>
      <point x="276.0" y="950.0"/>
      <point x="79.0" y="744.0"/>
      <point x="79.0" y="466.0" type="curve" smooth="yes"/>
      <point x="79.0" y="188.0"/>
      <point x="276.0" y="-18.0"/>
      <point x="542.0" y="-18.0" type="curve" smooth="yes"/>
      <point x="808.0" y="-18.0"/>
      <point x="1005.0" y="188.0"/>
      <point x="1005.0" y="466.0" type="curve" smooth="yes"/>
      <point x="1005.0" y="744.0"/>
      <point x="808.0" y="950.0"/>
    </contour>
    <contour>
      <point x="266.0" y="466.0" type="curve" smooth="yes"/>
      <point x="266.0" y="720.0"/>
      <point x="370.0" y="871.0"/>
      <point x="542.0" y="871.0" type="curve" smooth="yes"/>
      <point x="715.0" y="871.0"/>
      <point x="818.0" y="720.0"/>
      <point x="818.0" y="468.0" type="curve" smooth="yes"/>
      <point x="818.0" y="215.0"/>
      <point x="713.0" y="62.0"/>
      <point x="540.0" y="62.0" type="curve" smooth="yes"/>
      <point x="370.0" y="62.0"/>
      <point x="266.0" y="213.0"/>
    </contour>
  </outline>
</glyph>
<glyph name="p" format="2">
  <advance width="1082.0"/>
  <unicode hex="0070"/>
  <outline>
    <contour>
      <point x="340.0" y="9.0" type="line"/>
      <point x="398.0" y="-11.0"/>
      <point x="454.0" y="-18.0"/>
      <point x="510.0" y="-18.0" type="curve" smooth="yes"/>
      <point x="801.0" y="-18.0"/>
      <point x="1000.0" y="187.0"/>
      <point x="1000.0" y="480.0" type="curve" smooth="yes"/>
      <point x="1000.0" y="752.0"/>
      <point x="848.0" y="950.0"/>
      <point x="628.0" y="950.0" type="curve" smooth="yes"/>
      <point x="524.0" y="950.0"/>
      <point x="412.0" y="903.0"/>
      <point x="341.0" y="796.0" type="curve"/>
      <point x="334.0" y="796.0" type="line"/>
      <point x="334.0" y="950.0" type="line"/>
      <point x="315.0" y="950.0" type="line"/>
      <point x="44.0" y="866.0" type="line"/>
      <point x="44.0" y="841.0" type="line"/>
      <point x="172.0" y="794.0" type="line"/>
      <point x="172.0" y="-380.0" type="line"/>
      <point x="40.0" y="-407.0" type="line"/>
      <point x="40.0" y="-440.0" type="line"/>
      <point x="514.0" y="-440.0" type="line"/>
      <point x="514.0" y="-407.0" type="line"/>
      <point x="340.0" y="-380.0" type="line"/>
    </contour>
    <contour>
      <point x="517.0" y="35.0" type="curve" smooth="yes"/>
      <point x="422.0" y="35.0"/>
      <point x="348.0" y="106.0"/>
      <point x="348.0" y="208.0" type="curve" smooth="yes"/>
      <point x="348.0" y="734.0" type="line"/>
      <point x="378.0" y="792.0"/>
      <point x="468.0" y="836.0"/>
      <point x="540.0" y="836.0" type="curve" smooth="yes"/>
      <point x="711.0" y="836.0"/>
      <point x="817.0" y="690.0"/>
      <point x="817.0" y="452.0" type="curve" smooth="yes"/>
      <point x="817.0" y="206.0"/>
      <point x="697.0" y="35.0"/>
    </contour>
  </outline>
</glyph>
<glyph name="q" format="2">
  <advance width="1060.0"/>
  <unicode hex="0071"/>
  <outline>
    <contour>
      <point x="565.0" y="-407.0" type="line"/>
      <point x="565.0" y="-440.0" type="line"/>
      <point x="1038.0" y="-440.0" type="line"/>
      <point x="1038.0" y="-407.0" type="line"/>
      <point x="906.0" y="-380.0" type="line"/>
      <point x="906.0" y="929.0" type="line"/>
      <point x="878.0" y="929.0" type="line"/>
      <point x="799.0" y="869.0" type="line"/>
      <point x="790.0" y="869.0" type="line"/>
      <point x="720.0" y="922.0"/>
      <point x="635.0" y="950.0"/>
      <point x="547.0" y="950.0" type="curve" smooth="yes"/>
      <point x="269.0" y="950.0"/>
      <point x="83.0" y="750.0"/>
      <point x="83.0" y="428.0" type="curve" smooth="yes"/>
      <point x="83.0" y="164.0"/>
      <point x="241.0" y="-18.0"/>
      <point x="472.0" y="-18.0" type="curve" smooth="yes"/>
      <point x="576.0" y="-18.0"/>
      <point x="665.0" y="23.0"/>
      <point x="739.0" y="102.0" type="curve"/>
      <point x="739.0" y="-380.0" type="line"/>
    </contour>
    <contour>
      <point x="547.0" y="894.0" type="curve" smooth="yes"/>
      <point x="664.0" y="894.0"/>
      <point x="739.0" y="806.0"/>
      <point x="739.0" y="672.0" type="curve" smooth="yes"/>
      <point x="739.0" y="169.0" type="line"/>
      <point x="693.0" y="113.0"/>
      <point x="625.0" y="77.0"/>
      <point x="546.0" y="77.0" type="curve" smooth="yes"/>
      <point x="375.0" y="77.0"/>
      <point x="271.0" y="229.0"/>
      <point x="271.0" y="477.0" type="curve" smooth="yes"/>
      <point x="271.0" y="755.0"/>
      <point x="384.0" y="894.0"/>
    </contour>
  </outline>
</glyph>
<glyph name="r" format="2">
  <advance width="730.0"/>
  <unicode hex="0072"/>
  <anchor x="273.0" y="-4.0" name="bottom"/>
  <anchor x="414.0" y="1146.0" name="top"/>
  <outline>
    <contour>
      <point x="357.0" y="678.0" type="line"/>
      <point x="363.0" y="700.0"/>
      <point x="368.0" y="709.0"/>
      <point x="408.0" y="764.0" type="curve" smooth="yes"/>
      <point x="431.0" y="796.0"/>
      <point x="451.0" y="808.0"/>
      <point x="479.0" y="808.0" type="curve" smooth="yes"/>
      <point x="500.0" y="808.0"/>
      <point x="512.0" y="801.0"/>
      <point x="533.0" y="774.0" type="curve" smooth="yes"/>
      <point x="549.0" y="753.0"/>
      <point x="574.0" y="741.0"/>
      <point x="600.0" y="741.0" type="curve" smooth="yes"/>
      <point x="658.0" y="741.0"/>
      <point x="702.0" y="785.0"/>
      <point x="702.0" y="841.0" type="curve" smooth="yes"/>
      <point x="702.0" y="903.0"/>
      <point x="653.0" y="952.0"/>
      <point x="591.0" y="952.0" type="curve" smooth="yes"/>
      <point x="516.0" y="952.0"/>
      <point x="428.0" y="878.0"/>
      <point x="341.0" y="746.0" type="curve"/>
    </contour>
    <contour>
      <point x="357.0" y="62.0" type="line"/>
      <point x="357.0" y="746.0" type="line"/>
      <point x="350.0" y="755.0" type="line"/>
      <point x="350.0" y="952.0" type="line"/>
      <point x="333.0" y="952.0" type="line"/>
      <point x="60.0" y="866.0" type="line"/>
      <point x="60.0" y="843.0" type="line"/>
      <point x="190.0" y="794.0" type="line"/>
      <point x="190.0" y="62.0" type="line"/>
      <point x="56.0" y="35.0" type="line"/>
      <point x="56.0" y="0.0" type="line"/>
      <point x="533.0" y="0.0" type="line"/>
      <point x="533.0" y="35.0" type="line"/>
    </contour>
  </outline>
</glyph>
<glyph name="s" format="2">
  <advance width="766.0"/>
  <unicode hex="0073"/>
  <anchor x="359.0" y="0.0" name="bottom"/>
  <anchor x="403.0" y="1146.0" name="top"/>
  <outline>
    <contour>
      <point x="429.0" y="950.0" type="curve" smooth="yes"/>
      <point x="220.0" y="950.0"/>
      <point x="102.0" y="857.0"/>
      <point x="102.0" y="693.0" type="curve" smooth="yes"/>
      <point x="102.0" y="378.0"/>
      <point x="544.0" y="444.0"/>
      <point x="544.0" y="197.0" type="curve" smooth="yes"/>
      <point x="544.0" y="99.0"/>
      <point x="475.0" y="35.0"/>
      <point x="370.0" y="35.0" type="curve" smooth="yes"/>
      <point x="236.0" y="35.0"/>
      <point x="160.0" y="128.0"/>
      <point x="144.0" y="306.0" type="curve"/>
      <point x="102.0" y="306.0" type="line"/>
      <point x="113.0" y="21.0" type="line"/>
      <point x="181.0" y="-2.0"/>
      <point x="282.0" y="-18.0"/>
      <point x="356.0" y="-18.0" type="curve" smooth="yes"/>
      <point x="554.0" y="-18.0"/>
      <point x="679.0" y="93.0"/>
      <point x="679.0" y="268.0" type="curve" smooth="yes"/>
      <point x="679.0" y="597.0"/>
      <point x="241.0" y="523.0"/>
      <point x="241.0" y="755.0" type="curve" smooth="yes"/>
      <point x="241.0" y="843.0"/>
      <point x="301.0" y="898.0"/>
      <point x="394.0" y="898.0" type="curve" smooth="yes"/>
      <point x="514.0" y="898.0"/>
      <point x="583.0" y="822.0"/>
      <point x="600.0" y="676.0" type="curve"/>
      <point x="637.0" y="676.0" type="line"/>
      <point x="637.0" y="920.0" type="line"/>
      <point x="593.0" y="938.0"/>
      <point x="509.0" y="950.0"/>
    </contour>
  </outline>
</glyph>
<glyph name="t" format="2">
  <advance width="616.0"/>
  <unicode hex="0074"/>
  <anchor x="370.0" y="0.0" name="bottom"/>
  <outline>
    <contour>
      <point x="364.0" y="-18.0" type="curve" smooth="yes"/>
      <point x="459.0" y="-18.0"/>
      <point x="551.0" y="33.0"/>
      <point x="604.0" y="114.0" type="curve"/>
      <point x="574.0" y="137.0" type="line"/>
      <point x="539.0" y="93.0"/>
      <point x="488.0" y="65.0"/>
      <point x="440.0" y="65.0" type="curve" smooth="yes"/>
      <point x="401.0" y="65.0"/>
      <point x="370.0" y="83.0"/>
      <point x="352.0" y="114.0" type="curve" smooth="yes"/>
      <point x="340.0" y="136.0"/>
      <point x="336.0" y="162.0"/>
      <point x="336.0" y="248.0" type="curve" smooth="yes"/>
      <point x="336.0" y="871.0" type="line"/>
      <point x="574.0" y="871.0" type="line"/>
      <point x="588.0" y="933.0" type="line"/>
      <point x="336.0" y="933.0" type="line"/>
      <point x="336.0" y="1160.0" type="line"/>
      <point x="304.0" y="1163.0" type="line"/>
      <point x="51.0" y="899.0" type="line"/>
      <point x="55.0" y="871.0" type="line"/>
      <point x="169.0" y="871.0" type="line"/>
      <point x="169.0" y="232.0" type="line" smooth="yes"/>
      <point x="169.0" y="125.0"/>
      <point x="185.0" y="70.0"/>
      <point x="227.0" y="32.0" type="curve" smooth="yes"/>
      <point x="260.0" y="0.0"/>
      <point x="310.0" y="-18.0"/>
    </contour>
  </outline>
</glyph>
<glyph name="u" format="2">
  <advance width="1052.0"/>
  <unicode hex="0075"/>
  <anchor x="746.0" y="0.0" name="bottom"/>
  <anchor x="519.0" y="1146.0" name="top"/>
  <outline>
    <contour>
      <point x="711.0" y="206.0" type="line"/>
      <point x="648.0" y="123.0"/>
      <point x="565.0" y="77.0"/>
      <point x="482.0" y="77.0" type="curve" smooth="yes"/>
      <point x="422.0" y="77.0"/>
      <point x="377.0" y="102.0"/>
      <point x="359.0" y="143.0" type="curve" smooth="yes"/>
      <point x="343.0" y="178.0"/>
      <point x="338.0" y="231.0"/>
      <point x="338.0" y="340.0" type="curve" smooth="yes"/>
      <point x="338.0" y="933.0" type="line"/>
      <point x="39.0" y="933.0" type="line"/>
      <point x="39.0" y="898.0" type="line"/>
      <point x="171.0" y="871.0" type="line"/>
      <point x="171.0" y="340.0" type="line" smooth="yes"/>
      <point x="171.0" y="178.0"/>
      <point x="176.0" y="132.0"/>
      <point x="195.0" y="90.0" type="curve" smooth="yes"/>
      <point x="229.0" y="21.0"/>
      <point x="301.0" y="-18.0"/>
      <point x="396.0" y="-18.0" type="curve" smooth="yes"/>
      <point x="514.0" y="-18.0"/>
      <point x="627.0" y="40.0"/>
      <point x="711.0" y="144.0" type="curve"/>
    </contour>
    <contour>
      <point x="708.0" y="871.0" type="line"/>
      <point x="708.0" y="158.0" type="line"/>
      <point x="711.0" y="144.0" type="line"/>
      <point x="718.0" y="143.0" type="line"/>
      <point x="718.0" y="-18.0" type="line"/>
      <point x="730.0" y="-18.0" type="line"/>
      <point x="994.0" y="69.0" type="line"/>
      <point x="994.0" y="90.0" type="line"/>
      <point x="875.0" y="132.0" type="line"/>
      <point x="875.0" y="933.0" type="line"/>
      <point x="576.0" y="933.0" type="line"/>
      <point x="576.0" y="898.0" type="line"/>
    </contour>
  </outline>
</glyph>
<glyph name="v" format="2">
  <advance width="996.0"/>
  <unicode hex="0076"/>
  <outline>
    <contour>
      <point x="540.0" y="-18.0" type="line"/>
      <point x="815.0" y="762.0" type="line" smooth="yes"/>
      <point x="845.0" y="848.0"/>
      <point x="862.0" y="876.0"/>
      <point x="994.0" y="898.0" type="curve"/>
      <point x="994.0" y="933.0" type="line"/>
      <point x="637.0" y="933.0" type="line"/>
      <point x="637.0" y="898.0" type="line"/>
      <point x="743.0" y="882.0"/>
      <point x="762.0" y="869.0"/>
      <point x="762.0" y="834.0" type="curve" smooth="yes"/>
      <point x="762.0" y="818.0"/>
      <point x="757.0" y="796.0"/>
      <point x="746.0" y="764.0" type="curve" smooth="yes"/>
      <point x="556.0" y="218.0" type="line"/>
      <point x="549.0" y="218.0" type="line"/>
      <point x="347.0" y="803.0" type="line" smooth="yes"/>
      <point x="340.0" y="824.0"/>
      <point x="336.0" y="841.0"/>
      <point x="336.0" y="855.0" type="curve" smooth="yes"/>
      <point x="336.0" y="882.0"/>
      <point x="357.0" y="894.0"/>
      <point x="458.0" y="898.0" type="curve"/>
      <point x="458.0" y="933.0" type="line"/>
      <point x="21.0" y="933.0" type="line"/>
      <point x="21.0" y="898.0" type="line"/>
      <point x="109.0" y="891.0"/>
      <point x="127.0" y="878.0"/>
      <point x="148.0" y="822.0" type="curve" smooth="yes"/>
      <point x="463.0" y="-18.0" type="line"/>
    </contour>
  </outline>
</glyph>
<glyph name="w" format="2">
  <advance width="1494.0"/>
  <unicode hex="0077"/>
  <anchor x="773.0" y="1146.0" name="top"/>
  <outline>
    <contour>
      <point x="727.0" y="764.0" type="line"/>
      <point x="537.0" y="218.0" type="line"/>
      <point x="530.0" y="218.0" type="line"/>
      <point x="354.0" y="803.0" type="line" smooth="yes"/>
      <point x="347.0" y="825.0"/>
      <point x="338.0" y="847.0"/>
      <point x="338.0" y="859.0" type="curve" smooth="yes"/>
      <point x="338.0" y="885.0"/>
      <point x="357.0" y="891.0"/>
      <point x="465.0" y="898.0" type="curve"/>
      <point x="465.0" y="933.0" type="line"/>
      <point x="28.0" y="933.0" type="line"/>
      <point x="28.0" y="898.0" type="line"/>
      <point x="116.0" y="891.0"/>
      <point x="136.0" y="878.0"/>
      <point x="155.0" y="822.0" type="curve" smooth="yes"/>
      <point x="444.0" y="-18.0" type="line"/>
      <point x="521.0" y="-18.0" type="line"/>
      <point x="796.0" y="762.0" type="line"/>
    </contour>
    <contour>
      <point x="1044.0" y="-18.0" type="line"/>
      <point x="1318.0" y="762.0" type="line" smooth="yes"/>
      <point x="1348.0" y="848.0"/>
      <point x="1366.0" y="876.0"/>
      <point x="1498.0" y="898.0" type="curve"/>
      <point x="1498.0" y="933.0" type="line"/>
      <point x="1140.0" y="933.0" type="line"/>
      <point x="1140.0" y="898.0" type="line"/>
      <point x="1236.0" y="884.0"/>
      <point x="1265.0" y="869.0"/>
      <point x="1265.0" y="832.0" type="curve" smooth="yes"/>
      <point x="1265.0" y="815.0"/>
      <point x="1260.0" y="792.0"/>
      <point x="1250.0" y="764.0" type="curve" smooth="yes"/>
      <point x="1060.0" y="218.0" type="line"/>
      <point x="1052.0" y="218.0" type="line"/>
      <point x="876.0" y="803.0" type="line" smooth="yes"/>
      <point x="869.0" y="825.0"/>
      <point x="861.0" y="847.0"/>
      <point x="861.0" y="859.0" type="curve" smooth="yes"/>
      <point x="861.0" y="885.0"/>
      <point x="880.0" y="891.0"/>
      <point x="987.0" y="898.0" type="curve"/>
      <point x="987.0" y="933.0" type="line"/>
      <point x="586.0" y="933.0" type="line"/>
      <point x="586.0" y="898.0" type="line"/>
      <point x="649.0" y="891.0"/>
      <point x="681.0" y="878.0"/>
      <point x="695.0" y="822.0" type="curve" smooth="yes"/>
      <point x="966.0" y="-18.0" type="line"/>
    </contour>
  </outline>
</glyph>
<glyph name="x" format="2">
  <advance width="1019.0"/>
  <unicode hex="0078"/>
  <outline>
    <contour>
      <point x="417.0" y="803.0" type="line" smooth="yes"/>
      <point x="400.0" y="829.0"/>
      <point x="391.0" y="847.0"/>
      <point x="391.0" y="861.0" type="curve" smooth="yes"/>
      <point x="391.0" y="880.0"/>
      <point x="414.0" y="892.0"/>
      <point x="484.0" y="898.0" type="curve"/>
      <point x="484.0" y="933.0" type="line"/>
      <point x="42.0" y="933.0" type="line"/>
      <point x="42.0" y="898.0" type="line"/>
      <point x="141.0" y="884.0"/>
      <point x="174.0" y="871.0"/>
      <point x="206.0" y="822.0" type="curve" smooth="yes"/>
      <point x="655.0" y="130.0" type="line" smooth="yes"/>
      <point x="678.0" y="95.0"/>
      <point x="683.0" y="83.0"/>
      <point x="683.0" y="72.0" type="curve" smooth="yes"/>
      <point x="683.0" y="49.0"/>
      <point x="664.0" y="44.0"/>
      <point x="579.0" y="35.0" type="curve"/>
      <point x="579.0" y="0.0" type="line"/>
      <point x="1017.0" y="0.0" type="line"/>
      <point x="1017.0" y="35.0" type="line"/>
      <point x="929.0" y="44.0"/>
      <point x="898.0" y="62.0"/>
      <point x="866.0" y="111.0" type="curve" smooth="yes"/>
    </contour>
    <contour>
      <point x="470.0" y="488.0" type="line"/>
      <point x="231.0" y="160.0" type="line" smooth="yes"/>
      <point x="174.0" y="83.0"/>
      <point x="118.0" y="53.0"/>
      <point x="0.0" y="35.0" type="curve"/>
      <point x="0.0" y="0.0" type="line"/>
      <point x="389.0" y="0.0" type="line"/>
      <point x="389.0" y="35.0" type="line"/>
      <point x="308.0" y="46.0"/>
      <point x="275.0" y="67.0"/>
      <point x="275.0" y="99.0" type="curve" smooth="yes"/>
      <point x="275.0" y="113.0"/>
      <point x="282.0" y="130.0"/>
      <point x="306.0" y="162.0" type="curve" smooth="yes"/>
      <point x="530.0" y="456.0" type="line"/>
    </contour>
    <contour>
      <point x="553.0" y="484.0" type="line"/>
      <point x="780.0" y="778.0" type="line" smooth="yes"/>
      <point x="840.0" y="855.0"/>
      <point x="875.0" y="875.0"/>
      <point x="987.0" y="898.0" type="curve"/>
      <point x="987.0" y="933.0" type="line"/>
      <point x="625.0" y="933.0" type="line"/>
      <point x="625.0" y="898.0" type="line"/>
      <point x="697.0" y="885.0"/>
      <point x="727.0" y="864.0"/>
      <point x="727.0" y="838.0" type="curve" smooth="yes"/>
      <point x="727.0" y="818.0"/>
      <point x="723.0" y="808.0"/>
      <point x="695.0" y="771.0" type="curve" smooth="yes"/>
      <point x="493.0" y="507.0" type="line"/>
    </contour>
  </outline>
</glyph>
<glyph name="y" format="2">
  <advance width="1007.0"/>
  <unicode hex="0079"/>
  <anchor x="568.0" y="1146.0" name="top"/>
  <outline>
    <contour>
      <point x="563.0" y="253.0" type="line"/>
      <point x="348.0" y="810.0" type="line" smooth="yes"/>
      <point x="340.0" y="832.0"/>
      <point x="334.0" y="850.0"/>
      <point x="334.0" y="862.0" type="curve" smooth="yes"/>
      <point x="334.0" y="885.0"/>
      <point x="357.0" y="892.0"/>
      <point x="451.0" y="898.0" type="curve"/>
      <point x="451.0" y="933.0" type="line"/>
      <point x="16.0" y="933.0" type="line"/>
      <point x="16.0" y="898.0" type="line"/>
      <point x="86.0" y="891.0"/>
      <point x="120.0" y="871.0"/>
      <point x="141.0" y="827.0" type="curve" smooth="yes"/>
      <point x="484.0" y="-14.0" type="line"/>
      <point x="412.0" y="-236.0" type="line" smooth="yes"/>
      <point x="377.0" y="-340.0"/>
      <point x="347.0" y="-382.0"/>
      <point x="308.0" y="-382.0" type="curve" smooth="yes"/>
      <point x="285.0" y="-382.0"/>
      <point x="278.0" y="-373.0"/>
      <point x="273.0" y="-329.0" type="curve" smooth="yes"/>
      <point x="262.0" y="-271.0"/>
      <point x="238.0" y="-248.0"/>
      <point x="192.0" y="-248.0" type="curve" smooth="yes"/>
      <point x="132.0" y="-248.0"/>
      <point x="93.0" y="-285.0"/>
      <point x="93.0" y="-340.0" type="curve" smooth="yes"/>
      <point x="93.0" y="-410.0"/>
      <point x="151.0" y="-458.0"/>
      <point x="238.0" y="-458.0" type="curve" smooth="yes"/>
      <point x="297.0" y="-458.0"/>
      <point x="352.0" y="-436.0"/>
      <point x="387.0" y="-398.0" type="curve" smooth="yes"/>
      <point x="415.0" y="-370.0"/>
      <point x="445.0" y="-322.0"/>
      <point x="470.0" y="-248.0" type="curve" smooth="yes"/>
      <point x="813.0" y="757.0" type="line" smooth="yes"/>
      <point x="845.0" y="852.0"/>
      <point x="875.0" y="875.0"/>
      <point x="1010.0" y="898.0" type="curve"/>
      <point x="1010.0" y="933.0" type="line"/>
      <point x="614.0" y="933.0" type="line"/>
      <point x="614.0" y="898.0" type="line"/>
      <point x="711.0" y="892.0"/>
      <point x="750.0" y="864.0"/>
      <point x="750.0" y="822.0" type="curve" smooth="yes"/>
      <point x="750.0" y="806.0"/>
      <point x="746.0" y="783.0"/>
      <point x="737.0" y="759.0" type="curve" smooth="yes"/>
      <point x="572.0" y="253.0" type="line"/>
    </contour>
  </outline>
</glyph>
<glyph name="z" format="2">
  <advance width="903.0"/>
  <unicode hex="007A"/>
  <anchor x="452.0" y="0.0" name="bottom"/>
  <anchor x="459.0" y="1146.0" name="top"/>
  <outline>
    <contour>
      <point x="125.0" y="933.0" type="line"/>
      <point x="104.0" y="584.0" type="line"/>
      <point x="141.0" y="583.0" type="line"/>
      <point x="151.0" y="639.0"/>
      <point x="172.0" y="716.0"/>
      <point x="229.0" y="876.0" type="curve"/>
      <point x="618.0" y="876.0" type="line"/>
      <point x="69.0" y="49.0" type="line"/>
      <point x="69.0" y="0.0" type="line"/>
      <point x="792.0" y="0.0" type="line"/>
      <point x="804.0" y="336.0" type="line"/>
      <point x="767.0" y="341.0" type="line"/>
      <point x="753.0" y="271.0"/>
      <point x="722.0" y="158.0"/>
      <point x="681.0" y="56.0" type="curve"/>
      <point x="273.0" y="56.0" type="line"/>
      <point x="829.0" y="885.0" type="line"/>
      <point x="829.0" y="933.0" type="line"/>
    </contour>
  </outline>
</glyph>
<glyph name="braceleft" format="2">
  <advance width="576.0"/>
  <unicode hex="007B"/>
  <outline>
    <contour>
      <point x="524.0" y="-317.0" type="line"/>
      <point x="482.0" y="-333.0"/>
      <point x="445.0" y="-341.0"/>
      <point x="400.0" y="-341.0" type="curve" smooth="yes"/>
      <point x="243.0" y="-341.0"/>
      <point x="174.0" y="-278.0"/>
      <point x="174.0" y="-123.0" type="curve" smooth="yes"/>
      <point x="174.0" y="4.0"/>
      <point x="220.0" y="187.0"/>
      <point x="220.0" y="341.0" type="curve" smooth="yes"/>
      <point x="220.0" y="502.0"/>
      <point x="176.0" y="563.0"/>
      <point x="51.0" y="563.0" type="curve"/>
      <point x="51.0" y="604.0" type="line"/>
      <point x="172.0" y="604.0"/>
      <point x="220.0" y="669.0"/>
      <point x="220.0" y="815.0" type="curve" smooth="yes"/>
      <point x="220.0" y="949.0"/>
      <point x="174.0" y="1128.0"/>
      <point x="174.0" y="1234.0" type="curve" smooth="yes"/>
      <point x="174.0" y="1378.0"/>
      <point x="260.0" y="1457.0"/>
      <point x="412.0" y="1457.0" type="curve" smooth="yes"/>
      <point x="454.0" y="1457.0"/>
      <point x="489.0" y="1448.0"/>
      <point x="524.0" y="1434.0" type="curve"/>
      <point x="514.0" y="1389.0" type="line"/>
      <point x="475.0" y="1396.0"/>
      <point x="461.0" y="1397.0"/>
      <point x="442.0" y="1397.0" type="curve" smooth="yes"/>
      <point x="366.0" y="1397.0"/>
      <point x="326.0" y="1332.0"/>
      <point x="326.0" y="1230.0" type="curve" smooth="yes"/>
      <point x="326.0" y="1133.0"/>
      <point x="370.0" y="947.0"/>
      <point x="370.0" y="817.0" type="curve" smooth="yes"/>
      <point x="370.0" y="692.0"/>
      <point x="329.0" y="618.0"/>
      <point x="243.0" y="584.0" type="curve"/>
      <point x="243.0" y="577.0" type="line"/>
      <point x="333.0" y="542.0"/>
      <point x="370.0" y="480.0"/>
      <point x="370.0" y="356.0" type="curve" smooth="yes"/>
      <point x="370.0" y="220.0"/>
      <point x="326.0" y="-9.0"/>
      <point x="326.0" y="-114.0" type="curve" smooth="yes"/>
      <point x="326.0" y="-229.0"/>
      <point x="361.0" y="-276.0"/>
      <point x="442.0" y="-276.0" type="curve" smooth="yes"/>
      <point x="468.0" y="-276.0"/>
      <point x="491.0" y="-273.0"/>
      <point x="514.0" y="-266.0" type="curve"/>
    </contour>
  </outline>
</glyph>
<glyph name="bar" format="2">
  <advance width="479.0"/>
  <unicode hex="007C"/>
  <outline>
    <contour>
      <point x="301.0" y="-299.0" type="line"/>
      <point x="301.0" y="1441.0" type="line"/>
      <point x="178.0" y="1441.0" type="line"/>
      <point x="178.0" y="-299.0" type="line"/>
    </contour>
  </outline>
</glyph>
<glyph name="braceright" format="2">
  <advance width="576.0"/>
  <unicode hex="007D"/>
  <outline>
    <contour>
      <point x="62.0" y="-266.0" type="line"/>
      <point x="84.0" y="-273.0"/>
      <point x="107.0" y="-276.0"/>
      <point x="134.0" y="-276.0" type="curve" smooth="yes"/>
      <point x="215.0" y="-276.0"/>
      <point x="250.0" y="-229.0"/>
      <point x="250.0" y="-114.0" type="curve" smooth="yes"/>
      <point x="250.0" y="-9.0"/>
      <point x="206.0" y="220.0"/>
      <point x="206.0" y="356.0" type="curve" smooth="yes"/>
      <point x="206.0" y="480.0"/>
      <point x="243.0" y="542.0"/>
      <point x="333.0" y="577.0" type="curve"/>
      <point x="333.0" y="584.0" type="line"/>
      <point x="246.0" y="618.0"/>
      <point x="206.0" y="692.0"/>
      <point x="206.0" y="817.0" type="curve" smooth="yes"/>
      <point x="206.0" y="947.0"/>
      <point x="250.0" y="1133.0"/>
      <point x="250.0" y="1230.0" type="curve" smooth="yes"/>
      <point x="250.0" y="1332.0"/>
      <point x="209.0" y="1397.0"/>
      <point x="134.0" y="1397.0" type="curve" smooth="yes"/>
      <point x="114.0" y="1397.0"/>
      <point x="100.0" y="1396.0"/>
      <point x="62.0" y="1389.0" type="curve"/>
      <point x="51.0" y="1434.0" type="line"/>
      <point x="86.0" y="1448.0"/>
      <point x="121.0" y="1457.0"/>
      <point x="164.0" y="1457.0" type="curve" smooth="yes"/>
      <point x="315.0" y="1457.0"/>
      <point x="401.0" y="1378.0"/>
      <point x="401.0" y="1234.0" type="curve" smooth="yes"/>
      <point x="401.0" y="1128.0"/>
      <point x="356.0" y="949.0"/>
      <point x="356.0" y="815.0" type="curve" smooth="yes"/>
      <point x="356.0" y="669.0"/>
      <point x="403.0" y="604.0"/>
      <point x="524.0" y="604.0" type="curve"/>
      <point x="524.0" y="563.0" type="line"/>
      <point x="400.0" y="563.0"/>
      <point x="356.0" y="502.0"/>
      <point x="356.0" y="341.0" type="curve" smooth="yes"/>
      <point x="356.0" y="187.0"/>
      <point x="401.0" y="4.0"/>
      <point x="401.0" y="-123.0" type="curve" smooth="yes"/>
      <point x="401.0" y="-278.0"/>
      <point x="333.0" y="-341.0"/>
      <point x="176.0" y="-341.0" type="curve" smooth="yes"/>
      <point x="130.0" y="-341.0"/>
      <point x="93.0" y="-333.0"/>
      <point x="51.0" y="-317.0" type="curve"/>
    </contour>
  </outline>
</glyph>
<glyph name="asciitilde" format="2">
  <advance width="1035.0"/>
  <unicode hex="007E"/>
  <outline>
    <contour>
      <point x="141.0" y="392.0" type="line"/>
      <point x="141.0" y="484.0"/>
      <point x="187.0" y="632.0"/>
      <point x="348.0" y="632.0" type="curve" smooth="yes"/>
      <point x="475.0" y="632.0"/>
      <point x="595.0" y="540.0"/>
      <point x="725.0" y="540.0" type="curve" smooth="yes"/>
      <point x="804.0" y="540.0"/>
      <point x="829.0" y="577.0"/>
      <point x="845.0" y="632.0" type="curve"/>
      <point x="898.0" y="632.0" type="line"/>
      <point x="898.0" y="540.0"/>
      <point x="852.0" y="392.0"/>
      <point x="690.0" y="392.0" type="curve" smooth="yes"/>
      <point x="565.0" y="392.0"/>
      <point x="442.0" y="486.0"/>
      <point x="313.0" y="486.0" type="curve" smooth="yes"/>
      <point x="234.0" y="486.0"/>
      <point x="209.0" y="447.0"/>
      <point x="194.0" y="392.0" type="curve"/>
    </contour>
  </outline>
</glyph>
<glyph name="exclamdown" format="2">
  <advance width="480.0"/>
  <unicode hex="00A1"/>
  <outline>
    <contour>
      <point x="213.0" y="528.0" type="line"/>
      <point x="202.0" y="340.0"/>
      <point x="185.0" y="162.0"/>
      <point x="169.0" y="18.0" type="curve" smooth="yes"/>
      <point x="150.0" y="-151.0"/>
      <point x="134.0" y="-278.0"/>
      <point x="134.0" y="-324.0" type="curve" smooth="yes"/>
      <point x="134.0" y="-387.0"/>
      <point x="164.0" y="-440.0"/>
      <point x="239.0" y="-440.0" type="curve" smooth="yes"/>
      <point x="308.0" y="-440.0"/>
      <point x="347.0" y="-387.0"/>
      <point x="347.0" y="-319.0" type="curve" smooth="yes"/>
      <point x="347.0" y="-275.0"/>
      <point x="331.0" y="-148.0"/>
      <point x="312.0" y="25.0" type="curve" smooth="yes"/>
      <point x="296.0" y="167.0"/>
      <point x="280.0" y="341.0"/>
      <point x="268.0" y="528.0" type="curve"/>
    </contour>
    <contour>
      <point x="354.0" y="838.0" type="curve" smooth="yes"/>
      <point x="354.0" y="899.0"/>
      <point x="310.0" y="950.0"/>
      <point x="241.0" y="950.0" type="curve" smooth="yes"/>
      <point x="169.0" y="950.0"/>
      <point x="125.0" y="899.0"/>
      <point x="125.0" y="838.0" type="curve" smooth="yes"/>
      <point x="125.0" y="771.0"/>
      <point x="169.0" y="722.0"/>
      <point x="241.0" y="722.0" type="curve" smooth="yes"/>
      <point x="310.0" y="722.0"/>
      <point x="354.0" y="771.0"/>
    </contour>
  </outline>
</glyph>
<glyph name="cent" format="2">
  <advance width="975.0"/>
  <unicode hex="00A2"/>
  <outline>
    <contour>
      <point x="560.0" y="950.0" type="curve" smooth="yes"/>
      <point x="285.0" y="950.0"/>
      <point x="92.0" y="744.0"/>
      <point x="92.0" y="454.0" type="curve" smooth="yes"/>
      <point x="92.0" y="176.0"/>
      <point x="269.0" y="-18.0"/>
      <point x="521.0" y="-18.0" type="curve" smooth="yes"/>
      <point x="692.0" y="-18.0"/>
      <point x="824.0" y="70.0"/>
      <point x="884.0" y="225.0" type="curve" smooth="yes"/>
      <point x="892.0" y="248.0" type="line"/>
      <point x="859.0" y="266.0" type="line"/>
      <point x="840.0" y="239.0" type="line" smooth="yes"/>
      <point x="776.0" y="153.0"/>
      <point x="679.0" y="111.0"/>
      <point x="574.0" y="111.0" type="curve" smooth="yes"/>
      <point x="382.0" y="111.0"/>
      <point x="271.0" y="250.0"/>
      <point x="271.0" y="489.0" type="curve" smooth="yes"/>
      <point x="271.0" y="736.0"/>
      <point x="398.0" y="894.0"/>
      <point x="532.0" y="894.0" type="curve" smooth="yes"/>
      <point x="635.0" y="894.0"/>
      <point x="693.0" y="857.0"/>
      <point x="709.0" y="753.0" type="curve" smooth="yes"/>
      <point x="722.0" y="678.0"/>
      <point x="752.0" y="642.0"/>
      <point x="813.0" y="642.0" type="curve" smooth="yes"/>
      <point x="864.0" y="642.0"/>
      <point x="894.0" y="683.0"/>
      <point x="894.0" y="743.0" type="curve" smooth="yes"/>
      <point x="894.0" y="855.0"/>
      <point x="750.0" y="950.0"/>
    </contour>
    <contour>
      <point x="570.0" y="1179.0" type="line"/>
      <point x="496.0" y="1179.0" type="line"/>
      <point x="496.0" y="-229.0" type="line"/>
      <point x="570.0" y="-229.0" type="line"/>
    </contour>
  </outline>
</glyph>
<glyph name="sterling" format="2">
  <advance width="1193.0"/>
  <unicode hex="00A3"/>
  <outline>
    <contour>
      <point x="229.0" y="567.0" type="line"/>
      <point x="229.0" y="644.0" type="line"/>
      <point x="438.0" y="644.0" type="line"/>
      <point x="480.0" y="850.0" type="line" smooth="yes"/>
      <point x="551.0" y="1200.0"/>
      <point x="678.0" y="1364.0"/>
      <point x="876.0" y="1364.0" type="curve" smooth="yes"/>
      <point x="1001.0" y="1364.0"/>
      <point x="1091.0" y="1308.0"/>
      <point x="1091.0" y="1230.0" type="curve" smooth="yes"/>
      <point x="1091.0" y="1172.0"/>
      <point x="1045.0" y="1128.0"/>
      <point x="989.0" y="1128.0" type="curve" smooth="yes"/>
      <point x="880.0" y="1128.0"/>
      <point x="899.0" y="1280.0"/>
      <point x="817.0" y="1280.0" type="curve" smooth="yes"/>
      <point x="764.0" y="1280.0"/>
      <point x="739.0" y="1190.0"/>
      <point x="667.0" y="757.0" type="curve" smooth="yes"/>
      <point x="648.0" y="644.0" type="line"/>
      <point x="964.0" y="644.0" type="line"/>
      <point x="964.0" y="567.0" type="line"/>
      <point x="632.0" y="567.0" type="line"/>
      <point x="598.0" y="419.0"/>
      <point x="561.0" y="304.0"/>
      <point x="514.0" y="204.0" type="curve"/>
      <point x="586.0" y="171.0"/>
      <point x="667.0" y="153.0"/>
      <point x="757.0" y="153.0" type="curve" smooth="yes"/>
      <point x="898.0" y="153.0"/>
      <point x="979.0" y="197.0"/>
      <point x="1005.0" y="287.0" type="curve"/>
      <point x="1067.0" y="287.0" type="line"/>
      <point x="1067.0" y="92.0"/>
      <point x="964.0" y="-18.0"/>
      <point x="783.0" y="-18.0" type="curve" smooth="yes"/>
      <point x="676.0" y="-18.0"/>
      <point x="595.0" y="16.0"/>
      <point x="463.0" y="118.0" type="curve"/>
      <point x="389.0" y="32.0"/>
      <point x="301.0" y="-16.0"/>
      <point x="211.0" y="-16.0" type="curve" smooth="yes"/>
      <point x="116.0" y="-16.0"/>
      <point x="56.0" y="32.0"/>
      <point x="56.0" y="107.0" type="curve" smooth="yes"/>
      <point x="56.0" y="197.0"/>
      <point x="136.0" y="260.0"/>
      <point x="248.0" y="260.0" type="curve" smooth="yes"/>
      <point x="280.0" y="260.0"/>
      <point x="317.0" y="255.0"/>
      <point x="357.0" y="245.0" type="curve"/>
      <point x="380.0" y="333.0"/>
      <point x="401.0" y="435.0"/>
      <point x="422.0" y="567.0" type="curve"/>
    </contour>
    <contour>
      <point x="336.0" y="165.0" type="curve"/>
      <point x="306.0" y="180.0"/>
      <point x="280.0" y="187.0"/>
      <point x="248.0" y="187.0" type="curve" smooth="yes"/>
      <point x="183.0" y="187.0"/>
      <point x="144.0" y="160.0"/>
      <point x="144.0" y="114.0" type="curve" smooth="yes"/>
      <point x="144.0" y="79.0"/>
      <point x="169.0" y="58.0"/>
      <point x="206.0" y="58.0" type="curve" smooth="yes"/>
      <point x="259.0" y="58.0"/>
      <point x="310.0" y="100.0"/>
    </contour>
  </outline>
</glyph>
<glyph name="currency" format="2">
  <advance width="1116.0"/>
  <unicode hex="00A4"/>
  <outline>
    <contour>
      <point x="220.0" y="224.0" type="line"/>
      <point x="136.0" y="308.0" type="line"/>
      <point x="253.0" y="424.0" type="line"/>
      <point x="204.0" y="484.0"/>
      <point x="180.0" y="561.0"/>
      <point x="180.0" y="648.0" type="curve" smooth="yes"/>
      <point x="180.0" y="732.0"/>
      <point x="204.0" y="806.0"/>
      <point x="253.0" y="869.0" type="curve"/>
      <point x="136.0" y="984.0" type="line"/>
      <point x="220.0" y="1068.0" type="line"/>
      <point x="336.0" y="950.0" type="line"/>
      <point x="396.0" y="998.0"/>
      <point x="473.0" y="1024.0"/>
      <point x="558.0" y="1024.0" type="curve" smooth="yes"/>
      <point x="639.0" y="1024.0"/>
      <point x="715.0" y="1000.0"/>
      <point x="781.0" y="952.0" type="curve"/>
      <point x="896.0" y="1068.0" type="line"/>
      <point x="980.0" y="984.0" type="line"/>
      <point x="862.0" y="868.0" type="line"/>
      <point x="912.0" y="806.0"/>
      <point x="936.0" y="732.0"/>
      <point x="936.0" y="648.0" type="curve" smooth="yes"/>
      <point x="936.0" y="565.0"/>
      <point x="912.0" y="489.0"/>
      <point x="864.0" y="424.0" type="curve"/>
      <point x="980.0" y="308.0" type="line"/>
      <point x="896.0" y="224.0" type="line"/>
      <point x="780.0" y="341.0" type="line"/>
      <point x="718.0" y="292.0"/>
      <point x="644.0" y="268.0"/>
      <point x="558.0" y="268.0" type="curve" smooth="yes"/>
      <point x="473.0" y="268.0"/>
      <point x="400.0" y="292.0"/>
      <point x="336.0" y="341.0" type="curve"/>
    </contour>
    <contour>
      <point x="558.0" y="380.0" type="curve" smooth="yes"/>
      <point x="697.0" y="380.0"/>
      <point x="813.0" y="500.0"/>
      <point x="813.0" y="646.0" type="curve" smooth="yes"/>
      <point x="813.0" y="792.0"/>
      <point x="697.0" y="912.0"/>
      <point x="558.0" y="912.0" type="curve" smooth="yes"/>
      <point x="419.0" y="912.0"/>
      <point x="303.0" y="792.0"/>
      <point x="303.0" y="648.0" type="curve" smooth="yes"/>
      <point x="303.0" y="502.0"/>
      <point x="419.0" y="380.0"/>
    </contour>
  </outline>
</glyph>
<glyph name="yen" format="2">
  <advance width="1144.0"/>
  <unicode hex="00A5"/>
  <outline>
    <contour>
      <point x="546.0" y="428.0" type="line"/>
      <point x="600.0" y="428.0" type="line"/>
      <point x="885.0" y="1119.0" type="line" smooth="yes"/>
      <point x="949.0" y="1271.0"/>
      <point x="975.0" y="1294.0"/>
      <point x="1088.0" y="1315.0" type="curve"/>
      <point x="1088.0" y="1355.0" type="line"/>
      <point x="697.0" y="1355.0" type="line"/>
      <point x="697.0" y="1315.0" type="line"/>
      <point x="803.0" y="1302.0"/>
      <point x="841.0" y="1278.0"/>
      <point x="841.0" y="1232.0" type="curve" smooth="yes"/>
      <point x="841.0" y="1218.0"/>
      <point x="838.0" y="1200.0"/>
      <point x="831.0" y="1181.0" type="curve" smooth="yes"/>
      <point x="639.0" y="713.0" type="line"/>
      <point x="632.0" y="713.0" type="line"/>
      <point x="440.0" y="1179.0" type="line" smooth="yes"/>
      <point x="429.0" y="1204.0"/>
      <point x="424.0" y="1223.0"/>
      <point x="424.0" y="1241.0" type="curve" smooth="yes"/>
      <point x="424.0" y="1281.0"/>
      <point x="459.0" y="1299.0"/>
      <point x="549.0" y="1315.0" type="curve"/>
      <point x="549.0" y="1355.0" type="line"/>
      <point x="60.0" y="1355.0" type="line"/>
      <point x="60.0" y="1315.0" type="line"/>
      <point x="148.0" y="1306.0"/>
      <point x="172.0" y="1290.0"/>
      <point x="209.0" y="1207.0" type="curve" smooth="yes"/>
    </contour>
    <contour>
      <point x="320.0" y="0.0" type="line"/>
      <point x="820.0" y="0.0" type="line"/>
      <point x="820.0" y="40.0" type="line"/>
      <point x="664.0" y="74.0" type="line"/>
      <point x="664.0" y="605.0" type="line"/>
      <point x="479.0" y="605.0" type="line"/>
      <point x="479.0" y="74.0" type="line"/>
      <point x="320.0" y="40.0" type="line"/>
    </contour>
    <contour>
      <point x="185.0" y="368.0" type="line"/>
      <point x="943.0" y="368.0" type="line"/>
      <point x="943.0" y="445.0" type="line"/>
      <point x="185.0" y="445.0" type="line"/>
    </contour>
    <contour>
      <point x="185.0" y="581.0" type="line"/>
      <point x="943.0" y="581.0" type="line"/>
      <point x="943.0" y="658.0" type="line"/>
      <point x="185.0" y="658.0" type="line"/>
    </contour>
  </outline>
</glyph>
<glyph name="brokenbar" format="2">
  <advance width="484.0"/>
  <unicode hex="00A6"/>
  <outline>
    <contour>
      <point x="301.0" y="760.0" type="line"/>
      <point x="301.0" y="1441.0" type="line"/>
      <point x="183.0" y="1441.0" type="line"/>
      <point x="183.0" y="760.0" type="line"/>
    </contour>
    <contour>
      <point x="301.0" y="-301.0" type="line"/>
      <point x="301.0" y="380.0" type="line"/>
      <point x="183.0" y="380.0" type="line"/>
      <point x="183.0" y="-301.0" type="line"/>
    </contour>
  </outline>
</glyph>
<glyph name="section" format="2">
  <advance width="950.0"/>
  <unicode hex="00A7"/>
  <outline>
    <contour>
      <point x="503.0" y="1461.0" type="curve" smooth="yes"/>
      <point x="266.0" y="1461.0"/>
      <point x="121.0" y="1345.0"/>
      <point x="121.0" y="1155.0" type="curve" smooth="yes"/>
      <point x="121.0" y="998.0"/>
      <point x="218.0" y="917.0"/>
      <point x="333.0" y="857.0" type="curve"/>
      <point x="195.0" y="811.0"/>
      <point x="113.0" y="708.0"/>
      <point x="113.0" y="572.0" type="curve" smooth="yes"/>
      <point x="113.0" y="208.0"/>
      <point x="695.0" y="296.0"/>
      <point x="695.0" y="-26.0" type="curve" smooth="yes"/>
      <point x="695.0" y="-148.0"/>
      <point x="611.0" y="-222.0"/>
      <point x="472.0" y="-222.0" type="curve" smooth="yes"/>
      <point x="354.0" y="-222.0"/>
      <point x="326.0" y="-171.0"/>
      <point x="297.0" y="-99.0" type="curve" smooth="yes"/>
      <point x="269.0" y="-23.0"/>
      <point x="252.0" y="12.0"/>
      <point x="201.0" y="12.0" type="curve" smooth="yes"/>
      <point x="146.0" y="12.0"/>
      <point x="113.0" y="-26.0"/>
      <point x="113.0" y="-83.0" type="curve" smooth="yes"/>
      <point x="113.0" y="-197.0"/>
      <point x="250.0" y="-278.0"/>
      <point x="444.0" y="-278.0" type="curve" smooth="yes"/>
      <point x="685.0" y="-278.0"/>
      <point x="831.0" y="-153.0"/>
      <point x="831.0" y="49.0" type="curve" smooth="yes"/>
      <point x="831.0" y="192.0"/>
      <point x="757.0" y="273.0"/>
      <point x="664.0" y="331.0" type="curve"/>
      <point x="773.0" y="387.0"/>
      <point x="840.0" y="493.0"/>
      <point x="840.0" y="623.0" type="curve" smooth="yes"/>
      <point x="840.0" y="1007.0"/>
      <point x="260.0" y="917.0"/>
      <point x="260.0" y="1221.0" type="curve" smooth="yes"/>
      <point x="260.0" y="1338.0"/>
      <point x="343.0" y="1404.0"/>
      <point x="486.0" y="1404.0" type="curve" smooth="yes"/>
      <point x="576.0" y="1404.0"/>
      <point x="611.0" y="1378.0"/>
      <point x="642.0" y="1299.0" type="curve" smooth="yes"/>
      <point x="671.0" y="1228.0"/>
      <point x="688.0" y="1188.0"/>
      <point x="741.0" y="1188.0" type="curve" smooth="yes"/>
      <point x="794.0" y="1188.0"/>
      <point x="829.0" y="1227.0"/>
      <point x="829.0" y="1281.0" type="curve" smooth="yes"/>
      <point x="829.0" y="1387.0"/>
      <point x="693.0" y="1461.0"/>
    </contour>
    <contour>
      <point x="704.0" y="551.0" type="curve" smooth="yes"/>
      <point x="704.0" y="472.0"/>
      <point x="660.0" y="405.0"/>
      <point x="593.0" y="368.0" type="curve"/>
      <point x="433.0" y="442.0"/>
      <point x="252.0" y="480.0"/>
      <point x="252.0" y="635.0" type="curve" smooth="yes"/>
      <point x="252.0" y="723.0"/>
      <point x="313.0" y="797.0"/>
      <point x="405.0" y="822.0" type="curve"/>
      <point x="560.0" y="753.0"/>
      <point x="704.0" y="690.0"/>
    </contour>
  </outline>
</glyph>
<glyph name="dieresis" format="2">
  <advance width="558.0"/>
  <unicode hex="00A8"/>
  <anchor x="278.0" y="1146.0" name="_top"/>
  <outline>
    <contour>
      <point x="18.0" y="1276.0" type="curve" smooth="yes"/>
      <point x="18.0" y="1223.0"/>
      <point x="56.0" y="1179.0"/>
      <point x="114.0" y="1179.0" type="curve" smooth="yes"/>
      <point x="174.0" y="1179.0"/>
      <point x="211.0" y="1223.0"/>
      <point x="211.0" y="1276.0" type="curve" smooth="yes"/>
      <point x="211.0" y="1332.0"/>
      <point x="174.0" y="1373.0"/>
      <point x="114.0" y="1373.0" type="curve" smooth="yes"/>
      <point x="56.0" y="1373.0"/>
      <point x="18.0" y="1332.0"/>
    </contour>
    <contour>
      <point x="347.0" y="1276.0" type="curve" smooth="yes"/>
      <point x="347.0" y="1223.0"/>
      <point x="385.0" y="1179.0"/>
      <point x="444.0" y="1179.0" type="curve" smooth="yes"/>
      <point x="503.0" y="1179.0"/>
      <point x="540.0" y="1223.0"/>
      <point x="540.0" y="1276.0" type="curve" smooth="yes"/>
      <point x="540.0" y="1332.0"/>
      <point x="503.0" y="1373.0"/>
      <point x="444.0" y="1373.0" type="curve" smooth="yes"/>
      <point x="385.0" y="1373.0"/>
      <point x="347.0" y="1332.0"/>
    </contour>
  </outline>
</glyph>
<glyph name="copyright" format="2">
  <advance width="1588.0"/>
  <unicode hex="00A9"/>
  <outline>
    <contour>
      <point x="95.0" y="678.0" type="curve" smooth="yes"/>
      <point x="95.0" y="296.0"/>
      <point x="408.0" y="-18.0"/>
      <point x="794.0" y="-18.0" type="curve" smooth="yes"/>
      <point x="1179.0" y="-18.0"/>
      <point x="1492.0" y="296.0"/>
      <point x="1492.0" y="678.0" type="curve" smooth="yes"/>
      <point x="1492.0" y="1060.0"/>
      <point x="1179.0" y="1373.0"/>
      <point x="794.0" y="1373.0" type="curve" smooth="yes"/>
      <point x="408.0" y="1373.0"/>
      <point x="95.0" y="1060.0"/>
    </contour>
    <contour>
      <point x="187.0" y="678.0" type="curve" smooth="yes"/>
      <point x="187.0" y="1014.0"/>
      <point x="454.0" y="1294.0"/>
      <point x="794.0" y="1294.0" type="curve" smooth="yes"/>
      <point x="1133.0" y="1294.0"/>
      <point x="1399.0" y="1014.0"/>
      <point x="1399.0" y="678.0" type="curve" smooth="yes"/>
      <point x="1399.0" y="341.0"/>
      <point x="1133.0" y="62.0"/>
      <point x="794.0" y="62.0" type="curve" smooth="yes"/>
      <point x="454.0" y="62.0"/>
      <point x="187.0" y="341.0"/>
    </contour>
    <contour>
      <point x="405.0" y="678.0" type="curve" smooth="yes"/>
      <point x="405.0" y="445.0"/>
      <point x="563.0" y="283.0"/>
      <point x="787.0" y="283.0" type="curve" smooth="yes"/>
      <point x="876.0" y="283.0"/>
      <point x="940.0" y="310.0"/>
      <point x="1008.0" y="366.0" type="curve"/>
      <point x="1054.0" y="285.0" type="line"/>
      <point x="1079.0" y="285.0" type="line"/>
      <point x="1079.0" y="568.0" type="line"/>
      <point x="1044.0" y="568.0" type="line"/>
      <point x="1033.0" y="514.0"/>
      <point x="1014.0" y="470.0"/>
      <point x="991.0" y="436.0" type="curve" smooth="yes"/>
      <point x="947.0" y="373.0"/>
      <point x="887.0" y="343.0"/>
      <point x="813.0" y="343.0" type="curve" smooth="yes"/>
      <point x="660.0" y="343.0"/>
      <point x="572.0" y="468.0"/>
      <point x="572.0" y="688.0" type="curve" smooth="yes"/>
      <point x="572.0" y="903.0"/>
      <point x="655.0" y="1024.0"/>
      <point x="817.0" y="1024.0" type="curve" smooth="yes"/>
      <point x="899.0" y="1024.0"/>
      <point x="957.0" y="993.0"/>
      <point x="1001.0" y="919.0" type="curve" smooth="yes"/>
      <point x="1017.0" y="892.0"/>
      <point x="1028.0" y="869.0"/>
      <point x="1040.0" y="831.0" type="curve"/>
      <point x="1079.0" y="831.0" type="line"/>
      <point x="1079.0" y="1082.0" type="line"/>
      <point x="1054.0" y="1082.0" type="line"/>
      <point x="1012.0" y="1016.0" type="line"/>
      <point x="1005.0" y="1016.0" type="line"/>
      <point x="943.0" y="1061.0"/>
      <point x="871.0" y="1086.0"/>
      <point x="788.0" y="1086.0" type="curve" smooth="yes"/>
      <point x="568.0" y="1086.0"/>
      <point x="405.0" y="915.0"/>
    </contour>
  </outline>
</glyph>
<glyph name="ordfeminine" format="2">
  <advance width="734.0"/>
  <unicode hex="00AA"/>
  <outline>
    <contour>
      <point x="252.0" y="743.0" type="curve" smooth="yes"/>
      <point x="313.0" y="743.0"/>
      <point x="371.0" y="776.0"/>
      <point x="419.0" y="840.0" type="curve"/>
      <point x="426.0" y="838.0" type="line"/>
      <point x="436.0" y="776.0"/>
      <point x="475.0" y="743.0"/>
      <point x="535.0" y="743.0" type="curve" smooth="yes"/>
      <point x="586.0" y="743.0"/>
      <point x="627.0" y="767.0"/>
      <point x="662.0" y="820.0" type="curve"/>
      <point x="634.0" y="847.0" type="line"/>
      <point x="616.0" y="829.0"/>
      <point x="604.0" y="822.0"/>
      <point x="586.0" y="822.0" type="curve" smooth="yes"/>
      <point x="553.0" y="822.0"/>
      <point x="544.0" y="843.0"/>
      <point x="544.0" y="917.0" type="curve" smooth="yes"/>
      <point x="544.0" y="1162.0" type="line" smooth="yes"/>
      <point x="544.0" y="1260.0"/>
      <point x="542.0" y="1285.0"/>
      <point x="530.0" y="1311.0" type="curve" smooth="yes"/>
      <point x="510.0" y="1348.0"/>
      <point x="456.0" y="1373.0"/>
      <point x="389.0" y="1373.0" type="curve" smooth="yes"/>
      <point x="338.0" y="1373.0"/>
      <point x="285.0" y="1360.0"/>
      <point x="243.0" y="1338.0" type="curve" smooth="yes"/>
      <point x="169.0" y="1301.0"/>
      <point x="120.0" y="1241.0"/>
      <point x="120.0" y="1190.0" type="curve" smooth="yes"/>
      <point x="120.0" y="1158.0"/>
      <point x="141.0" y="1135.0"/>
      <point x="172.0" y="1135.0" type="curve" smooth="yes"/>
      <point x="206.0" y="1135.0"/>
      <point x="232.0" y="1163.0"/>
      <point x="232.0" y="1200.0" type="curve" smooth="yes"/>
      <point x="232.0" y="1214.0"/>
      <point x="229.0" y="1228.0"/>
      <point x="229.0" y="1241.0" type="curve" smooth="yes"/>
      <point x="229.0" y="1283.0"/>
      <point x="271.0" y="1311.0"/>
      <point x="333.0" y="1311.0" type="curve" smooth="yes"/>
      <point x="394.0" y="1311.0"/>
      <point x="417.0" y="1280.0"/>
      <point x="417.0" y="1197.0" type="curve" smooth="yes"/>
      <point x="417.0" y="1095.0" type="line"/>
      <point x="190.0" y="1044.0"/>
      <point x="102.0" y="986.0"/>
      <point x="102.0" y="884.0" type="curve" smooth="yes"/>
      <point x="102.0" y="799.0"/>
      <point x="164.0" y="743.0"/>
    </contour>
    <contour>
      <point x="317.0" y="829.0" type="curve" smooth="yes"/>
      <point x="264.0" y="829.0"/>
      <point x="232.0" y="857.0"/>
      <point x="232.0" y="906.0" type="curve" smooth="yes"/>
      <point x="232.0" y="980.0"/>
      <point x="278.0" y="1014.0"/>
      <point x="417.0" y="1044.0" type="curve"/>
      <point x="417.0" y="905.0" type="line"/>
      <point x="389.0" y="852.0"/>
      <point x="357.0" y="829.0"/>
    </contour>
  </outline>
</glyph>
<glyph name="guillemotleft" format="2">
  <advance width="767.0"/>
  <unicode hex="00AB"/>
  <outline>
    <contour>
      <point x="347.0" y="93.0" type="line"/>
      <point x="102.0" y="415.0" type="line"/>
      <point x="102.0" y="449.0" type="line"/>
      <point x="343.0" y="767.0" type="line"/>
      <point x="364.0" y="759.0" type="line"/>
      <point x="248.0" y="433.0" type="line"/>
      <point x="368.0" y="107.0" type="line"/>
    </contour>
    <contour>
      <point x="621.0" y="93.0" type="line"/>
      <point x="377.0" y="415.0" type="line"/>
      <point x="377.0" y="449.0" type="line"/>
      <point x="618.0" y="767.0" type="line"/>
      <point x="639.0" y="759.0" type="line"/>
      <point x="523.0" y="433.0" type="line"/>
      <point x="642.0" y="107.0" type="line"/>
    </contour>
  </outline>
</glyph>
<glyph name="logicalnot" format="2">
  <advance width="1007.0"/>
  <unicode hex="00AC"/>
  <outline>
    <contour>
      <point x="869.0" y="465.0" type="line"/>
      <point x="869.0" y="542.0" type="line"/>
      <point x="148.0" y="542.0" type="line"/>
      <point x="148.0" y="465.0" type="line"/>
    </contour>
    <contour>
      <point x="780.0" y="259.0" type="line"/>
      <point x="869.0" y="259.0" type="line"/>
      <point x="869.0" y="514.0" type="line"/>
      <point x="780.0" y="514.0" type="line"/>
    </contour>
  </outline>
</glyph>
<glyph name="registered" format="2">
  <advance width="1214.0"/>
  <unicode hex="00AE"/>
  <outline>
    <contour>
      <point x="118.0" y="887.0" type="curve" smooth="yes"/>
      <point x="118.0" y="618.0"/>
      <point x="338.0" y="400.0"/>
      <point x="607.0" y="400.0" type="curve" smooth="yes"/>
      <point x="876.0" y="400.0"/>
      <point x="1096.0" y="618.0"/>
      <point x="1096.0" y="887.0" type="curve" smooth="yes"/>
      <point x="1096.0" y="1156.0"/>
      <point x="876.0" y="1373.0"/>
      <point x="607.0" y="1373.0" type="curve" smooth="yes"/>
      <point x="338.0" y="1373.0"/>
      <point x="118.0" y="1156.0"/>
    </contour>
    <contour>
      <point x="181.0" y="887.0" type="curve" smooth="yes"/>
      <point x="181.0" y="1123.0"/>
      <point x="371.0" y="1320.0"/>
      <point x="607.0" y="1320.0" type="curve" smooth="yes"/>
      <point x="843.0" y="1320.0"/>
      <point x="1031.0" y="1123.0"/>
      <point x="1031.0" y="887.0" type="curve" smooth="yes"/>
      <point x="1031.0" y="651.0"/>
      <point x="843.0" y="454.0"/>
      <point x="607.0" y="454.0" type="curve" smooth="yes"/>
      <point x="371.0" y="454.0"/>
      <point x="181.0" y="651.0"/>
    </contour>
    <contour>
      <point x="401.0" y="1144.0" type="line"/>
      <point x="447.0" y="1130.0" type="line"/>
      <point x="447.0" y="660.0" type="line"/>
      <point x="401.0" y="646.0" type="line"/>
      <point x="401.0" y="625.0" type="line"/>
      <point x="605.0" y="625.0" type="line"/>
      <point x="605.0" y="646.0" type="line"/>
      <point x="542.0" y="660.0" type="line"/>
      <point x="542.0" y="871.0" type="line"/>
      <point x="583.0" y="871.0" type="line"/>
      <point x="708.0" y="625.0" type="line"/>
      <point x="859.0" y="625.0" type="line"/>
      <point x="859.0" y="646.0" type="line"/>
      <point x="806.0" y="660.0" type="line"/>
      <point x="686.0" y="880.0" type="line"/>
      <point x="764.0" y="898.0"/>
      <point x="810.0" y="943.0"/>
      <point x="810.0" y="1016.0" type="curve" smooth="yes"/>
      <point x="810.0" y="1112.0"/>
      <point x="727.0" y="1167.0"/>
      <point x="609.0" y="1167.0" type="curve" smooth="yes"/>
      <point x="401.0" y="1167.0" type="line"/>
    </contour>
    <contour>
      <point x="542.0" y="1130.0" type="line"/>
      <point x="658.0" y="1130.0"/>
      <point x="704.0" y="1091.0"/>
      <point x="704.0" y="1019.0" type="curve" smooth="yes"/>
      <point x="704.0" y="938.0"/>
      <point x="634.0" y="908.0"/>
      <point x="542.0" y="908.0" type="curve"/>
    </contour>
  </outline>
</glyph>
<glyph name="macron" format="2">
  <advance width="540.0"/>
  <unicode hex="00AF"/>
  <anchor x="287.0" y="1146.0" name="_top"/>
  <outline>
    <contour>
      <point x="523.0" y="1248.0" type="line"/>
      <point x="523.0" y="1373.0" type="line"/>
      <point x="18.0" y="1373.0" type="line"/>
      <point x="18.0" y="1248.0" type="line"/>
    </contour>
  </outline>
</glyph>
<glyph name="degree" format="2">
  <advance width="598.0"/>
  <unicode hex="00B0"/>
  <outline>
    <contour>
      <point x="299.0" y="1033.0" type="curve" smooth="yes"/>
      <point x="180.0" y="1033.0"/>
      <point x="86.0" y="1126.0"/>
      <point x="86.0" y="1246.0" type="curve" smooth="yes"/>
      <point x="86.0" y="1366.0"/>
      <point x="180.0" y="1461.0"/>
      <point x="299.0" y="1461.0" type="curve" smooth="yes"/>
      <point x="417.0" y="1461.0"/>
      <point x="512.0" y="1364.0"/>
      <point x="512.0" y="1246.0" type="curve" smooth="yes"/>
      <point x="512.0" y="1126.0"/>
      <point x="419.0" y="1033.0"/>
    </contour>
    <contour>
      <point x="158.0" y="1246.0" type="curve" smooth="yes"/>
      <point x="158.0" y="1165.0"/>
      <point x="218.0" y="1105.0"/>
      <point x="299.0" y="1105.0" type="curve" smooth="yes"/>
      <point x="384.0" y="1105.0"/>
      <point x="440.0" y="1165.0"/>
      <point x="440.0" y="1246.0" type="curve" smooth="yes"/>
      <point x="440.0" y="1331.0"/>
      <point x="384.0" y="1390.0"/>
      <point x="299.0" y="1390.0" type="curve" smooth="yes"/>
      <point x="218.0" y="1390.0"/>
      <point x="158.0" y="1331.0"/>
    </contour>
  </outline>
</glyph>
<glyph name="plusminus" format="2">
  <advance width="1014.0"/>
  <unicode hex="00B1"/>
  <outline>
    <contour>
      <point x="868.0" y="743.0" type="line"/>
      <point x="868.0" y="829.0" type="line"/>
      <point x="146.0" y="829.0" type="line"/>
      <point x="146.0" y="743.0" type="line"/>
    </contour>
    <contour>
      <point x="463.0" y="424.0" type="line"/>
      <point x="553.0" y="424.0" type="line"/>
      <point x="553.0" y="1146.0" type="line"/>
      <point x="463.0" y="1146.0" type="line"/>
    </contour>
    <contour>
      <point x="868.0" y="187.0" type="line"/>
      <point x="868.0" y="273.0" type="line"/>
      <point x="146.0" y="273.0" type="line"/>
      <point x="146.0" y="187.0" type="line"/>
    </contour>
  </outline>
</glyph>
<glyph name="twosuperior" format="2">
  <advance width="713.0"/>
  <unicode hex="00B2"/>
  <outline>
    <contour>
      <point x="500.0" y="732.0" type="line"/>
      <point x="521.0" y="693.0" type="line"/>
      <point x="554.0" y="693.0" type="line"/>
      <point x="646.0" y="991.0" type="line"/>
      <point x="604.0" y="1000.0" type="line"/>
      <point x="576.0" y="949.0"/>
      <point x="544.0" y="908.0"/>
      <point x="519.0" y="884.0" type="curve"/>
      <point x="229.0" y="884.0" type="line"/>
      <point x="516.0" y="1107.0"/>
      <point x="618.0" y="1239.0"/>
      <point x="618.0" y="1380.0" type="curve" smooth="yes"/>
      <point x="618.0" y="1522.0"/>
      <point x="509.0" y="1630.0"/>
      <point x="364.0" y="1630.0" type="curve" smooth="yes"/>
      <point x="238.0" y="1630.0"/>
      <point x="128.0" y="1547.0"/>
      <point x="77.0" y="1410.0" type="curve"/>
      <point x="116.0" y="1385.0" type="line"/>
      <point x="158.0" y="1464.0"/>
      <point x="234.0" y="1519.0"/>
      <point x="306.0" y="1519.0" type="curve" smooth="yes"/>
      <point x="389.0" y="1519.0"/>
      <point x="445.0" y="1456.0"/>
      <point x="445.0" y="1357.0" type="curve" smooth="yes"/>
      <point x="445.0" y="1221.0"/>
      <point x="338.0" y="1070.0"/>
      <point x="49.0" y="799.0" type="curve"/>
      <point x="60.0" y="732.0" type="line"/>
    </contour>
  </outline>
</glyph>
<glyph name="threesuperior" format="2">
  <advance width="685.0"/>
  <unicode hex="00B3"/>
  <outline>
    <contour>
      <point x="211.0" y="1151.0" type="line"/>
      <point x="231.0" y="1155.0"/>
      <point x="257.0" y="1156.0"/>
      <point x="273.0" y="1156.0" type="curve" smooth="yes"/>
      <point x="378.0" y="1156.0"/>
      <point x="451.0" y="1081.0"/>
      <point x="451.0" y="957.0" type="curve" smooth="yes"/>
      <point x="451.0" y="857.0"/>
      <point x="396.0" y="794.0"/>
      <point x="317.0" y="794.0" type="curve" smooth="yes"/>
      <point x="195.0" y="794.0"/>
      <point x="239.0" y="964.0"/>
      <point x="136.0" y="964.0" type="curve" smooth="yes"/>
      <point x="90.0" y="964.0"/>
      <point x="60.0" y="929.0"/>
      <point x="60.0" y="880.0" type="curve" smooth="yes"/>
      <point x="60.0" y="790.0"/>
      <point x="162.0" y="720.0"/>
      <point x="290.0" y="720.0" type="curve" smooth="yes"/>
      <point x="468.0" y="720.0"/>
      <point x="609.0" y="857.0"/>
      <point x="609.0" y="1026.0" type="curve" smooth="yes"/>
      <point x="609.0" y="1156.0"/>
      <point x="526.0" y="1248.0"/>
      <point x="400.0" y="1260.0" type="curve"/>
      <point x="400.0" y="1267.0" type="line"/>
      <point x="488.0" y="1290.0"/>
      <point x="556.0" y="1359.0"/>
      <point x="556.0" y="1450.0" type="curve" smooth="yes"/>
      <point x="556.0" y="1558.0"/>
      <point x="472.0" y="1630.0"/>
      <point x="352.0" y="1630.0" type="curve" smooth="yes"/>
      <point x="224.0" y="1630.0"/>
      <point x="120.0" y="1549.0"/>
      <point x="93.0" y="1429.0" type="curve"/>
      <point x="130.0" y="1413.0" type="line"/>
      <point x="164.0" y="1478.0"/>
      <point x="229.0" y="1522.0"/>
      <point x="296.0" y="1522.0" type="curve" smooth="yes"/>
      <point x="354.0" y="1522.0"/>
      <point x="394.0" y="1484.0"/>
      <point x="394.0" y="1422.0" type="curve" smooth="yes"/>
      <point x="394.0" y="1336.0"/>
      <point x="319.0" y="1250.0"/>
      <point x="195.0" y="1202.0" type="curve"/>
    </contour>
  </outline>
</glyph>
<glyph name="acute" format="2">
  <advance width="299.0"/>
  <unicode hex="00B4"/>
  <anchor x="143.0" y="1146.0" name="_top"/>
  <outline>
    <contour>
      <point x="18.0" y="1130.0" type="line"/>
      <point x="116.0" y="1429.0" type="line" smooth="yes"/>
      <point x="134.0" y="1480.0"/>
      <point x="162.0" y="1512.0"/>
      <point x="213.0" y="1512.0" type="curve" smooth="yes"/>
      <point x="250.0" y="1512.0"/>
      <point x="282.0" y="1480.0"/>
      <point x="282.0" y="1436.0" type="curve" smooth="yes"/>
      <point x="282.0" y="1406.0"/>
      <point x="268.0" y="1376.0"/>
      <point x="229.0" y="1329.0" type="curve" smooth="yes"/>
      <point x="55.0" y="1111.0" type="line"/>
    </contour>
  </outline>
</glyph>
<glyph name="mu" format="2">
  <advance width="1098.0"/>
  <unicode hex="00B5"/>
  <outline>
    <contour>
      <point x="734.0" y="-18.0" type="line"/>
      <point x="746.0" y="-18.0" type="line"/>
      <point x="1010.0" y="69.0" type="line"/>
      <point x="1010.0" y="90.0" type="line"/>
      <point x="891.0" y="132.0" type="line"/>
      <point x="891.0" y="933.0" type="line"/>
      <point x="723.0" y="933.0" type="line"/>
      <point x="723.0" y="201.0" type="line"/>
      <point x="660.0" y="118.0"/>
      <point x="574.0" y="69.0"/>
      <point x="491.0" y="69.0" type="curve" smooth="yes"/>
      <point x="433.0" y="69.0"/>
      <point x="396.0" y="92.0"/>
      <point x="375.0" y="143.0" type="curve" smooth="yes"/>
      <point x="359.0" y="176.0"/>
      <point x="354.0" y="229.0"/>
      <point x="354.0" y="340.0" type="curve" smooth="yes"/>
      <point x="354.0" y="933.0" type="line"/>
      <point x="187.0" y="933.0" type="line"/>
      <point x="187.0" y="224.0" type="line" smooth="yes"/>
      <point x="187.0" y="48.0"/>
      <point x="160.0" y="-195.0"/>
      <point x="160.0" y="-304.0" type="curve" smooth="yes"/>
      <point x="160.0" y="-412.0"/>
      <point x="187.0" y="-458.0"/>
      <point x="246.0" y="-458.0" type="curve" smooth="yes"/>
      <point x="301.0" y="-458.0"/>
      <point x="331.0" y="-422.0"/>
      <point x="331.0" y="-363.0" type="curve" smooth="yes"/>
      <point x="331.0" y="-271.0"/>
      <point x="259.0" y="-35.0"/>
      <point x="259.0" y="123.0" type="curve"/>
      <point x="264.0" y="127.0" type="line"/>
      <point x="283.0" y="39.0"/>
      <point x="359.0" y="-18.0"/>
      <point x="459.0" y="-18.0" type="curve" smooth="yes"/>
      <point x="556.0" y="-18.0"/>
      <point x="644.0" y="35.0"/>
      <point x="727.0" y="144.0" type="curve"/>
      <point x="734.0" y="143.0" type="line"/>
    </contour>
  </outline>
</glyph>
<glyph name="paragraph" format="2">
  <advance width="1026.0"/>
  <unicode hex="00B6"/>
  <outline>
    <contour>
      <point x="598.0" y="-190.0" type="line"/>
      <point x="598.0" y="1285.0" type="line"/>
      <point x="704.0" y="1285.0" type="line"/>
      <point x="704.0" y="-190.0" type="line"/>
      <point x="785.0" y="-190.0" type="line"/>
      <point x="785.0" y="1281.0" type="line"/>
      <point x="922.0" y="1311.0" type="line"/>
      <point x="922.0" y="1355.0" type="line"/>
      <point x="463.0" y="1355.0" type="line" smooth="yes"/>
      <point x="209.0" y="1355.0"/>
      <point x="55.0" y="1206.0"/>
      <point x="55.0" y="975.0" type="curve" smooth="yes"/>
      <point x="55.0" y="771.0"/>
      <point x="195.0" y="598.0"/>
      <point x="419.0" y="598.0" type="curve" smooth="yes"/>
      <point x="517.0" y="598.0" type="line"/>
      <point x="517.0" y="-190.0" type="line"/>
    </contour>
  </outline>
</glyph>
<glyph name="cedilla" format="2">
  <advance width="405.0"/>
  <unicode hex="00B8"/>
  <anchor x="194.0" y="0.0" name="_bottom"/>
  <outline>
    <contour>
      <point x="18.0" y="-410.0" type="line"/>
      <point x="48.0" y="-436.0"/>
      <point x="100.0" y="-452.0"/>
      <point x="155.0" y="-452.0" type="curve" smooth="yes"/>
      <point x="297.0" y="-452.0"/>
      <point x="387.0" y="-377.0"/>
      <point x="387.0" y="-275.0" type="curve" smooth="yes"/>
      <point x="387.0" y="-176.0"/>
      <point x="310.0" y="-102.0"/>
      <point x="185.0" y="-102.0" type="curve"/>
      <point x="236.0" y="30.0" type="line"/>
      <point x="171.0" y="30.0" type="line"/>
      <point x="65.0" y="-218.0" type="line"/>
      <point x="81.0" y="-234.0" type="line"/>
      <point x="109.0" y="-225.0"/>
      <point x="144.0" y="-220.0"/>
      <point x="171.0" y="-220.0" type="curve" smooth="yes"/>
      <point x="225.0" y="-220.0"/>
      <point x="255.0" y="-248.0"/>
      <point x="255.0" y="-296.0" type="curve" smooth="yes"/>
      <point x="255.0" y="-348.0"/>
      <point x="211.0" y="-387.0"/>
      <point x="141.0" y="-387.0" type="curve" smooth="yes"/>
      <point x="106.0" y="-387.0"/>
      <point x="83.0" y="-380.0"/>
      <point x="42.0" y="-357.0" type="curve"/>
    </contour>
  </outline>
</glyph>
<glyph name="onesuperior" format="2">
  <advance width="618.0"/>
  <unicode hex="00B9"/>
  <outline>
    <contour>
      <point x="363.0" y="1630.0" type="line"/>
      <point x="280.0" y="1552.0"/>
      <point x="199.0" y="1508.0"/>
      <point x="104.0" y="1489.0" type="curve"/>
      <point x="104.0" y="1440.0" type="line"/>
      <point x="246.0" y="1440.0" type="line"/>
      <point x="246.0" y="804.0" type="line"/>
      <point x="102.0" y="774.0" type="line"/>
      <point x="102.0" y="732.0" type="line"/>
      <point x="551.0" y="732.0" type="line"/>
      <point x="551.0" y="774.0" type="line"/>
      <point x="405.0" y="804.0" type="line"/>
      <point x="405.0" y="1621.0" type="line"/>
    </contour>
  </outline>
</glyph>
<glyph name="ordmasculine" format="2">
  <advance width="778.0"/>
  <unicode hex="00BA"/>
  <outline>
    <contour>
      <point x="389.0" y="1373.0" type="curve" smooth="yes"/>
      <point x="216.0" y="1373.0"/>
      <point x="88.0" y="1239.0"/>
      <point x="88.0" y="1058.0" type="curve" smooth="yes"/>
      <point x="88.0" y="876.0"/>
      <point x="216.0" y="743.0"/>
      <point x="389.0" y="743.0" type="curve" smooth="yes"/>
      <point x="561.0" y="743.0"/>
      <point x="690.0" y="876.0"/>
      <point x="690.0" y="1058.0" type="curve" smooth="yes"/>
      <point x="690.0" y="1239.0"/>
      <point x="561.0" y="1373.0"/>
    </contour>
    <contour>
      <point x="227.0" y="1058.0" type="curve" smooth="yes"/>
      <point x="227.0" y="1218.0"/>
      <point x="287.0" y="1311.0"/>
      <point x="389.0" y="1311.0" type="curve" smooth="yes"/>
      <point x="491.0" y="1311.0"/>
      <point x="551.0" y="1218.0"/>
      <point x="551.0" y="1060.0" type="curve" smooth="yes"/>
      <point x="551.0" y="899.0"/>
      <point x="489.0" y="803.0"/>
      <point x="387.0" y="803.0" type="curve" smooth="yes"/>
      <point x="287.0" y="803.0"/>
      <point x="227.0" y="898.0"/>
    </contour>
  </outline>
</glyph>
<glyph name="guillemotright" format="2">
  <advance width="767.0"/>
  <unicode hex="00BB"/>
  <outline>
    <contour>
      <point x="400.0" y="107.0" type="line"/>
      <point x="519.0" y="433.0" type="line"/>
      <point x="403.0" y="759.0" type="line"/>
      <point x="424.0" y="767.0" type="line"/>
      <point x="665.0" y="449.0" type="line"/>
      <point x="665.0" y="415.0" type="line"/>
      <point x="421.0" y="93.0" type="line"/>
    </contour>
    <contour>
      <point x="125.0" y="107.0" type="line"/>
      <point x="245.0" y="433.0" type="line"/>
      <point x="128.0" y="759.0" type="line"/>
      <point x="150.0" y="767.0" type="line"/>
      <point x="391.0" y="449.0" type="line"/>
      <point x="391.0" y="415.0" type="line"/>
      <point x="146.0" y="93.0" type="line"/>
    </contour>
  </outline>
</glyph>
<glyph name="questiondown" format="2">
  <advance width="711.0"/>
  <unicode hex="00BF"/>
  <outline>
    <contour>
      <point x="544.0" y="528.0" type="line"/>
      <point x="544.0" y="155.0" type="line"/>
      <point x="475.0" y="155.0" type="line" smooth="yes"/>
      <point x="248.0" y="155.0"/>
      <point x="132.0" y="99.0"/>
      <point x="132.0" y="-14.0" type="curve" smooth="yes"/>
      <point x="132.0" y="-104.0"/>
      <point x="208.0" y="-188.0"/>
      <point x="366.0" y="-250.0" type="curve" smooth="yes"/>
      <point x="547.0" y="-320.0"/>
      <point x="577.0" y="-338.0"/>
      <point x="577.0" y="-389.0" type="curve" smooth="yes"/>
      <point x="577.0" y="-433.0"/>
      <point x="549.0" y="-451.0"/>
      <point x="484.0" y="-451.0" type="curve" smooth="yes"/>
      <point x="262.0" y="-451.0"/>
      <point x="72.0" y="-248.0"/>
      <point x="72.0" y="2.0" type="curve" smooth="yes"/>
      <point x="72.0" y="195.0"/>
      <point x="199.0" y="304.0"/>
      <point x="428.0" y="312.0" type="curve" smooth="yes"/>
      <point x="480.0" y="313.0" type="line"/>
      <point x="480.0" y="528.0" type="line"/>
    </contour>
    <contour>
      <point x="628.0" y="836.0" type="curve" smooth="yes"/>
      <point x="628.0" y="905.0"/>
      <point x="583.0" y="950.0"/>
      <point x="516.0" y="950.0" type="curve" smooth="yes"/>
      <point x="447.0" y="950.0"/>
      <point x="400.0" y="903.0"/>
      <point x="400.0" y="836.0" type="curve" smooth="yes"/>
      <point x="400.0" y="769.0"/>
      <point x="447.0" y="722.0"/>
      <point x="514.0" y="722.0" type="curve" smooth="yes"/>
      <point x="583.0" y="722.0"/>
      <point x="628.0" y="769.0"/>
    </contour>
  </outline>
</glyph>
<glyph name="AE" format="2">
  <advance width="1811.0"/>
  <unicode hex="00C6"/>
  <outline>
    <contour>
      <point x="-39.0" y="0.0" type="line"/>
      <point x="454.0" y="0.0" type="line"/>
      <point x="454.0" y="40.0" type="line"/>
      <point x="345.0" y="58.0"/>
      <point x="297.0" y="77.0"/>
      <point x="297.0" y="127.0" type="curve" smooth="yes"/>
      <point x="297.0" y="153.0"/>
      <point x="310.0" y="187.0"/>
      <point x="334.0" y="232.0" type="curve" smooth="yes"/>
      <point x="480.0" y="514.0" type="line"/>
      <point x="829.0" y="514.0" type="line"/>
      <point x="829.0" y="74.0" type="line"/>
      <point x="679.0" y="40.0" type="line"/>
      <point x="679.0" y="0.0" type="line"/>
      <point x="1651.0" y="0.0" type="line"/>
      <point x="1716.0" y="412.0" type="line"/>
      <point x="1658.0" y="412.0" type="line"/>
      <point x="1619.0" y="297.0"/>
      <point x="1580.0" y="185.0"/>
      <point x="1510.0" y="70.0" type="curve"/>
      <point x="1014.0" y="70.0" type="line"/>
      <point x="1014.0" y="646.0" type="line"/>
      <point x="1329.0" y="646.0" type="line"/>
      <point x="1362.0" y="576.0"/>
      <point x="1383.0" y="505.0"/>
      <point x="1394.0" y="435.0" type="curve"/>
      <point x="1436.0" y="435.0" type="line"/>
      <point x="1436.0" y="928.0" type="line"/>
      <point x="1394.0" y="928.0" type="line"/>
      <point x="1382.0" y="857.0"/>
      <point x="1362.0" y="787.0"/>
      <point x="1329.0" y="716.0" type="curve"/>
      <point x="1014.0" y="716.0" type="line"/>
      <point x="1014.0" y="1285.0" type="line"/>
      <point x="1519.0" y="1285.0" type="line"/>
      <point x="1577.0" y="1184.0"/>
      <point x="1617.0" y="1068.0"/>
      <point x="1646.0" y="968.0" type="curve"/>
      <point x="1688.0" y="968.0" type="line"/>
      <point x="1658.0" y="1355.0" type="line"/>
      <point x="662.0" y="1355.0" type="line"/>
      <point x="662.0" y="1315.0" type="line"/>
      <point x="811.0" y="1285.0" type="line"/>
      <point x="259.0" y="236.0" type="line" smooth="yes"/>
      <point x="192.0" y="109.0"/>
      <point x="151.0" y="69.0"/>
      <point x="-39.0" y="40.0" type="curve"/>
    </contour>
    <contour>
      <point x="517.0" y="584.0" type="line"/>
      <point x="820.0" y="1174.0" type="line"/>
      <point x="827.0" y="1174.0" type="line"/>
      <point x="827.0" y="584.0" type="line"/>
    </contour>
  </outline>
</glyph>
<glyph name="multiply" format="2">
  <advance width="864.0"/>
  <unicode hex="00D7"/>
  <outline>
    <contour>
      <point x="681.0" y="285.0" type="line"/>
      <point x="746.0" y="350.0" type="line"/>
      <point x="187.0" y="910.0" type="line"/>
      <point x="121.0" y="845.0" type="line"/>
    </contour>
    <contour>
      <point x="120.0" y="350.0" type="line"/>
      <point x="188.0" y="282.0" type="line"/>
      <point x="748.0" y="841.0" type="line"/>
      <point x="679.0" y="910.0" type="line"/>
    </contour>
  </outline>
</glyph>
<glyph name="Oslash" format="2">
  <advance width="1473.0"/>
  <unicode hex="00D8"/>
  <outline>
    <contour>
      <point x="737.0" y="-18.0" type="curve" smooth="yes"/>
      <point x="1102.0" y="-18.0"/>
      <point x="1376.0" y="282.0"/>
      <point x="1376.0" y="678.0" type="curve" smooth="yes"/>
      <point x="1376.0" y="871.0"/>
      <point x="1309.0" y="1042.0"/>
      <point x="1199.0" y="1165.0" type="curve"/>
      <point x="1362.0" y="1355.0" type="line"/>
      <point x="1264.0" y="1355.0" type="line"/>
      <point x="1146.0" y="1218.0" type="line"/>
      <point x="1037.0" y="1315.0"/>
      <point x="896.0" y="1373.0"/>
      <point x="737.0" y="1373.0" type="curve" smooth="yes"/>
      <point x="373.0" y="1373.0"/>
      <point x="99.0" y="1074.0"/>
      <point x="99.0" y="678.0" type="curve" smooth="yes"/>
      <point x="99.0" y="488.0"/>
      <point x="162.0" y="319.0"/>
      <point x="268.0" y="195.0" type="curve"/>
      <point x="100.0" y="0.0" type="line"/>
      <point x="197.0" y="0.0" type="line"/>
      <point x="320.0" y="143.0" type="line"/>
      <point x="429.0" y="42.0"/>
      <point x="574.0" y="-18.0"/>
    </contour>
    <contour>
      <point x="378.0" y="326.0" type="line"/>
      <point x="340.0" y="421.0"/>
      <point x="320.0" y="540.0"/>
      <point x="320.0" y="679.0" type="curve" smooth="yes"/>
      <point x="320.0" y="1065.0"/>
      <point x="477.0" y="1294.0"/>
      <point x="739.0" y="1294.0" type="curve" smooth="yes"/>
      <point x="876.0" y="1294.0"/>
      <point x="984.0" y="1230.0"/>
      <point x="1056.0" y="1114.0" type="curve"/>
    </contour>
    <contour>
      <point x="737.0" y="62.0" type="curve" smooth="yes"/>
      <point x="597.0" y="62.0"/>
      <point x="486.0" y="130.0"/>
      <point x="414.0" y="253.0" type="curve"/>
      <point x="1093.0" y="1042.0" type="line"/>
      <point x="1133.0" y="945.0"/>
      <point x="1155.0" y="825.0"/>
      <point x="1155.0" y="683.0" type="curve" smooth="yes"/>
      <point x="1155.0" y="294.0"/>
      <point x="998.0" y="62.0"/>
    </contour>
  </outline>
</glyph>
<glyph name="Thorn" format="2">
  <advance width="1170.0"/>
  <unicode hex="00DE"/>
  <outline>
    <contour>
      <point x="621.0" y="1315.0" type="line"/>
      <point x="621.0" y="1355.0" type="line"/>
      <point x="86.0" y="1355.0" type="line"/>
      <point x="86.0" y="1315.0" type="line"/>
      <point x="236.0" y="1281.0" type="line"/>
      <point x="236.0" y="74.0" type="line"/>
      <point x="86.0" y="40.0" type="line"/>
      <point x="86.0" y="0.0" type="line"/>
      <point x="621.0" y="0.0" type="line"/>
      <point x="621.0" y="40.0" type="line"/>
      <point x="421.0" y="74.0" type="line"/>
      <point x="421.0" y="294.0" type="line"/>
      <point x="607.0" y="294.0" type="line" smooth="yes"/>
      <point x="913.0" y="294.0"/>
      <point x="1104.0" y="424.0"/>
      <point x="1104.0" y="665.0" type="curve" smooth="yes"/>
      <point x="1104.0" y="926.0"/>
      <point x="910.0" y="1068.0"/>
      <point x="634.0" y="1068.0" type="curve" smooth="yes"/>
      <point x="421.0" y="1068.0" type="line"/>
      <point x="421.0" y="1281.0" type="line"/>
    </contour>
    <contour>
      <point x="421.0" y="998.0" type="line"/>
      <point x="583.0" y="998.0" type="line" smooth="yes"/>
      <point x="655.0" y="998.0"/>
      <point x="700.0" y="993.0"/>
      <point x="739.0" y="977.0" type="curve" smooth="yes"/>
      <point x="841.0" y="936.0"/>
      <point x="901.0" y="834.0"/>
      <point x="901.0" y="683.0" type="curve" smooth="yes"/>
      <point x="901.0" y="600.0"/>
      <point x="884.0" y="519.0"/>
      <point x="831.0" y="458.0" type="curve" smooth="yes"/>
      <point x="780.0" y="398.0"/>
      <point x="700.0" y="363.0"/>
      <point x="553.0" y="363.0" type="curve" smooth="yes"/>
      <point x="421.0" y="363.0" type="line"/>
    </contour>
  </outline>
</glyph>
<glyph name="germandbls" format="2">
  <advance width="1221.0"/>
  <unicode hex="00DF"/>
  <outline>
    <contour>
      <point x="634.0" y="1461.0" type="curve" smooth="yes"/>
      <point x="444.0" y="1461.0"/>
      <point x="289.0" y="1375.0"/>
      <point x="232.0" y="1237.0" type="curve" smooth="yes"/>
      <point x="208.0" y="1176.0"/>
      <point x="201.0" y="1102.0"/>
      <point x="201.0" y="908.0" type="curve" smooth="yes"/>
      <point x="201.0" y="60.0" type="line"/>
      <point x="69.0" y="33.0" type="line"/>
      <point x="69.0" y="0.0" type="line"/>
      <point x="519.0" y="0.0" type="line"/>
      <point x="519.0" y="33.0" type="line"/>
      <point x="368.0" y="60.0" type="line"/>
      <point x="368.0" y="1030.0" type="line" smooth="yes"/>
      <point x="368.0" y="1269.0"/>
      <point x="449.0" y="1397.0"/>
      <point x="600.0" y="1397.0" type="curve" smooth="yes"/>
      <point x="720.0" y="1397.0"/>
      <point x="801.0" y="1316.0"/>
      <point x="801.0" y="1193.0" type="curve" smooth="yes"/>
      <point x="801.0" y="1000.0"/>
      <point x="598.0" y="880.0"/>
      <point x="598.0" y="683.0" type="curve" smooth="yes"/>
      <point x="598.0" y="391.0"/>
      <point x="1040.0" y="440.0"/>
      <point x="1040.0" y="195.0" type="curve" smooth="yes"/>
      <point x="1040.0" y="99.0"/>
      <point x="972.0" y="35.0"/>
      <point x="864.0" y="35.0" type="curve" smooth="yes"/>
      <point x="732.0" y="35.0"/>
      <point x="655.0" y="128.0"/>
      <point x="641.0" y="306.0" type="curve"/>
      <point x="598.0" y="306.0" type="line"/>
      <point x="609.0" y="21.0" type="line"/>
      <point x="678.0" y="-2.0"/>
      <point x="778.0" y="-18.0"/>
      <point x="852.0" y="-18.0" type="curve" smooth="yes"/>
      <point x="1051.0" y="-18.0"/>
      <point x="1176.0" y="93.0"/>
      <point x="1176.0" y="268.0" type="curve" smooth="yes"/>
      <point x="1176.0" y="595.0"/>
      <point x="737.0" y="526.0"/>
      <point x="737.0" y="753.0" type="curve" smooth="yes"/>
      <point x="737.0" y="912.0"/>
      <point x="952.0" y="1026.0"/>
      <point x="952.0" y="1221.0" type="curve" smooth="yes"/>
      <point x="952.0" y="1369.0"/>
      <point x="831.0" y="1461.0"/>
    </contour>
    <contour>
      <point x="46.0" y="841.0" type="line"/>
      <point x="294.0" y="841.0" type="line"/>
      <point x="315.0" y="898.0" type="line"/>
      <point x="67.0" y="898.0" type="line"/>
    </contour>
  </outline>
</glyph>
